<svg width="360" height="101" viewBox="0 0 360 101" fill="none" xmlns="http://www.w3.org/2000/svg">
<path d="M0.00440226 19.4158C0.0900534 17.1888 1.9355 16.2945 3.13996 16.0578C3.40226 16.0063 3.67109 16.0423 3.92548 16.1244L19.3049 21.0872C20.0037 21.3127 20.5227 21.903 20.657 22.6249L26.4873 53.9765C26.6634 54.9238 27.49 55.6108 28.4535 55.6108H74.6867C75.6769 55.6108 76.5181 54.8862 76.6647 53.907L77.9215 45.5134C78.0246 44.8247 77.762 44.1319 77.2283 43.6845L71.5083 38.8898C70.6471 38.1679 69.3604 38.297 68.6598 39.1755L66.3457 42.0774C66.2241 42.2299 66.0832 42.3685 65.9117 42.4614C64.7248 43.1041 63.4072 42.643 62.8664 42.3073L56.2512 37.189C55.3726 36.5092 54.1084 36.6757 53.4357 37.5598L50.6649 41.2014C50.5304 41.3781 50.3699 41.5364 50.1736 41.6403C48.8255 42.3534 47.4669 41.8413 46.9262 41.4684L38.854 35.8678C37.7803 35.1228 36.2923 35.5909 35.8384 36.8164L35.679 37.2468C35.5846 37.5017 35.4429 37.7391 35.2316 37.9102C34.7122 38.3308 33.8065 38.8529 32.7238 38.8916C31.7818 38.9252 31.0995 38.6657 30.6934 38.4112C30.4288 38.2454 30.2878 37.9547 30.2128 37.6515L26.9249 24.3527C26.6132 23.0917 27.5675 21.8727 28.8665 21.8727H43.0625C43.3958 21.8727 43.7283 21.9496 43.9959 22.1482C44.7252 22.6895 45.6882 23.7476 45.7277 25.1686C45.7591 26.3003 45.1395 27.0558 44.5008 27.5432C43.9714 27.9473 43.5703 28.5277 43.5703 29.1937C43.5703 29.6835 43.7767 30.1506 44.1389 30.4804L45.6134 31.8233C46.3623 32.5053 47.5029 32.5198 48.2688 31.857L53.1584 27.6256C53.9255 27.0982 54.7565 27.4058 55.0761 27.6256L61.5227 32.5845C62.298 33.1809 63.3908 33.129 64.1062 32.4619L68.1998 28.6443C69.0627 27.9252 70.1174 28.3447 70.5369 28.6443L84.2034 40.5602C84.7231 41.0133 84.9734 41.6992 84.8677 42.3806C84.2532 46.3412 82.6587 56.8773 82.2144 59.8148C82.1391 60.3129 81.8811 60.7607 81.4697 61.0515C80.6668 61.6192 79.2743 62.5023 78.3827 62.5023C60.0255 62.5023 24.4661 62.742 22.8361 62.742C21.2061 62.742 20.479 61.104 20.3192 60.285L15.0596 28.6695C14.9401 27.9515 14.44 27.355 13.7538 27.1122L2.16172 23.0113C1.40267 22.8515 -0.0914787 21.9087 0.00440226 19.4158Z" fill="#2D85D6"/>
<path d="M79.4614 74.6072C79.4614 79.9687 75.115 84.3151 69.7535 84.3151C64.3919 84.3151 60.0455 79.9687 60.0455 74.6072C60.0455 69.2456 64.3919 64.8992 69.7535 64.8992C75.115 64.8992 79.4614 69.2456 79.4614 74.6072ZM65.3849 74.6072C65.3849 77.0199 67.3408 78.9758 69.7535 78.9758C72.1662 78.9758 74.1221 77.0199 74.1221 74.6072C74.1221 72.1945 72.1662 70.2386 69.7535 70.2386C67.3408 70.2386 65.3849 72.1945 65.3849 74.6072Z" fill="#2D85D6"/>
<path d="M44.7045 74.6072C44.7045 79.9687 40.3581 84.3151 34.9965 84.3151C29.635 84.3151 25.2886 79.9687 25.2886 74.6072C25.2886 69.2456 29.635 64.8992 34.9965 64.8992C40.3581 64.8992 44.7045 69.2456 44.7045 74.6072ZM30.6279 74.6072C30.6279 77.0199 32.5838 78.9758 34.9965 78.9758C37.4092 78.9758 39.3651 77.0199 39.3651 74.6072C39.3651 72.1945 37.4092 70.2386 34.9965 70.2386C32.5838 70.2386 30.6279 72.1945 30.6279 74.6072Z" fill="#2D85D6"/>
<rect x="30.562" y="46.2025" width="41.5884" height="6.95137" rx="3.47568" fill="#2D85D6"/>
<path d="M103.823 59.1576V44.8536H97.4388V42.3576H112.943V44.8536H106.415V59.1576H103.823ZM119.704 59.1576V42.3576H129.52C130.512 42.3576 131.416 42.5896 132.232 43.0536C133.064 43.5016 133.728 44.1176 134.224 44.9016C134.72 45.6856 134.968 46.5576 134.968 47.5176C134.968 48.5256 134.696 49.4456 134.152 50.2776C133.608 51.0936 132.888 51.7496 131.992 52.2456C131.096 52.7256 130.112 52.9656 129.04 52.9656H122.296V59.1576H119.704ZM132.712 59.1576L127 51.5736L129.76 50.9736L135.952 59.1816L132.712 59.1576ZM122.296 50.4696H128.8C129.408 50.4696 129.968 50.3336 130.48 50.0616C131.008 49.7896 131.424 49.4296 131.728 48.9816C132.048 48.5336 132.208 48.0456 132.208 47.5176C132.208 47.0216 132.048 46.5736 131.728 46.1736C131.424 45.7736 131.008 45.4536 130.48 45.2136C129.968 44.9736 129.408 44.8536 128.8 44.8536H122.296V50.4696ZM141.802 59.1576L150.01 42.3576H153.034L161.194 59.1576H158.338L152.698 47.5896C152.554 47.2856 152.41 46.9896 152.266 46.7016C152.122 46.4136 151.978 46.1256 151.834 45.8376C151.706 45.5496 151.578 45.2456 151.45 44.9256C151.322 44.6056 151.194 44.2536 151.066 43.8696L151.834 43.8456C151.69 44.2296 151.546 44.5896 151.402 44.9256C151.274 45.2616 151.138 45.5816 150.994 45.8856C150.85 46.1896 150.706 46.4936 150.562 46.7976C150.418 47.0856 150.274 47.3816 150.13 47.6856L144.538 59.1576H141.802ZM145.378 55.2216L146.41 52.7256H156.37L156.778 55.2216H145.378ZM167.774 59.1576V42.3576H170.342L183.974 56.1096L183.83 56.3256C183.75 55.8456 183.678 55.3336 183.614 54.7896C183.566 54.2296 183.526 53.6616 183.494 53.0856C183.462 52.4936 183.43 51.9016 183.398 51.3096C183.382 50.7016 183.366 50.1096 183.35 49.5336C183.35 48.9576 183.35 48.4056 183.35 47.8776V42.3576H185.942V59.1576H183.326L169.862 45.9096L169.886 45.5736C169.918 45.8616 169.95 46.2056 169.982 46.6056C170.014 47.0056 170.054 47.4376 170.102 47.9016C170.15 48.3656 170.19 48.8456 170.222 49.3416C170.27 49.8216 170.302 50.3096 170.318 50.8056C170.35 51.2856 170.366 51.7416 170.366 52.1736V59.1576H167.774ZM201.784 59.3976C200.584 59.3976 199.472 59.2776 198.448 59.0376C197.44 58.7976 196.512 58.4376 195.664 57.9576C194.832 57.4776 194.072 56.8696 193.384 56.1336L195.016 53.9736C196.056 55.0456 197.112 55.8296 198.184 56.3256C199.272 56.8216 200.48 57.0696 201.808 57.0696C202.64 57.0696 203.44 56.9736 204.208 56.7816C204.976 56.5736 205.608 56.2696 206.104 55.8696C206.6 55.4536 206.848 54.9336 206.848 54.3096C206.848 53.9096 206.712 53.5816 206.44 53.3256C206.168 53.0696 205.808 52.8616 205.36 52.7016C204.928 52.5416 204.456 52.4136 203.944 52.3176C203.432 52.2216 202.936 52.1496 202.456 52.1016C201.992 52.0536 201.6 52.0136 201.28 51.9816C200.208 51.8376 199.232 51.6456 198.352 51.4056C197.488 51.1496 196.744 50.8296 196.12 50.4456C195.512 50.0616 195.04 49.5896 194.704 49.0296C194.384 48.4696 194.224 47.8216 194.224 47.0856C194.224 46.3016 194.408 45.6056 194.776 44.9976C195.16 44.3736 195.688 43.8536 196.36 43.4376C197.048 43.0056 197.84 42.6776 198.736 42.4536C199.648 42.2296 200.632 42.1176 201.688 42.1176C202.808 42.1176 203.832 42.2296 204.76 42.4536C205.688 42.6776 206.512 43.0136 207.232 43.4616C207.968 43.8936 208.576 44.4296 209.056 45.0696L207.328 46.9656C206.88 46.4216 206.36 45.9656 205.768 45.5976C205.176 45.2136 204.528 44.9256 203.824 44.7336C203.136 44.5416 202.4 44.4456 201.616 44.4456C200.752 44.4456 199.976 44.5416 199.288 44.7336C198.6 44.9256 198.056 45.1976 197.656 45.5496C197.256 45.8856 197.056 46.3016 197.056 46.7976C197.056 47.2296 197.176 47.5976 197.416 47.9016C197.672 48.2056 198.024 48.4616 198.472 48.6696C198.92 48.8616 199.456 49.0216 200.08 49.1496C200.72 49.2776 201.424 49.3896 202.192 49.4856C203.152 49.5976 204.08 49.7416 204.976 49.9176C205.872 50.0936 206.672 50.3416 207.376 50.6616C208.08 50.9656 208.64 51.3816 209.056 51.9096C209.472 52.4376 209.68 53.1256 209.68 53.9736C209.68 55.0616 209.352 56.0136 208.696 56.8296C208.04 57.6456 207.12 58.2776 205.936 58.7256C204.768 59.1736 203.384 59.3976 201.784 59.3976ZM217.11 59.1576V42.3576H219.702V59.1576H217.11ZM217.974 52.2456V49.7496H229.806V52.2456H217.974ZM218.31 44.8536V42.3576H230.886V44.8536H218.31ZM247.271 59.3976C245.783 59.3976 244.423 59.1816 243.191 58.7496C241.959 58.3016 240.887 57.6856 239.975 56.9016C239.063 56.1016 238.359 55.1816 237.863 54.1416C237.367 53.0856 237.119 51.9576 237.119 50.7576C237.119 49.5576 237.367 48.4376 237.863 47.3976C238.359 46.3416 239.063 45.4216 239.975 44.6376C240.887 43.8376 241.959 43.2216 243.191 42.7896C244.423 42.3416 245.783 42.1176 247.271 42.1176C248.743 42.1176 250.095 42.3416 251.327 42.7896C252.559 43.2216 253.631 43.8376 254.543 44.6376C255.455 45.4216 256.159 46.3416 256.655 47.3976C257.167 48.4376 257.423 49.5576 257.423 50.7576C257.423 51.9576 257.167 53.0856 256.655 54.1416C256.159 55.1816 255.455 56.1016 254.543 56.9016C253.631 57.6856 252.559 58.3016 251.327 58.7496C250.095 59.1816 248.743 59.3976 247.271 59.3976ZM247.271 56.8776C248.375 56.8776 249.383 56.7256 250.295 56.4216C251.207 56.1016 251.999 55.6696 252.671 55.1256C253.343 54.5656 253.863 53.9176 254.231 53.1816C254.599 52.4296 254.783 51.6216 254.783 50.7576C254.783 49.8936 254.599 49.0936 254.231 48.3576C253.863 47.6056 253.343 46.9576 252.671 46.4136C251.999 45.8536 251.207 45.4216 250.295 45.1176C249.383 44.7976 248.375 44.6376 247.271 44.6376C246.167 44.6376 245.151 44.7976 244.223 45.1176C243.311 45.4216 242.519 45.8536 241.847 46.4136C241.175 46.9576 240.655 47.6056 240.287 48.3576C239.935 49.0936 239.759 49.8936 239.759 50.7576C239.759 51.6216 239.935 52.4296 240.287 53.1816C240.655 53.9176 241.175 54.5656 241.847 55.1256C242.519 55.6696 243.311 56.1016 244.223 56.4216C245.151 56.7256 246.167 56.8776 247.271 56.8776ZM264.852 59.1576V42.3576H274.668C275.66 42.3576 276.564 42.5896 277.38 43.0536C278.212 43.5016 278.876 44.1176 279.372 44.9016C279.868 45.6856 280.116 46.5576 280.116 47.5176C280.116 48.5256 279.844 49.4456 279.3 50.2776C278.756 51.0936 278.036 51.7496 277.14 52.2456C276.244 52.7256 275.26 52.9656 274.188 52.9656H267.444V59.1576H264.852ZM277.86 59.1576L272.148 51.5736L274.908 50.9736L281.1 59.1816L277.86 59.1576ZM267.444 50.4696H273.948C274.556 50.4696 275.116 50.3336 275.628 50.0616C276.156 49.7896 276.572 49.4296 276.876 48.9816C277.196 48.5336 277.356 48.0456 277.356 47.5176C277.356 47.0216 277.196 46.5736 276.876 46.1736C276.572 45.7736 276.156 45.4536 275.628 45.2136C275.116 44.9736 274.556 44.8536 273.948 44.8536H267.444V50.4696ZM289.11 59.1576V42.3576H291.654L299.31 51.8376H298.398L306.054 42.3576H308.598V59.1576H306.006V52.0296C306.006 50.7016 306.038 49.4536 306.102 48.2856C306.166 47.1176 306.294 45.9256 306.486 44.7096L306.75 45.6936L299.646 54.3336H298.062L290.958 45.6936L291.222 44.7096C291.414 45.9256 291.542 47.1176 291.606 48.2856C291.67 49.4536 291.702 50.7016 291.702 52.0296V59.1576H289.11ZM317.329 59.1576V42.3576H331.273V44.8536H319.921V56.6616H331.273V59.1576H317.329ZM318.745 51.7896V49.2936H329.953V51.7896H318.745ZM339.477 59.1576V42.3576H349.293C350.285 42.3576 351.189 42.5896 352.005 43.0536C352.837 43.5016 353.501 44.1176 353.997 44.9016C354.493 45.6856 354.741 46.5576 354.741 47.5176C354.741 48.5256 354.469 49.4456 353.925 50.2776C353.381 51.0936 352.661 51.7496 351.765 52.2456C350.869 52.7256 349.885 52.9656 348.813 52.9656H342.069V59.1576H339.477ZM352.485 59.1576L346.773 51.5736L349.533 50.9736L355.725 59.1816L352.485 59.1576ZM342.069 50.4696H348.573C349.181 50.4696 349.741 50.3336 350.253 50.0616C350.781 49.7896 351.197 49.4296 351.501 48.9816C351.821 48.5336 351.981 48.0456 351.981 47.5176C351.981 47.0216 351.821 46.5736 351.501 46.1736C351.197 45.7736 350.781 45.4536 350.253 45.2136C349.741 44.9736 349.181 44.8536 348.573 44.8536H342.069V50.4696Z" fill="#2D85D6"/>
</svg>
