<svg width="789" height="306" viewBox="0 0 789 306" fill="none" xmlns="http://www.w3.org/2000/svg">
<rect width="789" height="306" fill="white"/>
<rect width="789" height="38" transform="translate(0 78)" fill="#F4F5FC"/>
<path d="M33.976 43.16C33.1013 43.16 32.264 43.0373 31.464 42.792C30.664 42.536 30.0293 42.2107 29.56 41.816L30.28 40.2C30.728 40.552 31.2827 40.8453 31.944 41.08C32.6053 41.3147 33.2827 41.432 33.976 41.432C34.5627 41.432 35.0373 41.368 35.4 41.24C35.7627 41.112 36.0293 40.9413 36.2 40.728C36.3707 40.504 36.456 40.2533 36.456 39.976C36.456 39.6347 36.3333 39.3627 36.088 39.16C35.8427 38.9467 35.5227 38.7813 35.128 38.664C34.744 38.536 34.312 38.4187 33.832 38.312C33.3627 38.2053 32.888 38.0827 32.408 37.944C31.9387 37.7947 31.5067 37.608 31.112 37.384C30.728 37.1493 30.4133 36.84 30.168 36.456C29.9227 36.072 29.8 35.5813 29.8 34.984C29.8 34.376 29.96 33.8213 30.28 33.32C30.6107 32.808 31.1067 32.4027 31.768 32.104C32.44 31.7947 33.288 31.64 34.312 31.64C34.984 31.64 35.6507 31.7253 36.312 31.896C36.9733 32.0667 37.5493 32.312 38.04 32.632L37.384 34.248C36.8827 33.9493 36.3653 33.7307 35.832 33.592C35.2987 33.4427 34.7867 33.368 34.296 33.368C33.72 33.368 33.2507 33.4373 32.888 33.576C32.536 33.7147 32.2747 33.896 32.104 34.12C31.944 34.344 31.864 34.6 31.864 34.888C31.864 35.2293 31.9813 35.5067 32.216 35.72C32.4613 35.9227 32.776 36.0827 33.16 36.2C33.5547 36.3173 33.992 36.4347 34.472 36.552C34.952 36.6587 35.4267 36.7813 35.896 36.92C36.376 37.0587 36.808 37.24 37.192 37.464C37.5867 37.688 37.9013 37.992 38.136 38.376C38.3813 38.76 38.504 39.2453 38.504 39.832C38.504 40.4293 38.3387 40.984 38.008 41.496C37.688 41.9973 37.192 42.4027 36.52 42.712C35.848 43.0107 35 43.16 33.976 43.16ZM45.6385 43V41.272L45.5265 40.904V37.88C45.5265 37.2933 45.3505 36.84 44.9985 36.52C44.6465 36.1893 44.1132 36.024 43.3985 36.024C42.9185 36.024 42.4438 36.0987 41.9745 36.248C41.5158 36.3973 41.1265 36.6053 40.8065 36.872L40.0225 35.416C40.4812 35.064 41.0252 34.8027 41.6545 34.632C42.2945 34.4507 42.9558 34.36 43.6385 34.36C44.8758 34.36 45.8305 34.6587 46.5025 35.256C47.1852 35.8427 47.5265 36.7547 47.5265 37.992V43H45.6385ZM42.9505 43.112C42.3105 43.112 41.7505 43.0053 41.2705 42.792C40.7905 42.568 40.4172 42.264 40.1505 41.88C39.8945 41.4853 39.7665 41.0427 39.7665 40.552C39.7665 40.072 39.8785 39.64 40.1025 39.256C40.3372 38.872 40.7158 38.568 41.2385 38.344C41.7612 38.12 42.4545 38.008 43.3185 38.008H45.7985V39.336H43.4625C42.7798 39.336 42.3212 39.448 42.0865 39.672C41.8518 39.8853 41.7345 40.152 41.7345 40.472C41.7345 40.8347 41.8785 41.1227 42.1665 41.336C42.4545 41.5493 42.8545 41.656 43.3665 41.656C43.8572 41.656 44.2945 41.544 44.6785 41.32C45.0732 41.096 45.3558 40.7653 45.5265 40.328L45.8625 41.528C45.6705 42.0293 45.3238 42.4187 44.8225 42.696C44.3318 42.9733 43.7078 43.112 42.9505 43.112ZM50.0933 43V31.128H52.0933V43H50.0933ZM58.7343 43.112C57.7849 43.112 56.9529 42.9253 56.2383 42.552C55.5343 42.168 54.9849 41.6453 54.5903 40.984C54.2063 40.3227 54.0143 39.5707 54.0143 38.728C54.0143 37.8747 54.2009 37.1227 54.5743 36.472C54.9583 35.8107 55.4809 35.2933 56.1423 34.92C56.8143 34.5467 57.5769 34.36 58.4303 34.36C59.2623 34.36 60.0036 34.5413 60.6543 34.904C61.3049 35.2667 61.8169 35.7787 62.1903 36.44C62.5636 37.1013 62.7503 37.88 62.7503 38.776C62.7503 38.8613 62.7449 38.9573 62.7343 39.064C62.7343 39.1707 62.7289 39.272 62.7183 39.368H55.5983V38.04H61.6623L60.8783 38.456C60.8889 37.9653 60.7876 37.5333 60.5743 37.16C60.3609 36.7867 60.0676 36.4933 59.6943 36.28C59.3316 36.0667 58.9103 35.96 58.4303 35.96C57.9396 35.96 57.5076 36.0667 57.1343 36.28C56.7716 36.4933 56.4836 36.792 56.2703 37.176C56.0676 37.5493 55.9663 37.992 55.9663 38.504V38.824C55.9663 39.336 56.0836 39.7893 56.3183 40.184C56.5529 40.5787 56.8836 40.8827 57.3103 41.096C57.7369 41.3093 58.2276 41.416 58.7823 41.416C59.2623 41.416 59.6943 41.3413 60.0783 41.192C60.4623 41.0427 60.8036 40.808 61.1023 40.488L62.1743 41.72C61.7903 42.168 61.3049 42.5147 60.7183 42.76C60.1423 42.9947 59.4809 43.112 58.7343 43.112ZM67.3114 43.112C66.5967 43.112 65.9087 43.0213 65.2474 42.84C64.5967 42.648 64.0794 42.4187 63.6954 42.152L64.4634 40.632C64.8474 40.8773 65.306 41.08 65.8394 41.24C66.3727 41.4 66.906 41.48 67.4394 41.48C68.0687 41.48 68.522 41.3947 68.7994 41.224C69.0874 41.0533 69.2314 40.824 69.2314 40.536C69.2314 40.3013 69.1354 40.1253 68.9434 40.008C68.7514 39.88 68.5007 39.784 68.1914 39.72C67.882 39.656 67.5354 39.5973 67.1514 39.544C66.778 39.4907 66.3994 39.4213 66.0154 39.336C65.642 39.24 65.3007 39.1067 64.9914 38.936C64.682 38.7547 64.4314 38.5147 64.2394 38.216C64.0474 37.9173 63.9514 37.5227 63.9514 37.032C63.9514 36.488 64.106 36.0187 64.4154 35.624C64.7247 35.2187 65.1567 34.9093 65.7114 34.696C66.2767 34.472 66.9434 34.36 67.7114 34.36C68.2874 34.36 68.8687 34.424 69.4554 34.552C70.042 34.68 70.5274 34.8613 70.9114 35.096L70.1434 36.616C69.738 36.3707 69.3274 36.2053 68.9114 36.12C68.506 36.024 68.1007 35.976 67.6954 35.976C67.0874 35.976 66.634 36.0667 66.3354 36.248C66.0474 36.4293 65.9034 36.6587 65.9034 36.936C65.9034 37.192 65.9994 37.384 66.1914 37.512C66.3834 37.64 66.634 37.7413 66.9434 37.816C67.2527 37.8907 67.594 37.9547 67.9674 38.008C68.3514 38.0507 68.73 38.12 69.1034 38.216C69.4767 38.312 69.818 38.4453 70.1274 38.616C70.4474 38.776 70.7034 39.0053 70.8954 39.304C71.0874 39.6027 71.1834 39.992 71.1834 40.472C71.1834 41.0053 71.0234 41.4693 70.7034 41.864C70.394 42.2587 69.9514 42.568 69.3754 42.792C68.7994 43.0053 68.1114 43.112 67.3114 43.112ZM82.7676 43.16C81.893 43.16 81.0876 43.016 80.3516 42.728C79.6156 42.44 78.9756 42.04 78.4316 41.528C77.8876 41.0053 77.4663 40.3973 77.1676 39.704C76.869 39 76.7196 38.232 76.7196 37.4C76.7196 36.568 76.869 35.8053 77.1676 35.112C77.4663 34.408 77.8876 33.8 78.4316 33.288C78.9756 32.7653 79.6156 32.36 80.3516 32.072C81.0876 31.784 81.8876 31.64 82.7516 31.64C83.6263 31.64 84.4263 31.784 85.1516 32.072C85.8876 32.36 86.5276 32.7653 87.0716 33.288C87.6156 33.8 88.037 34.408 88.3356 35.112C88.6343 35.8053 88.7836 36.568 88.7836 37.4C88.7836 38.232 88.6343 39 88.3356 39.704C88.037 40.408 87.6156 41.016 87.0716 41.528C86.5276 42.04 85.8876 42.44 85.1516 42.728C84.4263 43.016 83.6316 43.16 82.7676 43.16ZM82.7516 41.336C83.317 41.336 83.8396 41.24 84.3196 41.048C84.7996 40.856 85.2156 40.584 85.5676 40.232C85.9196 39.8693 86.1916 39.4533 86.3836 38.984C86.5863 38.504 86.6876 37.976 86.6876 37.4C86.6876 36.824 86.5863 36.3013 86.3836 35.832C86.1916 35.352 85.9196 34.936 85.5676 34.584C85.2156 34.2213 84.7996 33.944 84.3196 33.752C83.8396 33.56 83.317 33.464 82.7516 33.464C82.1863 33.464 81.6636 33.56 81.1836 33.752C80.7143 33.944 80.2983 34.2213 79.9356 34.584C79.5836 34.936 79.3063 35.352 79.1036 35.832C78.9116 36.3013 78.8156 36.824 78.8156 37.4C78.8156 37.9653 78.9116 38.488 79.1036 38.968C79.3063 39.448 79.5836 39.8693 79.9356 40.232C80.2876 40.584 80.7036 40.856 81.1836 41.048C81.6636 41.24 82.1863 41.336 82.7516 41.336ZM90.7964 43V34.456H92.7004V36.808L92.4764 36.12C92.7324 35.544 93.1324 35.1067 93.6764 34.808C94.231 34.5093 94.919 34.36 95.7404 34.36V36.264C95.655 36.2427 95.575 36.232 95.5004 36.232C95.4257 36.2213 95.351 36.216 95.2764 36.216C94.519 36.216 93.9164 36.44 93.4684 36.888C93.0204 37.3253 92.7964 37.9813 92.7964 38.856V43H90.7964ZM100.975 43.112C100.154 43.112 99.4122 42.9307 98.7509 42.568C98.1002 42.1947 97.5882 41.6827 97.2149 41.032C96.8415 40.3813 96.6549 39.6133 96.6549 38.728C96.6549 37.8427 96.8415 37.0747 97.2149 36.424C97.5882 35.7733 98.1002 35.2667 98.7509 34.904C99.4122 34.5413 100.154 34.36 100.975 34.36C101.69 34.36 102.33 34.52 102.895 34.84C103.46 35.1493 103.908 35.624 104.239 36.264C104.57 36.904 104.735 37.7253 104.735 38.728C104.735 39.72 104.575 40.5413 104.255 41.192C103.935 41.832 103.492 42.312 102.927 42.632C102.362 42.952 101.711 43.112 100.975 43.112ZM101.215 41.4C101.695 41.4 102.122 41.2933 102.495 41.08C102.879 40.8667 103.183 40.5573 103.407 40.152C103.642 39.7467 103.759 39.272 103.759 38.728C103.759 38.1733 103.642 37.6987 103.407 37.304C103.183 36.8987 102.879 36.5893 102.495 36.376C102.122 36.1627 101.695 36.056 101.215 36.056C100.735 36.056 100.303 36.1627 99.9189 36.376C99.5455 36.5893 99.2415 36.8987 99.0069 37.304C98.7829 37.6987 98.6709 38.1733 98.6709 38.728C98.6709 39.272 98.7829 39.7467 99.0069 40.152C99.2415 40.5573 99.5455 40.8667 99.9189 41.08C100.303 41.2933 100.735 41.4 101.215 41.4ZM103.807 43V40.984L103.887 38.712L103.727 36.44V31.128H105.711V43H103.807ZM112.359 43.112C111.41 43.112 110.578 42.9253 109.863 42.552C109.159 42.168 108.61 41.6453 108.215 40.984C107.831 40.3227 107.639 39.5707 107.639 38.728C107.639 37.8747 107.826 37.1227 108.199 36.472C108.583 35.8107 109.106 35.2933 109.767 34.92C110.439 34.5467 111.202 34.36 112.055 34.36C112.887 34.36 113.629 34.5413 114.279 34.904C114.93 35.2667 115.442 35.7787 115.815 36.44C116.189 37.1013 116.375 37.88 116.375 38.776C116.375 38.8613 116.37 38.9573 116.359 39.064C116.359 39.1707 116.354 39.272 116.343 39.368H109.223V38.04H115.287L114.503 38.456C114.514 37.9653 114.413 37.5333 114.199 37.16C113.986 36.7867 113.693 36.4933 113.319 36.28C112.957 36.0667 112.535 35.96 112.055 35.96C111.565 35.96 111.133 36.0667 110.759 36.28C110.397 36.4933 110.109 36.792 109.895 37.176C109.693 37.5493 109.591 37.992 109.591 38.504V38.824C109.591 39.336 109.709 39.7893 109.943 40.184C110.178 40.5787 110.509 40.8827 110.935 41.096C111.362 41.3093 111.853 41.416 112.407 41.416C112.887 41.416 113.319 41.3413 113.703 41.192C114.087 41.0427 114.429 40.808 114.727 40.488L115.799 41.72C115.415 42.168 114.93 42.5147 114.343 42.76C113.767 42.9947 113.106 43.112 112.359 43.112ZM118.296 43V34.456H120.2V36.808L119.976 36.12C120.232 35.544 120.632 35.1067 121.176 34.808C121.731 34.5093 122.419 34.36 123.24 34.36V36.264C123.155 36.2427 123.075 36.232 123 36.232C122.926 36.2213 122.851 36.216 122.776 36.216C122.019 36.216 121.416 36.44 120.968 36.888C120.52 37.3253 120.296 37.9813 120.296 38.856V43H118.296Z" fill="black"/>
<g clip-path="url(#clip0_9_22231)">
<rect width="127" height="24" transform="translate(633.726 25)" fill="white" fill-opacity="0.01"/>
<path d="M635.054 43V31.8H637.646V40.888H643.262V43H635.054ZM649.877 43V41.32L649.717 40.952V37.944C649.717 37.4107 649.551 36.9947 649.221 36.696C648.901 36.3973 648.405 36.248 647.733 36.248C647.274 36.248 646.821 36.3227 646.373 36.472C645.935 36.6107 645.562 36.8027 645.253 37.048L644.357 35.304C644.826 34.9733 645.391 34.7173 646.053 34.536C646.714 34.3547 647.386 34.264 648.069 34.264C649.381 34.264 650.399 34.5733 651.125 35.192C651.85 35.8107 652.213 36.776 652.213 38.088V43H649.877ZM647.253 43.128C646.581 43.128 646.005 43.016 645.525 42.792C645.045 42.5573 644.677 42.2427 644.421 41.848C644.165 41.4533 644.037 41.0107 644.037 40.52C644.037 40.008 644.159 39.56 644.405 39.176C644.661 38.792 645.061 38.4933 645.605 38.28C646.149 38.056 646.858 37.944 647.733 37.944H650.021V39.4H648.005C647.418 39.4 647.013 39.496 646.789 39.688C646.575 39.88 646.469 40.12 646.469 40.408C646.469 40.728 646.591 40.984 646.837 41.176C647.093 41.3573 647.439 41.448 647.877 41.448C648.293 41.448 648.666 41.352 648.997 41.16C649.327 40.9573 649.567 40.664 649.717 40.28L650.101 41.432C649.919 41.9867 649.589 42.408 649.109 42.696C648.629 42.984 648.01 43.128 647.253 43.128ZM657.368 43.128C656.632 43.128 655.922 43.0427 655.24 42.872C654.568 42.6907 654.034 42.4667 653.64 42.2L654.472 40.408C654.866 40.6533 655.33 40.856 655.864 41.016C656.408 41.1653 656.941 41.24 657.464 41.24C658.04 41.24 658.445 41.1707 658.68 41.032C658.925 40.8933 659.048 40.7013 659.048 40.456C659.048 40.2533 658.952 40.104 658.76 40.008C658.578 39.9013 658.333 39.8213 658.024 39.768C657.714 39.7147 657.373 39.6613 657 39.608C656.637 39.5547 656.269 39.4853 655.896 39.4C655.522 39.304 655.181 39.1653 654.872 38.984C654.562 38.8027 654.312 38.5573 654.12 38.248C653.938 37.9387 653.848 37.5387 653.848 37.048C653.848 36.504 654.002 36.024 654.312 35.608C654.632 35.192 655.09 34.8667 655.688 34.632C656.285 34.3867 657 34.264 657.832 34.264C658.418 34.264 659.016 34.328 659.624 34.456C660.232 34.584 660.738 34.7707 661.144 35.016L660.312 36.792C659.896 36.5467 659.474 36.3813 659.048 36.296C658.632 36.2 658.226 36.152 657.832 36.152C657.277 36.152 656.872 36.2267 656.616 36.376C656.36 36.5253 656.232 36.7173 656.232 36.952C656.232 37.1653 656.322 37.3253 656.504 37.432C656.696 37.5387 656.946 37.624 657.256 37.688C657.565 37.752 657.901 37.8107 658.264 37.864C658.637 37.9067 659.01 37.976 659.384 38.072C659.757 38.168 660.093 38.3067 660.392 38.488C660.701 38.6587 660.952 38.8987 661.144 39.208C661.336 39.5067 661.432 39.9013 661.432 40.392C661.432 40.9253 661.272 41.4 660.952 41.816C660.632 42.2213 660.168 42.5413 659.56 42.776C658.962 43.0107 658.232 43.128 657.368 43.128ZM666.492 43.128C665.478 43.128 664.689 42.872 664.124 42.36C663.558 41.8373 663.276 41.064 663.276 40.04V32.488H665.772V40.008C665.772 40.3707 665.868 40.6533 666.06 40.856C666.252 41.048 666.513 41.144 666.844 41.144C667.238 41.144 667.574 41.0373 667.852 40.824L668.524 42.584C668.268 42.7653 667.958 42.904 667.596 43C667.244 43.0853 666.876 43.128 666.492 43.128ZM661.948 36.504V34.584H667.916V36.504H661.948ZM675.72 43L680.232 32.792L680.904 33.912H674.872L676.024 32.696V35.736H673.72V31.8H682.696V33.48L678.536 43H675.72ZM689.085 43V31.8H694.173C695.389 31.8 696.461 32.0347 697.389 32.504C698.317 32.9627 699.043 33.608 699.565 34.44C700.088 35.272 700.349 36.2587 700.349 37.4C700.349 38.5307 700.088 39.5173 699.565 40.36C699.043 41.192 698.317 41.8427 697.389 42.312C696.461 42.7707 695.389 43 694.173 43H689.085ZM691.677 40.872H694.045C694.792 40.872 695.437 40.7333 695.981 40.456C696.536 40.168 696.963 39.7627 697.261 39.24C697.571 38.7173 697.725 38.104 697.725 37.4C697.725 36.6853 697.571 36.072 697.261 35.56C696.963 35.0373 696.536 34.6373 695.981 34.36C695.437 34.072 694.792 33.928 694.045 33.928H691.677V40.872ZM707.408 43V41.32L707.248 40.952V37.944C707.248 37.4107 707.083 36.9947 706.752 36.696C706.432 36.3973 705.936 36.248 705.264 36.248C704.805 36.248 704.352 36.3227 703.904 36.472C703.467 36.6107 703.093 36.8027 702.784 37.048L701.888 35.304C702.357 34.9733 702.923 34.7173 703.584 34.536C704.245 34.3547 704.917 34.264 705.6 34.264C706.912 34.264 707.931 34.5733 708.656 35.192C709.381 35.8107 709.744 36.776 709.744 38.088V43H707.408ZM704.784 43.128C704.112 43.128 703.536 43.016 703.056 42.792C702.576 42.5573 702.208 42.2427 701.952 41.848C701.696 41.4533 701.568 41.0107 701.568 40.52C701.568 40.008 701.691 39.56 701.936 39.176C702.192 38.792 702.592 38.4933 703.136 38.28C703.68 38.056 704.389 37.944 705.264 37.944H707.552V39.4H705.536C704.949 39.4 704.544 39.496 704.32 39.688C704.107 39.88 704 40.12 704 40.408C704 40.728 704.123 40.984 704.368 41.176C704.624 41.3573 704.971 41.448 705.408 41.448C705.824 41.448 706.197 41.352 706.528 41.16C706.859 40.9573 707.099 40.664 707.248 40.28L707.632 41.432C707.451 41.9867 707.12 42.408 706.64 42.696C706.16 42.984 705.541 43.128 704.784 43.128ZM712.935 46.232C712.487 46.232 712.044 46.1627 711.607 46.024C711.169 45.8853 710.812 45.6933 710.535 45.448L711.447 43.672C711.639 43.8427 711.857 43.976 712.103 44.072C712.359 44.168 712.609 44.216 712.855 44.216C713.207 44.216 713.484 44.1307 713.687 43.96C713.9 43.8 714.092 43.528 714.263 43.144L714.711 42.088L714.903 41.816L717.991 34.392H720.391L716.503 43.528C716.225 44.2213 715.905 44.7653 715.543 45.16C715.191 45.5547 714.796 45.832 714.359 45.992C713.932 46.152 713.457 46.232 712.935 46.232ZM714.407 43.336L710.567 34.392H713.143L716.119 41.592L714.407 43.336ZM724.18 43.128C723.444 43.128 722.735 43.0427 722.052 42.872C721.38 42.6907 720.847 42.4667 720.452 42.2L721.284 40.408C721.679 40.6533 722.143 40.856 722.676 41.016C723.22 41.1653 723.754 41.24 724.276 41.24C724.852 41.24 725.258 41.1707 725.492 41.032C725.738 40.8933 725.86 40.7013 725.86 40.456C725.86 40.2533 725.764 40.104 725.572 40.008C725.391 39.9013 725.146 39.8213 724.836 39.768C724.527 39.7147 724.186 39.6613 723.812 39.608C723.45 39.5547 723.082 39.4853 722.708 39.4C722.335 39.304 721.994 39.1653 721.684 38.984C721.375 38.8027 721.124 38.5573 720.932 38.248C720.751 37.9387 720.66 37.5387 720.66 37.048C720.66 36.504 720.815 36.024 721.124 35.608C721.444 35.192 721.903 34.8667 722.5 34.632C723.098 34.3867 723.812 34.264 724.644 34.264C725.231 34.264 725.828 34.328 726.436 34.456C727.044 34.584 727.551 34.7707 727.956 35.016L727.124 36.792C726.708 36.5467 726.287 36.3813 725.86 36.296C725.444 36.2 725.039 36.152 724.644 36.152C724.09 36.152 723.684 36.2267 723.428 36.376C723.172 36.5253 723.044 36.7173 723.044 36.952C723.044 37.1653 723.135 37.3253 723.316 37.432C723.508 37.5387 723.759 37.624 724.068 37.688C724.378 37.752 724.714 37.8107 725.076 37.864C725.45 37.9067 725.823 37.976 726.196 38.072C726.57 38.168 726.906 38.3067 727.204 38.488C727.514 38.6587 727.764 38.8987 727.956 39.208C728.148 39.5067 728.244 39.9013 728.244 40.392C728.244 40.9253 728.084 41.4 727.764 41.816C727.444 42.2213 726.98 42.5413 726.372 42.776C725.775 43.0107 725.044 43.128 724.18 43.128Z" fill="#04B4FC"/>
<path fill-rule="evenodd" clip-rule="evenodd" d="M746.372 33.6459C746.418 33.5994 746.474 33.5624 746.534 33.5372C746.595 33.512 746.66 33.499 746.726 33.499C746.792 33.499 746.857 33.512 746.918 33.5372C746.978 33.5624 747.034 33.5994 747.08 33.6459L752.726 39.2929L758.372 33.6459C758.418 33.5994 758.474 33.5626 758.534 33.5374C758.595 33.5122 758.66 33.4993 758.726 33.4993C758.792 33.4993 758.857 33.5122 758.918 33.5374C758.978 33.5626 759.034 33.5994 759.08 33.6459C759.126 33.6924 759.163 33.7476 759.189 33.8083C759.214 33.8691 759.227 33.9342 759.227 33.9999C759.227 34.0657 759.214 34.1308 759.189 34.1915C759.163 34.2522 759.126 34.3074 759.08 34.3539L753.08 40.3539C753.034 40.4005 752.978 40.4374 752.918 40.4626C752.857 40.4878 752.792 40.5008 752.726 40.5008C752.66 40.5008 752.595 40.4878 752.534 40.4626C752.474 40.4374 752.418 40.4005 752.372 40.3539L746.372 34.3539C746.325 34.3075 746.288 34.2523 746.263 34.1916C746.238 34.1308 746.225 34.0657 746.225 33.9999C746.225 33.9341 746.238 33.869 746.263 33.8083C746.288 33.7475 746.325 33.6924 746.372 33.6459Z" fill="#04B4FC"/>
</g>
<path d="M35.016 101.144C34.368 101.144 33.764 101.04 33.204 100.832C32.652 100.616 32.172 100.312 31.764 99.92C31.356 99.528 31.036 99.068 30.804 98.54C30.58 98.012 30.468 97.432 30.468 96.8C30.468 96.168 30.58 95.588 30.804 95.06C31.036 94.532 31.356 94.072 31.764 93.68C32.18 93.288 32.664 92.988 33.216 92.78C33.768 92.564 34.372 92.456 35.028 92.456C35.756 92.456 36.412 92.584 36.996 92.84C37.588 93.088 38.084 93.456 38.484 93.944L37.236 95.096C36.948 94.768 36.628 94.524 36.276 94.364C35.924 94.196 35.54 94.112 35.124 94.112C34.732 94.112 34.372 94.176 34.044 94.304C33.716 94.432 33.432 94.616 33.192 94.856C32.952 95.096 32.764 95.38 32.628 95.708C32.5 96.036 32.436 96.4 32.436 96.8C32.436 97.2 32.5 97.564 32.628 97.892C32.764 98.22 32.952 98.504 33.192 98.744C33.432 98.984 33.716 99.168 34.044 99.296C34.372 99.424 34.732 99.488 35.124 99.488C35.54 99.488 35.924 99.408 36.276 99.248C36.628 99.08 36.948 98.828 37.236 98.492L38.484 99.644C38.084 100.132 37.588 100.504 36.996 100.76C36.412 101.016 35.752 101.144 35.016 101.144ZM43.5888 94.448C44.1008 94.448 44.5568 94.552 44.9568 94.76C45.3648 94.96 45.6848 95.272 45.9168 95.696C46.1488 96.112 46.2648 96.648 46.2648 97.304V101H44.3928V97.592C44.3928 97.072 44.2768 96.688 44.0448 96.44C43.8208 96.192 43.5008 96.068 43.0848 96.068C42.7888 96.068 42.5208 96.132 42.2808 96.26C42.0488 96.38 41.8648 96.568 41.7288 96.824C41.6008 97.08 41.5368 97.408 41.5368 97.808V101H39.6648V92.096H41.5368V96.332L41.1168 95.792C41.3488 95.36 41.6808 95.028 42.1128 94.796C42.5448 94.564 43.0368 94.448 43.5888 94.448ZM51.9217 101V99.74L51.8017 99.464V97.208C51.8017 96.808 51.6777 96.496 51.4297 96.272C51.1897 96.048 50.8177 95.936 50.3137 95.936C49.9697 95.936 49.6297 95.992 49.2937 96.104C48.9657 96.208 48.6857 96.352 48.4537 96.536L47.7817 95.228C48.1337 94.98 48.5577 94.788 49.0537 94.652C49.5497 94.516 50.0537 94.448 50.5657 94.448C51.5497 94.448 52.3137 94.68 52.8577 95.144C53.4017 95.608 53.6737 96.332 53.6737 97.316V101H51.9217ZM49.9537 101.096C49.4497 101.096 49.0177 101.012 48.6577 100.844C48.2977 100.668 48.0217 100.432 47.8297 100.136C47.6377 99.84 47.5417 99.508 47.5417 99.14C47.5417 98.756 47.6337 98.42 47.8177 98.132C48.0097 97.844 48.3097 97.62 48.7177 97.46C49.1257 97.292 49.6577 97.208 50.3137 97.208H52.0297V98.3H50.5177C50.0777 98.3 49.7737 98.372 49.6057 98.516C49.4457 98.66 49.3657 98.84 49.3657 99.056C49.3657 99.296 49.4577 99.488 49.6417 99.632C49.8337 99.768 50.0937 99.836 50.4217 99.836C50.7337 99.836 51.0137 99.764 51.2617 99.62C51.5097 99.468 51.6897 99.248 51.8017 98.96L52.0897 99.824C51.9537 100.24 51.7057 100.556 51.3457 100.772C50.9857 100.988 50.5217 101.096 49.9537 101.096ZM59.2919 94.448C59.8039 94.448 60.2599 94.552 60.6599 94.76C61.0679 94.96 61.3879 95.272 61.6199 95.696C61.8519 96.112 61.9679 96.648 61.9679 97.304V101H60.0959V97.592C60.0959 97.072 59.9799 96.688 59.7479 96.44C59.5239 96.192 59.2039 96.068 58.7879 96.068C58.4919 96.068 58.2239 96.132 57.9839 96.26C57.7519 96.38 57.5679 96.568 57.4319 96.824C57.3039 97.08 57.2399 97.408 57.2399 97.808V101H55.3679V94.544H57.1559V96.332L56.8199 95.792C57.0519 95.36 57.3839 95.028 57.8159 94.796C58.2479 94.564 58.7399 94.448 59.2919 94.448ZM67.5888 94.448C68.1008 94.448 68.5568 94.552 68.9568 94.76C69.3648 94.96 69.6848 95.272 69.9168 95.696C70.1488 96.112 70.2648 96.648 70.2648 97.304V101H68.3928V97.592C68.3928 97.072 68.2768 96.688 68.0448 96.44C67.8208 96.192 67.5008 96.068 67.0848 96.068C66.7888 96.068 66.5208 96.132 66.2808 96.26C66.0488 96.38 65.8648 96.568 65.7288 96.824C65.6008 97.08 65.5368 97.408 65.5368 97.808V101H63.6648V94.544H65.4528V96.332L65.1168 95.792C65.3488 95.36 65.6808 95.028 66.1128 94.796C66.5448 94.564 67.0368 94.448 67.5888 94.448ZM75.2125 101.096C74.4765 101.096 73.8285 100.952 73.2685 100.664C72.7165 100.376 72.2885 99.984 71.9845 99.488C71.6805 98.984 71.5285 98.412 71.5285 97.772C71.5285 97.124 71.6765 96.552 71.9725 96.056C72.2765 95.552 72.6885 95.16 73.2085 94.88C73.7285 94.592 74.3165 94.448 74.9725 94.448C75.6045 94.448 76.1725 94.584 76.6765 94.856C77.1885 95.12 77.5925 95.504 77.8885 96.008C78.1845 96.504 78.3325 97.1 78.3325 97.796C78.3325 97.868 78.3285 97.952 78.3205 98.048C78.3125 98.136 78.3045 98.22 78.2965 98.3H73.0525V97.208H77.3125L76.5925 97.532C76.5925 97.196 76.5245 96.904 76.3885 96.656C76.2525 96.408 76.0645 96.216 75.8245 96.08C75.5845 95.936 75.3045 95.864 74.9845 95.864C74.6645 95.864 74.3805 95.936 74.1325 96.08C73.8925 96.216 73.7045 96.412 73.5685 96.668C73.4325 96.916 73.3645 97.212 73.3645 97.556V97.844C73.3645 98.196 73.4405 98.508 73.5925 98.78C73.7525 99.044 73.9725 99.248 74.2525 99.392C74.5405 99.528 74.8765 99.596 75.2605 99.596C75.6045 99.596 75.9045 99.544 76.1605 99.44C76.4245 99.336 76.6645 99.18 76.8805 98.972L77.8765 100.052C77.5805 100.388 77.2085 100.648 76.7605 100.832C76.3125 101.008 75.7965 101.096 75.2125 101.096ZM79.5788 101V92.096H81.4508V101H79.5788Z" fill="#5C6F88"/>
<path d="M31.26 159V150.6H34.8C35.696 150.6 36.484 150.776 37.164 151.128C37.852 151.48 38.384 151.972 38.76 152.604C39.144 153.236 39.336 153.968 39.336 154.8C39.336 155.632 39.144 156.364 38.76 156.996C38.384 157.628 37.852 158.12 37.164 158.472C36.484 158.824 35.696 159 34.8 159H31.26ZM32.46 157.956H34.728C35.424 157.956 36.024 157.824 36.528 157.56C37.04 157.296 37.436 156.928 37.716 156.456C37.996 155.976 38.136 155.424 38.136 154.8C38.136 154.168 37.996 153.616 37.716 153.144C37.436 152.672 37.04 152.304 36.528 152.04C36.024 151.776 35.424 151.644 34.728 151.644H32.46V157.956ZM41.0061 159V152.64H42.1581V159H41.0061ZM41.5821 151.416C41.3581 151.416 41.1701 151.344 41.0181 151.2C40.8741 151.056 40.8021 150.88 40.8021 150.672C40.8021 150.456 40.8741 150.276 41.0181 150.132C41.1701 149.988 41.3581 149.916 41.5821 149.916C41.8061 149.916 41.9901 149.988 42.1341 150.132C42.2861 150.268 42.3621 150.44 42.3621 150.648C42.3621 150.864 42.2901 151.048 42.1461 151.2C42.0021 151.344 41.8141 151.416 41.5821 151.416ZM44.3576 159V152.64H45.4616V154.368L45.3536 153.936C45.5296 153.496 45.8256 153.16 46.2416 152.928C46.6576 152.696 47.1696 152.58 47.7776 152.58V153.696C47.7296 153.688 47.6816 153.684 47.6336 153.684C47.5936 153.684 47.5536 153.684 47.5136 153.684C46.8976 153.684 46.4096 153.868 46.0496 154.236C45.6896 154.604 45.5096 155.136 45.5096 155.832V159H44.3576ZM51.9709 159.072C51.2909 159.072 50.6909 158.932 50.1709 158.652C49.6589 158.372 49.2589 157.988 48.9709 157.5C48.6909 157.012 48.5509 156.452 48.5509 155.82C48.5509 155.188 48.6869 154.628 48.9589 154.14C49.2389 153.652 49.6189 153.272 50.0989 153C50.5869 152.72 51.1349 152.58 51.7429 152.58C52.3589 152.58 52.9029 152.716 53.3749 152.988C53.8469 153.26 54.2149 153.644 54.4789 154.14C54.7509 154.628 54.8869 155.2 54.8869 155.856C54.8869 155.904 54.8829 155.96 54.8749 156.024C54.8749 156.088 54.8709 156.148 54.8629 156.204H49.4509V155.376H54.2629L53.7949 155.664C53.8029 155.256 53.7189 154.892 53.5429 154.572C53.3669 154.252 53.1229 154.004 52.8109 153.828C52.5069 153.644 52.1509 153.552 51.7429 153.552C51.3429 153.552 50.9869 153.644 50.6749 153.828C50.3629 154.004 50.1189 154.256 49.9429 154.584C49.7669 154.904 49.6789 155.272 49.6789 155.688V155.88C49.6789 156.304 49.7749 156.684 49.9669 157.02C50.1669 157.348 50.4429 157.604 50.7949 157.788C51.1469 157.972 51.5509 158.064 52.0069 158.064C52.3829 158.064 52.7229 158 53.0269 157.872C53.3389 157.744 53.6109 157.552 53.8429 157.296L54.4789 158.04C54.1909 158.376 53.8309 158.632 53.3989 158.808C52.9749 158.984 52.4989 159.072 51.9709 159.072ZM59.2585 159.072C58.6105 159.072 58.0305 158.932 57.5185 158.652C57.0145 158.372 56.6185 157.988 56.3305 157.5C56.0425 157.012 55.8985 156.452 55.8985 155.82C55.8985 155.188 56.0425 154.628 56.3305 154.14C56.6185 153.652 57.0145 153.272 57.5185 153C58.0305 152.72 58.6105 152.58 59.2585 152.58C59.8345 152.58 60.3465 152.696 60.7945 152.928C61.2505 153.152 61.6025 153.488 61.8505 153.936L60.9745 154.5C60.7665 154.188 60.5105 153.96 60.2065 153.816C59.9105 153.664 59.5905 153.588 59.2465 153.588C58.8305 153.588 58.4585 153.68 58.1305 153.864C57.8025 154.048 57.5425 154.308 57.3505 154.644C57.1585 154.972 57.0625 155.364 57.0625 155.82C57.0625 156.276 57.1585 156.672 57.3505 157.008C57.5425 157.344 57.8025 157.604 58.1305 157.788C58.4585 157.972 58.8305 158.064 59.2465 158.064C59.5905 158.064 59.9105 157.992 60.2065 157.848C60.5105 157.696 60.7665 157.464 60.9745 157.152L61.8505 157.704C61.6025 158.144 61.2505 158.484 60.7945 158.724C60.3465 158.956 59.8345 159.072 59.2585 159.072ZM65.608 159.072C64.968 159.072 64.472 158.9 64.12 158.556C63.768 158.212 63.592 157.72 63.592 157.08V151.248H64.744V157.032C64.744 157.376 64.828 157.64 64.996 157.824C65.172 158.008 65.42 158.1 65.74 158.1C66.1 158.1 66.4 158 66.64 157.8L67 158.628C66.824 158.78 66.612 158.892 66.364 158.964C66.124 159.036 65.872 159.072 65.608 159.072ZM62.512 153.588V152.64H66.568V153.588H62.512ZM74.2314 159.096C73.5914 159.096 72.9794 159 72.3954 158.808C71.8114 158.608 71.3514 158.352 71.0154 158.04L71.4594 157.104C71.7794 157.384 72.1874 157.616 72.6834 157.8C73.1794 157.984 73.6954 158.076 74.2314 158.076C74.7194 158.076 75.1154 158.02 75.4194 157.908C75.7234 157.796 75.9474 157.644 76.0914 157.452C76.2354 157.252 76.3074 157.028 76.3074 156.78C76.3074 156.492 76.2114 156.26 76.0194 156.084C75.8354 155.908 75.5914 155.768 75.2874 155.664C74.9914 155.552 74.6634 155.456 74.3034 155.376C73.9434 155.296 73.5794 155.204 73.2114 155.1C72.8514 154.988 72.5194 154.848 72.2154 154.68C71.9194 154.512 71.6794 154.288 71.4954 154.008C71.3114 153.72 71.2194 153.352 71.2194 152.904C71.2194 152.472 71.3314 152.076 71.5554 151.716C71.7874 151.348 72.1394 151.056 72.6114 150.84C73.0914 150.616 73.6994 150.504 74.4354 150.504C74.9234 150.504 75.4074 150.568 75.8874 150.696C76.3674 150.824 76.7834 151.008 77.1354 151.248L76.7394 152.208C76.3794 151.968 75.9994 151.796 75.5994 151.692C75.1994 151.58 74.8114 151.524 74.4354 151.524C73.9634 151.524 73.5754 151.584 73.2714 151.704C72.9674 151.824 72.7434 151.984 72.5994 152.184C72.4634 152.384 72.3954 152.608 72.3954 152.856C72.3954 153.152 72.4874 153.388 72.6714 153.564C72.8634 153.74 73.1074 153.88 73.4034 153.984C73.7074 154.088 74.0394 154.184 74.3994 154.272C74.7594 154.352 75.1194 154.444 75.4794 154.548C75.8474 154.652 76.1794 154.788 76.4754 154.956C76.7794 155.124 77.0234 155.348 77.2074 155.628C77.3914 155.908 77.4834 156.268 77.4834 156.708C77.4834 157.132 77.3674 157.528 77.1354 157.896C76.9034 158.256 76.5434 158.548 76.0554 158.772C75.5754 158.988 74.9674 159.096 74.2314 159.096ZM83.0166 159V157.656L82.9566 157.404V155.112C82.9566 154.624 82.8126 154.248 82.5246 153.984C82.2446 153.712 81.8206 153.576 81.2526 153.576C80.8766 153.576 80.5086 153.64 80.1486 153.768C79.7886 153.888 79.4846 154.052 79.2366 154.26L78.7566 153.396C79.0846 153.132 79.4766 152.932 79.9326 152.796C80.3966 152.652 80.8806 152.58 81.3846 152.58C82.2566 152.58 82.9286 152.792 83.4006 153.216C83.8726 153.64 84.1086 154.288 84.1086 155.16V159H83.0166ZM80.9286 159.072C80.4566 159.072 80.0406 158.992 79.6806 158.832C79.3286 158.672 79.0566 158.452 78.8646 158.172C78.6726 157.884 78.5766 157.56 78.5766 157.2C78.5766 156.856 78.6566 156.544 78.8166 156.264C78.9846 155.984 79.2526 155.76 79.6206 155.592C79.9966 155.424 80.5006 155.34 81.1326 155.34H83.1486V156.168H81.1806C80.6046 156.168 80.2166 156.264 80.0166 156.456C79.8166 156.648 79.7166 156.88 79.7166 157.152C79.7166 157.464 79.8406 157.716 80.0886 157.908C80.3366 158.092 80.6806 158.184 81.1206 158.184C81.5526 158.184 81.9286 158.088 82.2486 157.896C82.5766 157.704 82.8126 157.424 82.9566 157.056L83.1846 157.848C83.0326 158.224 82.7646 158.524 82.3806 158.748C81.9966 158.964 81.5126 159.072 80.9286 159.072ZM86.2404 159V150.096H87.3924V159H86.2404ZM92.424 159.072C91.744 159.072 91.144 158.932 90.624 158.652C90.112 158.372 89.712 157.988 89.424 157.5C89.144 157.012 89.004 156.452 89.004 155.82C89.004 155.188 89.14 154.628 89.412 154.14C89.692 153.652 90.072 153.272 90.552 153C91.04 152.72 91.588 152.58 92.196 152.58C92.812 152.58 93.356 152.716 93.828 152.988C94.3 153.26 94.668 153.644 94.932 154.14C95.204 154.628 95.34 155.2 95.34 155.856C95.34 155.904 95.336 155.96 95.328 156.024C95.328 156.088 95.324 156.148 95.316 156.204H89.904V155.376H94.716L94.248 155.664C94.256 155.256 94.172 154.892 93.996 154.572C93.82 154.252 93.576 154.004 93.264 153.828C92.96 153.644 92.604 153.552 92.196 153.552C91.796 153.552 91.44 153.644 91.128 153.828C90.816 154.004 90.572 154.256 90.396 154.584C90.22 154.904 90.132 155.272 90.132 155.688V155.88C90.132 156.304 90.228 156.684 90.42 157.02C90.62 157.348 90.896 157.604 91.248 157.788C91.6 157.972 92.004 158.064 92.46 158.064C92.836 158.064 93.176 158 93.48 157.872C93.792 157.744 94.064 157.552 94.296 157.296L94.932 158.04C94.644 158.376 94.284 158.632 93.852 158.808C93.428 158.984 92.952 159.072 92.424 159.072ZM98.7637 159.072C98.2357 159.072 97.7317 159 97.2517 158.856C96.7797 158.712 96.4077 158.536 96.1357 158.328L96.6157 157.416C96.8877 157.6 97.2237 157.756 97.6237 157.884C98.0237 158.012 98.4317 158.076 98.8477 158.076C99.3837 158.076 99.7677 158 99.9997 157.848C100.24 157.696 100.36 157.484 100.36 157.212C100.36 157.012 100.288 156.856 100.144 156.744C99.9997 156.632 99.8077 156.548 99.5677 156.492C99.3357 156.436 99.0757 156.388 98.7877 156.348C98.4997 156.3 98.2117 156.244 97.9237 156.18C97.6357 156.108 97.3717 156.012 97.1317 155.892C96.8917 155.764 96.6997 155.592 96.5557 155.376C96.4117 155.152 96.3397 154.856 96.3397 154.488C96.3397 154.104 96.4477 153.768 96.6637 153.48C96.8797 153.192 97.1837 152.972 97.5757 152.82C97.9757 152.66 98.4477 152.58 98.9917 152.58C99.4077 152.58 99.8277 152.632 100.252 152.736C100.684 152.832 101.036 152.972 101.308 153.156L100.816 154.068C100.528 153.876 100.228 153.744 99.9157 153.672C99.6037 153.6 99.2917 153.564 98.9797 153.564C98.4757 153.564 98.0997 153.648 97.8517 153.816C97.6037 153.976 97.4797 154.184 97.4797 154.44C97.4797 154.656 97.5517 154.824 97.6957 154.944C97.8477 155.056 98.0397 155.144 98.2717 155.208C98.5117 155.272 98.7757 155.328 99.0637 155.376C99.3517 155.416 99.6397 155.472 99.9277 155.544C100.216 155.608 100.476 155.7 100.708 155.82C100.948 155.94 101.14 156.108 101.284 156.324C101.436 156.54 101.512 156.828 101.512 157.188C101.512 157.572 101.4 157.904 101.176 158.184C100.952 158.464 100.636 158.684 100.228 158.844C99.8197 158.996 99.3317 159.072 98.7637 159.072Z" fill="#212529"/>
<path d="M33.192 217L30.384 208.6H31.62L34.2 216.352H33.576L36.252 208.6H37.356L39.972 216.352H39.372L41.988 208.6H43.128L40.32 217H39.06L36.612 209.812H36.936L34.476 217H33.192ZM47.9997 210.58C48.5197 210.58 48.9757 210.68 49.3677 210.88C49.7677 211.08 50.0797 211.384 50.3037 211.792C50.5277 212.2 50.6397 212.716 50.6397 213.34V217H49.4877V213.472C49.4877 212.856 49.3357 212.392 49.0317 212.08C48.7357 211.768 48.3157 211.612 47.7717 211.612C47.3637 211.612 47.0077 211.692 46.7037 211.852C46.3997 212.012 46.1637 212.248 45.9957 212.56C45.8357 212.872 45.7557 213.26 45.7557 213.724V217H44.6037V208.096H45.7557V212.356L45.5277 211.9C45.7357 211.484 46.0557 211.16 46.4877 210.928C46.9197 210.696 47.4237 210.58 47.9997 210.58ZM55.4957 217.072C54.8557 217.072 54.2877 216.932 53.7917 216.652C53.2957 216.372 52.9037 215.988 52.6157 215.5C52.3277 215.004 52.1837 214.444 52.1837 213.82C52.1837 213.188 52.3277 212.628 52.6157 212.14C52.9037 211.652 53.2957 211.272 53.7917 211C54.2877 210.72 54.8557 210.58 55.4957 210.58C56.1277 210.58 56.6917 210.72 57.1877 211C57.6917 211.272 58.0837 211.652 58.3637 212.14C58.6517 212.62 58.7957 213.18 58.7957 213.82C58.7957 214.452 58.6517 215.012 58.3637 215.5C58.0837 215.988 57.6917 216.372 57.1877 216.652C56.6917 216.932 56.1277 217.072 55.4957 217.072ZM55.4957 216.064C55.9037 216.064 56.2677 215.972 56.5877 215.788C56.9157 215.604 57.1717 215.344 57.3557 215.008C57.5397 214.664 57.6317 214.268 57.6317 213.82C57.6317 213.364 57.5397 212.972 57.3557 212.644C57.1717 212.308 56.9157 212.048 56.5877 211.864C56.2677 211.68 55.9037 211.588 55.4957 211.588C55.0877 211.588 54.7237 211.68 54.4037 211.864C54.0837 212.048 53.8277 212.308 53.6357 212.644C53.4437 212.972 53.3477 213.364 53.3477 213.82C53.3477 214.268 53.4437 214.664 53.6357 215.008C53.8277 215.344 54.0837 215.604 54.4037 215.788C54.7237 215.972 55.0877 216.064 55.4957 216.064ZM60.3889 217V208.096H61.5409V217H60.3889ZM66.5724 217.072C65.8924 217.072 65.2924 216.932 64.7724 216.652C64.2604 216.372 63.8604 215.988 63.5724 215.5C63.2924 215.012 63.1524 214.452 63.1524 213.82C63.1524 213.188 63.2884 212.628 63.5604 212.14C63.8404 211.652 64.2204 211.272 64.7004 211C65.1884 210.72 65.7364 210.58 66.3444 210.58C66.9604 210.58 67.5044 210.716 67.9764 210.988C68.4484 211.26 68.8164 211.644 69.0804 212.14C69.3524 212.628 69.4884 213.2 69.4884 213.856C69.4884 213.904 69.4844 213.96 69.4764 214.024C69.4764 214.088 69.4724 214.148 69.4644 214.204H64.0524V213.376H68.8644L68.3964 213.664C68.4044 213.256 68.3204 212.892 68.1444 212.572C67.9684 212.252 67.7244 212.004 67.4124 211.828C67.1084 211.644 66.7524 211.552 66.3444 211.552C65.9444 211.552 65.5884 211.644 65.2764 211.828C64.9644 212.004 64.7204 212.256 64.5444 212.584C64.3684 212.904 64.2804 213.272 64.2804 213.688V213.88C64.2804 214.304 64.3764 214.684 64.5684 215.02C64.7684 215.348 65.0444 215.604 65.3964 215.788C65.7484 215.972 66.1524 216.064 66.6084 216.064C66.9844 216.064 67.3244 216 67.6284 215.872C67.9404 215.744 68.2124 215.552 68.4444 215.296L69.0804 216.04C68.7924 216.376 68.4324 216.632 68.0004 216.808C67.5764 216.984 67.1004 217.072 66.5724 217.072ZM72.9121 217.072C72.3841 217.072 71.8801 217 71.4001 216.856C70.9281 216.712 70.5561 216.536 70.2841 216.328L70.7641 215.416C71.0361 215.6 71.3721 215.756 71.7721 215.884C72.1721 216.012 72.5801 216.076 72.9961 216.076C73.5321 216.076 73.9161 216 74.1481 215.848C74.3881 215.696 74.5081 215.484 74.5081 215.212C74.5081 215.012 74.4361 214.856 74.2921 214.744C74.1481 214.632 73.9561 214.548 73.7161 214.492C73.4841 214.436 73.2241 214.388 72.9361 214.348C72.6481 214.3 72.3601 214.244 72.0721 214.18C71.7841 214.108 71.5201 214.012 71.2801 213.892C71.0401 213.764 70.8481 213.592 70.7041 213.376C70.5601 213.152 70.4881 212.856 70.4881 212.488C70.4881 212.104 70.5961 211.768 70.8121 211.48C71.0281 211.192 71.3321 210.972 71.7241 210.82C72.1241 210.66 72.5961 210.58 73.1401 210.58C73.5561 210.58 73.9761 210.632 74.4001 210.736C74.8321 210.832 75.1841 210.972 75.4561 211.156L74.9641 212.068C74.6761 211.876 74.3761 211.744 74.0641 211.672C73.7521 211.6 73.4401 211.564 73.1281 211.564C72.6241 211.564 72.2481 211.648 72.0001 211.816C71.7521 211.976 71.6281 212.184 71.6281 212.44C71.6281 212.656 71.7001 212.824 71.8441 212.944C71.9961 213.056 72.1881 213.144 72.4201 213.208C72.6601 213.272 72.9241 213.328 73.2121 213.376C73.5001 213.416 73.7881 213.472 74.0761 213.544C74.3641 213.608 74.6241 213.7 74.8561 213.82C75.0961 213.94 75.2881 214.108 75.4321 214.324C75.5841 214.54 75.6601 214.828 75.6601 215.188C75.6601 215.572 75.5481 215.904 75.3241 216.184C75.1001 216.464 74.7841 216.684 74.3761 216.844C73.9681 216.996 73.4801 217.072 72.9121 217.072ZM81.0478 217V215.656L80.9878 215.404V213.112C80.9878 212.624 80.8438 212.248 80.5558 211.984C80.2758 211.712 79.8518 211.576 79.2838 211.576C78.9078 211.576 78.5398 211.64 78.1798 211.768C77.8198 211.888 77.5158 212.052 77.2678 212.26L76.7878 211.396C77.1158 211.132 77.5078 210.932 77.9638 210.796C78.4278 210.652 78.9118 210.58 79.4158 210.58C80.2878 210.58 80.9598 210.792 81.4318 211.216C81.9038 211.64 82.1398 212.288 82.1398 213.16V217H81.0478ZM78.9598 217.072C78.4878 217.072 78.0718 216.992 77.7118 216.832C77.3598 216.672 77.0878 216.452 76.8958 216.172C76.7038 215.884 76.6078 215.56 76.6078 215.2C76.6078 214.856 76.6878 214.544 76.8478 214.264C77.0158 213.984 77.2838 213.76 77.6518 213.592C78.0278 213.424 78.5318 213.34 79.1638 213.34H81.1798V214.168H79.2118C78.6358 214.168 78.2478 214.264 78.0478 214.456C77.8478 214.648 77.7478 214.88 77.7478 215.152C77.7478 215.464 77.8718 215.716 78.1198 215.908C78.3678 216.092 78.7118 216.184 79.1518 216.184C79.5838 216.184 79.9598 216.088 80.2798 215.896C80.6078 215.704 80.8438 215.424 80.9878 215.056L81.2158 215.848C81.0638 216.224 80.7958 216.524 80.4118 216.748C80.0278 216.964 79.5438 217.072 78.9598 217.072ZM84.2717 217V208.096H85.4237V217H84.2717ZM90.4553 217.072C89.7753 217.072 89.1753 216.932 88.6553 216.652C88.1433 216.372 87.7433 215.988 87.4553 215.5C87.1753 215.012 87.0353 214.452 87.0353 213.82C87.0353 213.188 87.1713 212.628 87.4433 212.14C87.7233 211.652 88.1033 211.272 88.5833 211C89.0713 210.72 89.6193 210.58 90.2273 210.58C90.8433 210.58 91.3873 210.716 91.8593 210.988C92.3313 211.26 92.6993 211.644 92.9633 212.14C93.2353 212.628 93.3713 213.2 93.3713 213.856C93.3713 213.904 93.3673 213.96 93.3593 214.024C93.3593 214.088 93.3553 214.148 93.3473 214.204H87.9353V213.376H92.7473L92.2793 213.664C92.2873 213.256 92.2033 212.892 92.0273 212.572C91.8513 212.252 91.6073 212.004 91.2953 211.828C90.9913 211.644 90.6353 211.552 90.2273 211.552C89.8273 211.552 89.4713 211.644 89.1593 211.828C88.8473 212.004 88.6033 212.256 88.4273 212.584C88.2513 212.904 88.1633 213.272 88.1633 213.688V213.88C88.1633 214.304 88.2593 214.684 88.4513 215.02C88.6513 215.348 88.9273 215.604 89.2793 215.788C89.6313 215.972 90.0353 216.064 90.4913 216.064C90.8673 216.064 91.2073 216 91.5113 215.872C91.8233 215.744 92.0953 215.552 92.3273 215.296L92.9633 216.04C92.6753 216.376 92.3153 216.632 91.8833 216.808C91.4593 216.984 90.9833 217.072 90.4553 217.072Z" fill="#212529"/>
<path d="M31.26 275V266.6H34.536C35.272 266.6 35.9 266.716 36.42 266.948C36.94 267.18 37.34 267.516 37.62 267.956C37.9 268.396 38.04 268.92 38.04 269.528C38.04 270.136 37.9 270.66 37.62 271.1C37.34 271.532 36.94 271.864 36.42 272.096C35.9 272.328 35.272 272.444 34.536 272.444H31.92L32.46 271.892V275H31.26ZM36.876 275L34.74 271.952H36.024L38.184 275H36.876ZM32.46 272.012L31.92 271.424H34.5C35.268 271.424 35.848 271.26 36.24 270.932C36.64 270.596 36.84 270.128 36.84 269.528C36.84 268.928 36.64 268.464 36.24 268.136C35.848 267.808 35.268 267.644 34.5 267.644H31.92L32.46 267.044V272.012ZM42.6428 275.072C41.9628 275.072 41.3628 274.932 40.8428 274.652C40.3308 274.372 39.9308 273.988 39.6428 273.5C39.3628 273.012 39.2228 272.452 39.2228 271.82C39.2228 271.188 39.3588 270.628 39.6308 270.14C39.9108 269.652 40.2908 269.272 40.7708 269C41.2588 268.72 41.8068 268.58 42.4148 268.58C43.0308 268.58 43.5748 268.716 44.0468 268.988C44.5188 269.26 44.8868 269.644 45.1508 270.14C45.4228 270.628 45.5588 271.2 45.5588 271.856C45.5588 271.904 45.5548 271.96 45.5468 272.024C45.5468 272.088 45.5428 272.148 45.5348 272.204H40.1228V271.376H44.9348L44.4668 271.664C44.4748 271.256 44.3908 270.892 44.2148 270.572C44.0388 270.252 43.7948 270.004 43.4828 269.828C43.1788 269.644 42.8228 269.552 42.4148 269.552C42.0148 269.552 41.6588 269.644 41.3468 269.828C41.0348 270.004 40.7908 270.256 40.6148 270.584C40.4388 270.904 40.3508 271.272 40.3508 271.688V271.88C40.3508 272.304 40.4468 272.684 40.6388 273.02C40.8388 273.348 41.1148 273.604 41.4668 273.788C41.8188 273.972 42.2228 274.064 42.6788 274.064C43.0548 274.064 43.3948 274 43.6988 273.872C44.0108 273.744 44.2828 273.552 44.5148 273.296L45.1508 274.04C44.8628 274.376 44.5028 274.632 44.0708 274.808C43.6468 274.984 43.1708 275.072 42.6428 275.072ZM49.3424 275.072C48.7024 275.072 48.2064 274.9 47.8544 274.556C47.5024 274.212 47.3264 273.72 47.3264 273.08V267.248H48.4784V273.032C48.4784 273.376 48.5624 273.64 48.7304 273.824C48.9064 274.008 49.1544 274.1 49.4744 274.1C49.8344 274.1 50.1344 274 50.3744 273.8L50.7344 274.628C50.5584 274.78 50.3464 274.892 50.0984 274.964C49.8584 275.036 49.6064 275.072 49.3424 275.072ZM46.2464 269.588V268.64H50.3024V269.588H46.2464ZM56.0752 275V273.656L56.0152 273.404V271.112C56.0152 270.624 55.8712 270.248 55.5832 269.984C55.3032 269.712 54.8792 269.576 54.3112 269.576C53.9352 269.576 53.5672 269.64 53.2072 269.768C52.8472 269.888 52.5432 270.052 52.2952 270.26L51.8152 269.396C52.1432 269.132 52.5352 268.932 52.9912 268.796C53.4552 268.652 53.9392 268.58 54.4432 268.58C55.3152 268.58 55.9872 268.792 56.4592 269.216C56.9312 269.64 57.1672 270.288 57.1672 271.16V275H56.0752ZM53.9872 275.072C53.5152 275.072 53.0992 274.992 52.7392 274.832C52.3872 274.672 52.1152 274.452 51.9232 274.172C51.7312 273.884 51.6352 273.56 51.6352 273.2C51.6352 272.856 51.7152 272.544 51.8752 272.264C52.0432 271.984 52.3112 271.76 52.6792 271.592C53.0552 271.424 53.5592 271.34 54.1912 271.34H56.2072V272.168H54.2392C53.6632 272.168 53.2752 272.264 53.0752 272.456C52.8752 272.648 52.7752 272.88 52.7752 273.152C52.7752 273.464 52.8992 273.716 53.1472 273.908C53.3952 274.092 53.7392 274.184 54.1792 274.184C54.6112 274.184 54.9872 274.088 55.3072 273.896C55.6352 273.704 55.8712 273.424 56.0152 273.056L56.2432 273.848C56.0912 274.224 55.8232 274.524 55.4392 274.748C55.0552 274.964 54.5712 275.072 53.9872 275.072ZM59.299 275V268.64H60.451V275H59.299ZM59.875 267.416C59.651 267.416 59.463 267.344 59.311 267.2C59.167 267.056 59.095 266.88 59.095 266.672C59.095 266.456 59.167 266.276 59.311 266.132C59.463 265.988 59.651 265.916 59.875 265.916C60.099 265.916 60.283 265.988 60.427 266.132C60.579 266.268 60.655 266.44 60.655 266.648C60.655 266.864 60.583 267.048 60.439 267.2C60.295 267.344 60.107 267.416 59.875 267.416ZM62.6506 275V266.096H63.8026V275H62.6506Z" fill="#212529"/>
<path d="M158.663 101V92.6H162.479C163.391 92.6 164.195 92.776 164.891 93.128C165.587 93.472 166.131 93.956 166.523 94.58C166.915 95.204 167.111 95.944 167.111 96.8C167.111 97.648 166.915 98.388 166.523 99.02C166.131 99.644 165.587 100.132 164.891 100.484C164.195 100.828 163.391 101 162.479 101H158.663ZM160.607 99.404H162.383C162.943 99.404 163.427 99.3 163.835 99.092C164.251 98.876 164.571 98.572 164.795 98.18C165.027 97.788 165.143 97.328 165.143 96.8C165.143 96.264 165.027 95.804 164.795 95.42C164.571 95.028 164.251 94.728 163.835 94.52C163.427 94.304 162.943 94.196 162.383 94.196H160.607V99.404ZM168.445 101V94.544H170.233V96.368L169.981 95.84C170.173 95.384 170.481 95.04 170.905 94.808C171.329 94.568 171.845 94.448 172.453 94.448V96.176C172.373 96.168 172.301 96.164 172.237 96.164C172.173 96.156 172.105 96.152 172.033 96.152C171.521 96.152 171.105 96.3 170.785 96.596C170.473 96.884 170.317 97.336 170.317 97.952V101H168.445ZM177.104 101V99.74L176.984 99.464V97.208C176.984 96.808 176.86 96.496 176.612 96.272C176.372 96.048 176 95.936 175.496 95.936C175.152 95.936 174.812 95.992 174.476 96.104C174.148 96.208 173.868 96.352 173.636 96.536L172.964 95.228C173.316 94.98 173.74 94.788 174.236 94.652C174.732 94.516 175.236 94.448 175.748 94.448C176.732 94.448 177.496 94.68 178.04 95.144C178.584 95.608 178.856 96.332 178.856 97.316V101H177.104ZM175.136 101.096C174.632 101.096 174.2 101.012 173.84 100.844C173.48 100.668 173.204 100.432 173.012 100.136C172.82 99.84 172.724 99.508 172.724 99.14C172.724 98.756 172.816 98.42 173 98.132C173.192 97.844 173.492 97.62 173.9 97.46C174.308 97.292 174.84 97.208 175.496 97.208H177.212V98.3H175.7C175.26 98.3 174.956 98.372 174.788 98.516C174.628 98.66 174.548 98.84 174.548 99.056C174.548 99.296 174.64 99.488 174.824 99.632C175.016 99.768 175.276 99.836 175.604 99.836C175.916 99.836 176.196 99.764 176.444 99.62C176.692 99.468 176.872 99.248 176.984 98.96L177.272 99.824C177.136 100.24 176.888 100.556 176.528 100.772C176.168 100.988 175.704 101.096 175.136 101.096ZM180.778 101V94.4C180.778 93.672 180.994 93.092 181.426 92.66C181.858 92.22 182.474 92 183.274 92C183.546 92 183.806 92.028 184.054 92.084C184.31 92.14 184.526 92.228 184.702 92.348L184.21 93.704C184.106 93.632 183.99 93.576 183.862 93.536C183.734 93.496 183.598 93.476 183.454 93.476C183.182 93.476 182.97 93.556 182.818 93.716C182.674 93.868 182.602 94.1 182.602 94.412V95.012L182.65 95.816V101H180.778ZM179.782 96.128V94.688H184.258V96.128H179.782ZM187.831 101.096C187.071 101.096 186.479 100.904 186.055 100.52C185.631 100.128 185.419 99.548 185.419 98.78V93.116H187.291V98.756C187.291 99.028 187.363 99.24 187.507 99.392C187.651 99.536 187.847 99.608 188.095 99.608C188.391 99.608 188.643 99.528 188.851 99.368L189.355 100.688C189.163 100.824 188.931 100.928 188.659 101C188.395 101.064 188.119 101.096 187.831 101.096ZM184.423 96.128V94.688H188.899V96.128H184.423Z" fill="#5C6F88"/>
<path d="M158.111 159V158.184L161.531 154.884C161.835 154.596 162.059 154.344 162.203 154.128C162.355 153.904 162.455 153.7 162.503 153.516C162.559 153.324 162.587 153.14 162.587 152.964C162.587 152.532 162.435 152.192 162.131 151.944C161.827 151.696 161.383 151.572 160.799 151.572C160.351 151.572 159.947 151.648 159.587 151.8C159.227 151.944 158.915 152.172 158.651 152.484L157.835 151.776C158.155 151.368 158.583 151.056 159.119 150.84C159.663 150.616 160.259 150.504 160.907 150.504C161.491 150.504 161.999 150.6 162.431 150.792C162.863 150.976 163.195 151.244 163.427 151.596C163.667 151.948 163.787 152.364 163.787 152.844C163.787 153.116 163.751 153.384 163.679 153.648C163.607 153.912 163.471 154.192 163.271 154.488C163.071 154.784 162.783 155.116 162.407 155.484L159.359 158.424L159.071 157.956H164.147V159H158.111Z" fill="#212529"/>
<path d="M161.675 217.096C161.019 217.096 160.431 216.928 159.911 216.592C159.399 216.256 158.991 215.768 158.687 215.128C158.391 214.488 158.243 213.712 158.243 212.8C158.243 211.888 158.391 211.112 158.687 210.472C158.991 209.832 159.399 209.344 159.911 209.008C160.431 208.672 161.019 208.504 161.675 208.504C162.323 208.504 162.907 208.672 163.427 209.008C163.947 209.344 164.355 209.832 164.651 210.472C164.947 211.112 165.095 211.888 165.095 212.8C165.095 213.712 164.947 214.488 164.651 215.128C164.355 215.768 163.947 216.256 163.427 216.592C162.907 216.928 162.323 217.096 161.675 217.096ZM161.675 216.028C162.115 216.028 162.499 215.908 162.827 215.668C163.163 215.428 163.423 215.068 163.607 214.588C163.799 214.108 163.895 213.512 163.895 212.8C163.895 212.088 163.799 211.492 163.607 211.012C163.423 210.532 163.163 210.172 162.827 209.932C162.499 209.692 162.115 209.572 161.675 209.572C161.235 209.572 160.847 209.692 160.511 209.932C160.175 210.172 159.911 210.532 159.719 211.012C159.535 211.492 159.443 212.088 159.443 212.8C159.443 213.512 159.535 214.108 159.719 214.588C159.911 215.068 160.175 215.428 160.511 215.668C160.847 215.908 161.235 216.028 161.675 216.028Z" fill="#212529"/>
<path d="M158.111 275V274.184L161.531 270.884C161.835 270.596 162.059 270.344 162.203 270.128C162.355 269.904 162.455 269.7 162.503 269.516C162.559 269.324 162.587 269.14 162.587 268.964C162.587 268.532 162.435 268.192 162.131 267.944C161.827 267.696 161.383 267.572 160.799 267.572C160.351 267.572 159.947 267.648 159.587 267.8C159.227 267.944 158.915 268.172 158.651 268.484L157.835 267.776C158.155 267.368 158.583 267.056 159.119 266.84C159.663 266.616 160.259 266.504 160.907 266.504C161.491 266.504 161.999 266.6 162.431 266.792C162.863 266.976 163.195 267.244 163.427 267.596C163.667 267.948 163.787 268.364 163.787 268.844C163.787 269.116 163.751 269.384 163.679 269.648C163.607 269.912 163.471 270.192 163.271 270.488C163.071 270.784 162.783 271.116 162.407 271.484L159.359 274.424L159.071 273.956H164.147V275H158.111Z" fill="#212529"/>
<path d="M290.349 101.144C289.701 101.144 289.097 101.04 288.537 100.832C287.985 100.616 287.505 100.312 287.097 99.92C286.689 99.528 286.369 99.068 286.137 98.54C285.913 98.012 285.801 97.432 285.801 96.8C285.801 96.168 285.913 95.588 286.137 95.06C286.369 94.532 286.689 94.072 287.097 93.68C287.513 93.288 287.997 92.988 288.549 92.78C289.101 92.564 289.705 92.456 290.361 92.456C291.089 92.456 291.745 92.584 292.329 92.84C292.921 93.088 293.417 93.456 293.817 93.944L292.569 95.096C292.281 94.768 291.961 94.524 291.609 94.364C291.257 94.196 290.873 94.112 290.457 94.112C290.065 94.112 289.705 94.176 289.377 94.304C289.049 94.432 288.765 94.616 288.525 94.856C288.285 95.096 288.097 95.38 287.961 95.708C287.833 96.036 287.769 96.4 287.769 96.8C287.769 97.2 287.833 97.564 287.961 97.892C288.097 98.22 288.285 98.504 288.525 98.744C288.765 98.984 289.049 99.168 289.377 99.296C289.705 99.424 290.065 99.488 290.457 99.488C290.873 99.488 291.257 99.408 291.609 99.248C291.961 99.08 292.281 98.828 292.569 98.492L293.817 99.644C293.417 100.132 292.921 100.504 292.329 100.76C291.745 101.016 291.085 101.144 290.349 101.144ZM297.848 101.096C297.16 101.096 296.548 100.952 296.012 100.664C295.484 100.376 295.064 99.984 294.752 99.488C294.448 98.984 294.296 98.412 294.296 97.772C294.296 97.124 294.448 96.552 294.752 96.056C295.064 95.552 295.484 95.16 296.012 94.88C296.548 94.592 297.16 94.448 297.848 94.448C298.528 94.448 299.136 94.592 299.672 94.88C300.208 95.16 300.628 95.548 300.932 96.044C301.236 96.54 301.388 97.116 301.388 97.772C301.388 98.412 301.236 98.984 300.932 99.488C300.628 99.984 300.208 100.376 299.672 100.664C299.136 100.952 298.528 101.096 297.848 101.096ZM297.848 99.56C298.16 99.56 298.44 99.488 298.688 99.344C298.936 99.2 299.132 98.996 299.276 98.732C299.42 98.46 299.492 98.14 299.492 97.772C299.492 97.396 299.42 97.076 299.276 96.812C299.132 96.548 298.936 96.344 298.688 96.2C298.44 96.056 298.16 95.984 297.848 95.984C297.536 95.984 297.256 96.056 297.008 96.2C296.76 96.344 296.56 96.548 296.408 96.812C296.264 97.076 296.192 97.396 296.192 97.772C296.192 98.14 296.264 98.46 296.408 98.732C296.56 98.996 296.76 99.2 297.008 99.344C297.256 99.488 297.536 99.56 297.848 99.56ZM306.563 94.448C307.075 94.448 307.531 94.552 307.931 94.76C308.339 94.96 308.659 95.272 308.891 95.696C309.123 96.112 309.239 96.648 309.239 97.304V101H307.367V97.592C307.367 97.072 307.251 96.688 307.019 96.44C306.795 96.192 306.475 96.068 306.059 96.068C305.763 96.068 305.495 96.132 305.255 96.26C305.023 96.38 304.839 96.568 304.703 96.824C304.575 97.08 304.511 97.408 304.511 97.808V101H302.639V94.544H304.427V96.332L304.091 95.792C304.323 95.36 304.655 95.028 305.087 94.796C305.519 94.564 306.011 94.448 306.563 94.448ZM311.164 101V94.4C311.164 93.672 311.38 93.092 311.812 92.66C312.244 92.22 312.86 92 313.66 92C313.932 92 314.192 92.028 314.44 92.084C314.696 92.14 314.912 92.228 315.088 92.348L314.596 93.704C314.492 93.632 314.376 93.576 314.248 93.536C314.12 93.496 313.984 93.476 313.84 93.476C313.568 93.476 313.356 93.556 313.204 93.716C313.06 93.868 312.988 94.1 312.988 94.412V95.012L313.036 95.816V101H311.164ZM310.168 96.128V94.688H314.644V96.128H310.168ZM315.7 101V94.544H317.572V101H315.7ZM316.636 93.644C316.292 93.644 316.012 93.544 315.796 93.344C315.58 93.144 315.472 92.896 315.472 92.6C315.472 92.304 315.58 92.056 315.796 91.856C316.012 91.656 316.292 91.556 316.636 91.556C316.98 91.556 317.26 91.652 317.476 91.844C317.692 92.028 317.8 92.268 317.8 92.564C317.8 92.876 317.692 93.136 317.476 93.344C317.268 93.544 316.988 93.644 316.636 93.644ZM319.303 101V94.544H321.091V96.368L320.839 95.84C321.031 95.384 321.339 95.04 321.763 94.808C322.187 94.568 322.703 94.448 323.311 94.448V96.176C323.231 96.168 323.159 96.164 323.095 96.164C323.031 96.156 322.963 96.152 322.891 96.152C322.379 96.152 321.963 96.3 321.643 96.596C321.331 96.884 321.175 97.336 321.175 97.952V101H319.303ZM332.704 94.448C333.216 94.448 333.668 94.552 334.06 94.76C334.46 94.96 334.772 95.272 334.996 95.696C335.228 96.112 335.344 96.648 335.344 97.304V101H333.472V97.592C333.472 97.072 333.364 96.688 333.148 96.44C332.932 96.192 332.628 96.068 332.236 96.068C331.964 96.068 331.72 96.132 331.504 96.26C331.288 96.38 331.12 96.564 331 96.812C330.88 97.06 330.82 97.376 330.82 97.76V101H328.948V97.592C328.948 97.072 328.84 96.688 328.624 96.44C328.416 96.192 328.116 96.068 327.724 96.068C327.452 96.068 327.208 96.132 326.992 96.26C326.776 96.38 326.608 96.564 326.488 96.812C326.368 97.06 326.308 97.376 326.308 97.76V101H324.436V94.544H326.224V96.308L325.888 95.792C326.112 95.352 326.428 95.02 326.836 94.796C327.252 94.564 327.724 94.448 328.252 94.448C328.844 94.448 329.36 94.6 329.8 94.904C330.248 95.2 330.544 95.656 330.688 96.272L330.028 96.092C330.244 95.588 330.588 95.188 331.06 94.892C331.54 94.596 332.088 94.448 332.704 94.448ZM340.273 101.096C339.537 101.096 338.889 100.952 338.329 100.664C337.777 100.376 337.349 99.984 337.045 99.488C336.741 98.984 336.589 98.412 336.589 97.772C336.589 97.124 336.737 96.552 337.033 96.056C337.337 95.552 337.749 95.16 338.269 94.88C338.789 94.592 339.377 94.448 340.033 94.448C340.665 94.448 341.233 94.584 341.737 94.856C342.249 95.12 342.653 95.504 342.949 96.008C343.245 96.504 343.393 97.1 343.393 97.796C343.393 97.868 343.389 97.952 343.381 98.048C343.373 98.136 343.365 98.22 343.357 98.3H338.113V97.208H342.373L341.653 97.532C341.653 97.196 341.585 96.904 341.449 96.656C341.313 96.408 341.125 96.216 340.885 96.08C340.645 95.936 340.365 95.864 340.045 95.864C339.725 95.864 339.441 95.936 339.193 96.08C338.953 96.216 338.765 96.412 338.629 96.668C338.493 96.916 338.425 97.212 338.425 97.556V97.844C338.425 98.196 338.501 98.508 338.653 98.78C338.813 99.044 339.033 99.248 339.313 99.392C339.601 99.528 339.937 99.596 340.321 99.596C340.665 99.596 340.965 99.544 341.221 99.44C341.485 99.336 341.725 99.18 341.941 98.972L342.937 100.052C342.641 100.388 342.269 100.648 341.821 100.832C341.373 101.008 340.857 101.096 340.273 101.096ZM347.411 101.096C346.803 101.096 346.255 100.96 345.767 100.688C345.279 100.408 344.891 100.02 344.603 99.524C344.323 99.028 344.183 98.444 344.183 97.772C344.183 97.092 344.323 96.504 344.603 96.008C344.891 95.512 345.279 95.128 345.767 94.856C346.255 94.584 346.803 94.448 347.411 94.448C347.955 94.448 348.431 94.568 348.839 94.808C349.247 95.048 349.563 95.412 349.787 95.9C350.011 96.388 350.123 97.012 350.123 97.772C350.123 98.524 350.015 99.148 349.799 99.644C349.583 100.132 349.271 100.496 348.863 100.736C348.463 100.976 347.979 101.096 347.411 101.096ZM347.735 99.56C348.039 99.56 348.315 99.488 348.563 99.344C348.811 99.2 349.007 98.996 349.151 98.732C349.303 98.46 349.379 98.14 349.379 97.772C349.379 97.396 349.303 97.076 349.151 96.812C349.007 96.548 348.811 96.344 348.563 96.2C348.315 96.056 348.039 95.984 347.735 95.984C347.423 95.984 347.143 96.056 346.895 96.2C346.647 96.344 346.447 96.548 346.295 96.812C346.151 97.076 346.079 97.396 346.079 97.772C346.079 98.14 346.151 98.46 346.295 98.732C346.447 98.996 346.647 99.2 346.895 99.344C347.143 99.488 347.423 99.56 347.735 99.56ZM349.427 101V99.68L349.463 97.76L349.343 95.852V92.096H351.215V101H349.427Z" fill="#5C6F88"/>
<path d="M288.477 159.096C287.885 159.096 287.309 159.004 286.749 158.82C286.197 158.636 285.745 158.388 285.393 158.076L285.945 157.128C286.225 157.392 286.589 157.608 287.037 157.776C287.485 157.944 287.965 158.028 288.477 158.028C289.101 158.028 289.585 157.896 289.929 157.632C290.281 157.36 290.457 156.996 290.457 156.54C290.457 156.1 290.289 155.748 289.953 155.484C289.625 155.212 289.101 155.076 288.381 155.076H287.709V154.236L290.205 151.164L290.373 151.644H285.777V150.6H291.321V151.416L288.837 154.476L288.213 154.104H288.609C289.625 154.104 290.385 154.332 290.889 154.788C291.401 155.244 291.657 155.824 291.657 156.528C291.657 157 291.541 157.432 291.309 157.824C291.077 158.216 290.725 158.528 290.253 158.76C289.789 158.984 289.197 159.096 288.477 159.096ZM292.586 159V158.184L296.006 154.884C296.31 154.596 296.534 154.344 296.678 154.128C296.83 153.904 296.93 153.7 296.978 153.516C297.034 153.324 297.062 153.14 297.062 152.964C297.062 152.532 296.91 152.192 296.606 151.944C296.302 151.696 295.858 151.572 295.274 151.572C294.826 151.572 294.422 151.648 294.062 151.8C293.702 151.944 293.39 152.172 293.126 152.484L292.31 151.776C292.63 151.368 293.058 151.056 293.594 150.84C294.138 150.616 294.734 150.504 295.382 150.504C295.966 150.504 296.474 150.6 296.906 150.792C297.338 150.976 297.67 151.244 297.902 151.596C298.142 151.948 298.262 152.364 298.262 152.844C298.262 153.116 298.226 153.384 298.154 153.648C298.082 153.912 297.946 154.192 297.746 154.488C297.546 154.784 297.258 155.116 296.882 155.484L293.834 158.424L293.546 157.956H298.622V159H292.586Z" fill="#212529"/>
<path d="M285.789 214.936V214.096L290.085 208.6H291.381L287.121 214.096L286.509 213.904H293.217V214.936H285.789ZM290.457 217V214.936L290.493 213.904V212.08H291.621V217H290.457ZM295.048 217V209.08L295.564 209.644H293.152V208.6H296.236V217H295.048Z" fill="#212529"/>
<path d="M287.325 275V267.08L287.841 267.644H285.429V266.6H288.513V275H287.325ZM290.219 275V274.184L293.639 270.884C293.943 270.596 294.167 270.344 294.311 270.128C294.463 269.904 294.563 269.7 294.611 269.516C294.667 269.324 294.695 269.14 294.695 268.964C294.695 268.532 294.543 268.192 294.239 267.944C293.935 267.696 293.491 267.572 292.907 267.572C292.459 267.572 292.055 267.648 291.695 267.8C291.335 267.944 291.023 268.172 290.759 268.484L289.943 267.776C290.263 267.368 290.691 267.056 291.227 266.84C291.771 266.616 292.367 266.504 293.015 266.504C293.599 266.504 294.107 266.6 294.539 266.792C294.971 266.976 295.303 267.244 295.535 267.596C295.775 267.948 295.895 268.364 295.895 268.844C295.895 269.116 295.859 269.384 295.787 269.648C295.715 269.912 295.579 270.192 295.379 270.488C295.179 270.784 294.891 271.116 294.515 271.484L291.467 274.424L291.179 273.956H296.255V275H290.219Z" fill="#212529"/>
<path d="M413.996 101V92.6H417.632C418.384 92.6 419.032 92.724 419.576 92.972C420.12 93.212 420.54 93.56 420.836 94.016C421.132 94.472 421.28 95.016 421.28 95.648C421.28 96.272 421.132 96.812 420.836 97.268C420.54 97.724 420.12 98.076 419.576 98.324C419.032 98.564 418.384 98.684 417.632 98.684H415.076L415.94 97.808V101H413.996ZM415.94 98.024L415.076 97.1H417.524C418.124 97.1 418.572 96.972 418.868 96.716C419.164 96.46 419.312 96.104 419.312 95.648C419.312 95.184 419.164 94.824 418.868 94.568C418.572 94.312 418.124 94.184 417.524 94.184H415.076L415.94 93.26V98.024ZM426.437 101V99.74L426.317 99.464V97.208C426.317 96.808 426.193 96.496 425.945 96.272C425.705 96.048 425.333 95.936 424.829 95.936C424.485 95.936 424.145 95.992 423.809 96.104C423.481 96.208 423.201 96.352 422.969 96.536L422.297 95.228C422.649 94.98 423.073 94.788 423.569 94.652C424.065 94.516 424.569 94.448 425.081 94.448C426.065 94.448 426.829 94.68 427.373 95.144C427.917 95.608 428.189 96.332 428.189 97.316V101H426.437ZM424.469 101.096C423.965 101.096 423.533 101.012 423.173 100.844C422.813 100.668 422.537 100.432 422.345 100.136C422.153 99.84 422.057 99.508 422.057 99.14C422.057 98.756 422.149 98.42 422.333 98.132C422.525 97.844 422.825 97.62 423.233 97.46C423.641 97.292 424.173 97.208 424.829 97.208H426.545V98.3H425.033C424.593 98.3 424.289 98.372 424.121 98.516C423.961 98.66 423.881 98.84 423.881 99.056C423.881 99.296 423.973 99.488 424.157 99.632C424.349 99.768 424.609 99.836 424.937 99.836C425.249 99.836 425.529 99.764 425.777 99.62C426.025 99.468 426.205 99.248 426.317 98.96L426.605 99.824C426.469 100.24 426.221 100.556 425.861 100.772C425.501 100.988 425.037 101.096 424.469 101.096ZM433.05 101.096C432.354 101.096 431.734 100.956 431.19 100.676C430.646 100.388 430.218 99.992 429.906 99.488C429.602 98.984 429.45 98.412 429.45 97.772C429.45 97.124 429.602 96.552 429.906 96.056C430.218 95.552 430.646 95.16 431.19 94.88C431.734 94.592 432.354 94.448 433.05 94.448C433.73 94.448 434.322 94.592 434.826 94.88C435.33 95.16 435.702 95.564 435.942 96.092L434.49 96.872C434.322 96.568 434.11 96.344 433.854 96.2C433.606 96.056 433.334 95.984 433.038 95.984C432.718 95.984 432.43 96.056 432.174 96.2C431.918 96.344 431.714 96.548 431.562 96.812C431.418 97.076 431.346 97.396 431.346 97.772C431.346 98.148 431.418 98.468 431.562 98.732C431.714 98.996 431.918 99.2 432.174 99.344C432.43 99.488 432.718 99.56 433.038 99.56C433.334 99.56 433.606 99.492 433.854 99.356C434.11 99.212 434.322 98.984 434.49 98.672L435.942 99.464C435.702 99.984 435.33 100.388 434.826 100.676C434.322 100.956 433.73 101.096 433.05 101.096ZM438.533 99.68L438.581 97.4L441.593 94.544H443.825L440.933 97.484L439.961 98.276L438.533 99.68ZM436.985 101V92.096H438.857V101H436.985ZM441.797 101L439.613 98.288L440.789 96.836L444.065 101H441.797ZM447.841 101.096C447.105 101.096 446.457 100.952 445.897 100.664C445.345 100.376 444.917 99.984 444.613 99.488C444.309 98.984 444.157 98.412 444.157 97.772C444.157 97.124 444.305 96.552 444.601 96.056C444.905 95.552 445.317 95.16 445.837 94.88C446.357 94.592 446.945 94.448 447.601 94.448C448.233 94.448 448.801 94.584 449.305 94.856C449.817 95.12 450.221 95.504 450.517 96.008C450.813 96.504 450.961 97.1 450.961 97.796C450.961 97.868 450.957 97.952 450.949 98.048C450.941 98.136 450.933 98.22 450.925 98.3H445.681V97.208H449.941L449.221 97.532C449.221 97.196 449.153 96.904 449.017 96.656C448.881 96.408 448.693 96.216 448.453 96.08C448.213 95.936 447.933 95.864 447.613 95.864C447.293 95.864 447.009 95.936 446.761 96.08C446.521 96.216 446.333 96.412 446.197 96.668C446.061 96.916 445.993 97.212 445.993 97.556V97.844C445.993 98.196 446.069 98.508 446.221 98.78C446.381 99.044 446.601 99.248 446.881 99.392C447.169 99.528 447.505 99.596 447.889 99.596C448.233 99.596 448.533 99.544 448.789 99.44C449.053 99.336 449.293 99.18 449.509 98.972L450.505 100.052C450.209 100.388 449.837 100.648 449.389 100.832C448.941 101.008 448.425 101.096 447.841 101.096ZM454.98 101.096C454.372 101.096 453.824 100.96 453.336 100.688C452.848 100.408 452.46 100.02 452.172 99.524C451.892 99.028 451.752 98.444 451.752 97.772C451.752 97.092 451.892 96.504 452.172 96.008C452.46 95.512 452.848 95.128 453.336 94.856C453.824 94.584 454.372 94.448 454.98 94.448C455.524 94.448 456 94.568 456.408 94.808C456.816 95.048 457.132 95.412 457.356 95.9C457.58 96.388 457.692 97.012 457.692 97.772C457.692 98.524 457.584 99.148 457.368 99.644C457.152 100.132 456.84 100.496 456.432 100.736C456.032 100.976 455.548 101.096 454.98 101.096ZM455.304 99.56C455.608 99.56 455.884 99.488 456.132 99.344C456.38 99.2 456.576 98.996 456.72 98.732C456.872 98.46 456.948 98.14 456.948 97.772C456.948 97.396 456.872 97.076 456.72 96.812C456.576 96.548 456.38 96.344 456.132 96.2C455.884 96.056 455.608 95.984 455.304 95.984C454.992 95.984 454.712 96.056 454.464 96.2C454.216 96.344 454.016 96.548 453.864 96.812C453.72 97.076 453.648 97.396 453.648 97.772C453.648 98.14 453.72 98.46 453.864 98.732C454.016 98.996 454.216 99.2 454.464 99.344C454.712 99.488 454.992 99.56 455.304 99.56ZM456.996 101V99.68L457.032 97.76L456.912 95.852V92.096H458.784V101H456.996Z" fill="#5C6F88"/>
<path d="M413.456 156.936V156.096L417.752 150.6H419.048L414.788 156.096L414.176 155.904H420.884V156.936H413.456ZM418.124 159V156.936L418.16 155.904V154.08H419.288V159H418.124ZM421.46 159V158.184L424.88 154.884C425.184 154.596 425.408 154.344 425.552 154.128C425.704 153.904 425.804 153.7 425.852 153.516C425.908 153.324 425.936 153.14 425.936 152.964C425.936 152.532 425.784 152.192 425.48 151.944C425.176 151.696 424.732 151.572 424.148 151.572C423.7 151.572 423.296 151.648 422.936 151.8C422.576 151.944 422.264 152.172 422 152.484L421.184 151.776C421.504 151.368 421.932 151.056 422.468 150.84C423.012 150.616 423.608 150.504 424.256 150.504C424.84 150.504 425.348 150.6 425.78 150.792C426.212 150.976 426.544 151.244 426.776 151.596C427.016 151.948 427.136 152.364 427.136 152.844C427.136 153.116 427.1 153.384 427.028 153.648C426.956 153.912 426.82 154.192 426.62 154.488C426.42 154.784 426.132 155.116 425.756 155.484L422.708 158.424L422.42 157.956H427.496V159H421.46Z" fill="#212529"/>
<path d="M416.144 217.096C415.552 217.096 414.976 217.004 414.416 216.82C413.864 216.636 413.412 216.388 413.06 216.076L413.612 215.128C413.892 215.392 414.256 215.608 414.704 215.776C415.152 215.944 415.632 216.028 416.144 216.028C416.768 216.028 417.252 215.896 417.596 215.632C417.948 215.36 418.124 214.996 418.124 214.54C418.124 214.1 417.956 213.748 417.62 213.484C417.292 213.212 416.768 213.076 416.048 213.076H415.376V212.236L417.872 209.164L418.04 209.644H413.444V208.6H418.988V209.416L416.504 212.476L415.88 212.104H416.276C417.292 212.104 418.052 212.332 418.556 212.788C419.068 213.244 419.324 213.824 419.324 214.528C419.324 215 419.208 215.432 418.976 215.824C418.744 216.216 418.392 216.528 417.92 216.76C417.456 216.984 416.864 217.096 416.144 217.096ZM422.953 217.096C422.361 217.096 421.785 217.004 421.225 216.82C420.673 216.636 420.221 216.388 419.869 216.076L420.421 215.128C420.701 215.392 421.065 215.608 421.513 215.776C421.961 215.944 422.441 216.028 422.953 216.028C423.577 216.028 424.061 215.896 424.405 215.632C424.757 215.36 424.933 214.996 424.933 214.54C424.933 214.1 424.765 213.748 424.429 213.484C424.101 213.212 423.577 213.076 422.857 213.076H422.185V212.236L424.681 209.164L424.849 209.644H420.253V208.6H425.797V209.416L423.313 212.476L422.689 212.104H423.085C424.101 212.104 424.861 212.332 425.365 212.788C425.877 213.244 426.133 213.824 426.133 214.528C426.133 215 426.017 215.432 425.785 215.824C425.553 216.216 425.201 216.528 424.729 216.76C424.265 216.984 423.673 217.096 422.953 217.096Z" fill="#212529"/>
<path d="M413.444 275V274.184L416.864 270.884C417.168 270.596 417.392 270.344 417.536 270.128C417.688 269.904 417.788 269.7 417.836 269.516C417.892 269.324 417.92 269.14 417.92 268.964C417.92 268.532 417.768 268.192 417.464 267.944C417.16 267.696 416.716 267.572 416.132 267.572C415.684 267.572 415.28 267.648 414.92 267.8C414.56 267.944 414.248 268.172 413.984 268.484L413.168 267.776C413.488 267.368 413.916 267.056 414.452 266.84C414.996 266.616 415.592 266.504 416.24 266.504C416.824 266.504 417.332 266.6 417.764 266.792C418.196 266.976 418.528 267.244 418.76 267.596C419 267.948 419.12 268.364 419.12 268.844C419.12 269.116 419.084 269.384 419.012 269.648C418.94 269.912 418.804 270.192 418.604 270.488C418.404 270.784 418.116 271.116 417.74 271.484L414.692 274.424L414.404 273.956H419.48V275H413.444ZM423.179 275.096C422.587 275.096 422.011 275.004 421.451 274.82C420.899 274.636 420.447 274.388 420.095 274.076L420.647 273.128C420.927 273.392 421.291 273.608 421.739 273.776C422.187 273.944 422.663 274.028 423.167 274.028C423.807 274.028 424.299 273.892 424.643 273.62C424.987 273.348 425.159 272.984 425.159 272.528C425.159 272.216 425.083 271.944 424.931 271.712C424.779 271.48 424.515 271.304 424.139 271.184C423.771 271.056 423.263 270.992 422.615 270.992H420.707L421.151 266.6H425.891V267.644H421.595L422.219 267.056L421.871 270.524L421.247 269.948H422.867C423.707 269.948 424.383 270.056 424.895 270.272C425.407 270.488 425.779 270.788 426.011 271.172C426.243 271.548 426.359 271.984 426.359 272.48C426.359 272.96 426.243 273.4 426.011 273.8C425.779 274.192 425.427 274.508 424.955 274.748C424.491 274.98 423.899 275.096 423.179 275.096Z" fill="#212529"/>
<path d="M544.423 101.144C543.751 101.144 543.107 101.056 542.491 100.88C541.875 100.696 541.379 100.46 541.003 100.172L541.663 98.708C542.023 98.964 542.447 99.176 542.935 99.344C543.431 99.504 543.931 99.584 544.435 99.584C544.819 99.584 545.127 99.548 545.359 99.476C545.599 99.396 545.775 99.288 545.887 99.152C545.999 99.016 546.055 98.86 546.055 98.684C546.055 98.46 545.967 98.284 545.791 98.156C545.615 98.02 545.383 97.912 545.095 97.832C544.807 97.744 544.487 97.664 544.135 97.592C543.791 97.512 543.443 97.416 543.091 97.304C542.747 97.192 542.431 97.048 542.143 96.872C541.855 96.696 541.619 96.464 541.435 96.176C541.259 95.888 541.171 95.52 541.171 95.072C541.171 94.592 541.299 94.156 541.555 93.764C541.819 93.364 542.211 93.048 542.731 92.816C543.259 92.576 543.919 92.456 544.711 92.456C545.239 92.456 545.759 92.52 546.271 92.648C546.783 92.768 547.235 92.952 547.627 93.2L547.027 94.676C546.635 94.452 546.243 94.288 545.851 94.184C545.459 94.072 545.075 94.016 544.699 94.016C544.323 94.016 544.015 94.06 543.775 94.148C543.535 94.236 543.363 94.352 543.259 94.496C543.155 94.632 543.103 94.792 543.103 94.976C543.103 95.192 543.191 95.368 543.367 95.504C543.543 95.632 543.775 95.736 544.063 95.816C544.351 95.896 544.667 95.976 545.011 96.056C545.363 96.136 545.711 96.228 546.055 96.332C546.407 96.436 546.727 96.576 547.015 96.752C547.303 96.928 547.535 97.16 547.711 97.448C547.895 97.736 547.987 98.1 547.987 98.54C547.987 99.012 547.855 99.444 547.591 99.836C547.327 100.228 546.931 100.544 546.403 100.784C545.883 101.024 545.223 101.144 544.423 101.144ZM553.107 94.448C553.619 94.448 554.075 94.552 554.475 94.76C554.883 94.96 555.203 95.272 555.435 95.696C555.667 96.112 555.783 96.648 555.783 97.304V101H553.911V97.592C553.911 97.072 553.795 96.688 553.563 96.44C553.339 96.192 553.019 96.068 552.603 96.068C552.307 96.068 552.039 96.132 551.799 96.26C551.567 96.38 551.383 96.568 551.247 96.824C551.119 97.08 551.055 97.408 551.055 97.808V101H549.183V92.096H551.055V96.332L550.635 95.792C550.867 95.36 551.199 95.028 551.631 94.796C552.063 94.564 552.555 94.448 553.107 94.448ZM557.48 101V94.544H559.352V101H557.48ZM558.416 93.644C558.072 93.644 557.792 93.544 557.576 93.344C557.36 93.144 557.252 92.896 557.252 92.6C557.252 92.304 557.36 92.056 557.576 91.856C557.792 91.656 558.072 91.556 558.416 91.556C558.76 91.556 559.04 91.652 559.256 91.844C559.472 92.028 559.58 92.268 559.58 92.564C559.58 92.876 559.472 93.136 559.256 93.344C559.048 93.544 558.768 93.644 558.416 93.644ZM564.905 101.096C564.361 101.096 563.885 100.976 563.477 100.736C563.069 100.496 562.749 100.132 562.517 99.644C562.293 99.148 562.181 98.524 562.181 97.772C562.181 97.012 562.289 96.388 562.505 95.9C562.721 95.412 563.033 95.048 563.441 94.808C563.849 94.568 564.337 94.448 564.905 94.448C565.513 94.448 566.057 94.588 566.537 94.868C567.025 95.14 567.409 95.524 567.689 96.02C567.977 96.516 568.121 97.1 568.121 97.772C568.121 98.452 567.977 99.04 567.689 99.536C567.409 100.032 567.025 100.416 566.537 100.688C566.057 100.96 565.513 101.096 564.905 101.096ZM561.089 103.328V94.544H562.877V95.864L562.841 97.784L562.961 99.692V103.328H561.089ZM564.581 99.56C564.893 99.56 565.169 99.488 565.409 99.344C565.657 99.2 565.853 98.996 565.997 98.732C566.149 98.46 566.225 98.14 566.225 97.772C566.225 97.396 566.149 97.076 565.997 96.812C565.853 96.548 565.657 96.344 565.409 96.2C565.169 96.056 564.893 95.984 564.581 95.984C564.269 95.984 563.989 96.056 563.741 96.2C563.493 96.344 563.297 96.548 563.153 96.812C563.009 97.076 562.937 97.396 562.937 97.772C562.937 98.14 563.009 98.46 563.153 98.732C563.297 98.996 563.493 99.2 563.741 99.344C563.989 99.488 564.269 99.56 564.581 99.56ZM573.19 101.096C572.646 101.096 572.17 100.976 571.762 100.736C571.354 100.496 571.034 100.132 570.802 99.644C570.578 99.148 570.466 98.524 570.466 97.772C570.466 97.012 570.574 96.388 570.79 95.9C571.006 95.412 571.318 95.048 571.726 94.808C572.134 94.568 572.622 94.448 573.19 94.448C573.798 94.448 574.342 94.588 574.822 94.868C575.31 95.14 575.694 95.524 575.974 96.02C576.262 96.516 576.406 97.1 576.406 97.772C576.406 98.452 576.262 99.04 575.974 99.536C575.694 100.032 575.31 100.416 574.822 100.688C574.342 100.96 573.798 101.096 573.19 101.096ZM569.374 103.328V94.544H571.162V95.864L571.126 97.784L571.246 99.692V103.328H569.374ZM572.866 99.56C573.178 99.56 573.454 99.488 573.694 99.344C573.942 99.2 574.138 98.996 574.282 98.732C574.434 98.46 574.51 98.14 574.51 97.772C574.51 97.396 574.434 97.076 574.282 96.812C574.138 96.548 573.942 96.344 573.694 96.2C573.454 96.056 573.178 95.984 572.866 95.984C572.554 95.984 572.274 96.056 572.026 96.2C571.778 96.344 571.582 96.548 571.438 96.812C571.294 97.076 571.222 97.396 571.222 97.772C571.222 98.14 571.294 98.46 571.438 98.732C571.582 98.996 571.778 99.2 572.026 99.344C572.274 99.488 572.554 99.56 572.866 99.56ZM580.863 101.096C580.127 101.096 579.479 100.952 578.919 100.664C578.367 100.376 577.939 99.984 577.635 99.488C577.331 98.984 577.179 98.412 577.179 97.772C577.179 97.124 577.327 96.552 577.623 96.056C577.927 95.552 578.339 95.16 578.859 94.88C579.379 94.592 579.967 94.448 580.623 94.448C581.255 94.448 581.823 94.584 582.327 94.856C582.839 95.12 583.243 95.504 583.539 96.008C583.835 96.504 583.983 97.1 583.983 97.796C583.983 97.868 583.979 97.952 583.971 98.048C583.963 98.136 583.955 98.22 583.947 98.3H578.703V97.208H582.963L582.243 97.532C582.243 97.196 582.175 96.904 582.039 96.656C581.903 96.408 581.715 96.216 581.475 96.08C581.235 95.936 580.955 95.864 580.635 95.864C580.315 95.864 580.031 95.936 579.783 96.08C579.543 96.216 579.355 96.412 579.219 96.668C579.083 96.916 579.015 97.212 579.015 97.556V97.844C579.015 98.196 579.091 98.508 579.243 98.78C579.403 99.044 579.623 99.248 579.903 99.392C580.191 99.528 580.527 99.596 580.911 99.596C581.255 99.596 581.555 99.544 581.811 99.44C582.075 99.336 582.315 99.18 582.531 98.972L583.527 100.052C583.231 100.388 582.859 100.648 582.411 100.832C581.963 101.008 581.447 101.096 580.863 101.096ZM588.002 101.096C587.394 101.096 586.846 100.96 586.358 100.688C585.87 100.408 585.482 100.02 585.194 99.524C584.914 99.028 584.774 98.444 584.774 97.772C584.774 97.092 584.914 96.504 585.194 96.008C585.482 95.512 585.87 95.128 586.358 94.856C586.846 94.584 587.394 94.448 588.002 94.448C588.546 94.448 589.022 94.568 589.43 94.808C589.838 95.048 590.154 95.412 590.378 95.9C590.602 96.388 590.714 97.012 590.714 97.772C590.714 98.524 590.606 99.148 590.39 99.644C590.174 100.132 589.862 100.496 589.454 100.736C589.054 100.976 588.57 101.096 588.002 101.096ZM588.326 99.56C588.63 99.56 588.906 99.488 589.154 99.344C589.402 99.2 589.598 98.996 589.742 98.732C589.894 98.46 589.97 98.14 589.97 97.772C589.97 97.396 589.894 97.076 589.742 96.812C589.598 96.548 589.402 96.344 589.154 96.2C588.906 96.056 588.63 95.984 588.326 95.984C588.014 95.984 587.734 96.056 587.486 96.2C587.238 96.344 587.038 96.548 586.886 96.812C586.742 97.076 586.67 97.396 586.67 97.772C586.67 98.14 586.742 98.46 586.886 98.732C587.038 98.996 587.238 99.2 587.486 99.344C587.734 99.488 588.014 99.56 588.326 99.56ZM590.018 101V99.68L590.054 97.76L589.934 95.852V92.096H591.806V101H590.018Z" fill="#5C6F88"/>
<path d="M541.111 159V158.184L544.531 154.884C544.835 154.596 545.059 154.344 545.203 154.128C545.355 153.904 545.455 153.7 545.503 153.516C545.559 153.324 545.587 153.14 545.587 152.964C545.587 152.532 545.435 152.192 545.131 151.944C544.827 151.696 544.383 151.572 543.799 151.572C543.351 151.572 542.947 151.648 542.587 151.8C542.227 151.944 541.915 152.172 541.651 152.484L540.835 151.776C541.155 151.368 541.583 151.056 542.119 150.84C542.663 150.616 543.259 150.504 543.907 150.504C544.491 150.504 544.999 150.6 545.431 150.792C545.863 150.976 546.195 151.244 546.427 151.596C546.667 151.948 546.787 152.364 546.787 152.844C546.787 153.116 546.751 153.384 546.679 153.648C546.607 153.912 546.471 154.192 546.271 154.488C546.071 154.784 545.783 155.116 545.407 155.484L542.359 158.424L542.071 157.956H547.147V159H541.111ZM550.701 159.096C550.109 159.096 549.533 159.004 548.973 158.82C548.421 158.636 547.969 158.388 547.617 158.076L548.169 157.128C548.449 157.392 548.813 157.608 549.261 157.776C549.709 157.944 550.189 158.028 550.701 158.028C551.325 158.028 551.809 157.896 552.153 157.632C552.505 157.36 552.681 156.996 552.681 156.54C552.681 156.1 552.513 155.748 552.177 155.484C551.849 155.212 551.325 155.076 550.605 155.076H549.933V154.236L552.429 151.164L552.597 151.644H548.001V150.6H553.545V151.416L551.061 154.476L550.437 154.104H550.833C551.849 154.104 552.609 154.332 553.113 154.788C553.625 155.244 553.881 155.824 553.881 156.528C553.881 157 553.765 157.432 553.533 157.824C553.301 158.216 552.949 158.528 552.477 158.76C552.013 158.984 551.421 159.096 550.701 159.096Z" fill="#212529"/>
<path d="M542.659 217V209.08L543.175 209.644H540.763V208.6H543.847V217H542.659ZM547.1 217V209.08L547.616 209.644H545.204V208.6H548.288V217H547.1Z" fill="#212529"/>
<path d="M542.659 275V267.08L543.175 267.644H540.763V266.6H543.847V275H542.659ZM549.212 275.096C548.468 275.096 547.832 274.932 547.304 274.604C546.776 274.276 546.372 273.804 546.092 273.188C545.82 272.564 545.684 271.804 545.684 270.908C545.684 269.956 545.852 269.152 546.188 268.496C546.524 267.84 546.992 267.344 547.592 267.008C548.192 266.672 548.88 266.504 549.656 266.504C550.056 266.504 550.436 266.544 550.796 266.624C551.164 266.704 551.48 266.828 551.744 266.996L551.288 267.932C551.072 267.78 550.824 267.676 550.544 267.62C550.272 267.564 549.984 267.536 549.68 267.536C548.824 267.536 548.144 267.804 547.64 268.34C547.136 268.868 546.884 269.656 546.884 270.704C546.884 270.872 546.892 271.072 546.908 271.304C546.924 271.536 546.964 271.764 547.028 271.988L546.62 271.58C546.74 271.212 546.928 270.904 547.184 270.656C547.448 270.4 547.76 270.212 548.12 270.092C548.488 269.964 548.884 269.9 549.308 269.9C549.868 269.9 550.364 270.004 550.796 270.212C551.228 270.42 551.568 270.716 551.816 271.1C552.064 271.476 552.188 271.924 552.188 272.444C552.188 272.98 552.056 273.448 551.792 273.848C551.528 274.248 551.172 274.556 550.724 274.772C550.276 274.988 549.772 275.096 549.212 275.096ZM549.164 274.124C549.532 274.124 549.852 274.056 550.124 273.92C550.404 273.784 550.624 273.596 550.784 273.356C550.944 273.108 551.024 272.82 551.024 272.492C551.024 271.996 550.852 271.604 550.508 271.316C550.164 271.02 549.696 270.872 549.104 270.872C548.72 270.872 548.384 270.944 548.096 271.088C547.808 271.232 547.58 271.428 547.412 271.676C547.252 271.916 547.172 272.192 547.172 272.504C547.172 272.792 547.248 273.06 547.4 273.308C547.552 273.548 547.776 273.744 548.072 273.896C548.368 274.048 548.732 274.124 549.164 274.124Z" fill="#212529"/>
<path d="M669.329 101V92.6H671.273V101H669.329ZM677.059 94.448C677.571 94.448 678.027 94.552 678.427 94.76C678.835 94.96 679.155 95.272 679.387 95.696C679.619 96.112 679.735 96.648 679.735 97.304V101H677.863V97.592C677.863 97.072 677.747 96.688 677.515 96.44C677.291 96.192 676.971 96.068 676.555 96.068C676.259 96.068 675.991 96.132 675.751 96.26C675.519 96.38 675.335 96.568 675.199 96.824C675.071 97.08 675.007 97.408 675.007 97.808V101H673.135V94.544H674.923V96.332L674.587 95.792C674.819 95.36 675.151 95.028 675.583 94.796C676.015 94.564 676.507 94.448 677.059 94.448ZM683.067 101L680.355 94.544H682.287L684.543 100.1H683.583L685.923 94.544H687.723L684.999 101H683.067ZM691.383 101.096C690.695 101.096 690.083 100.952 689.547 100.664C689.019 100.376 688.599 99.984 688.287 99.488C687.983 98.984 687.831 98.412 687.831 97.772C687.831 97.124 687.983 96.552 688.287 96.056C688.599 95.552 689.019 95.16 689.547 94.88C690.083 94.592 690.695 94.448 691.383 94.448C692.063 94.448 692.671 94.592 693.207 94.88C693.743 95.16 694.163 95.548 694.467 96.044C694.771 96.54 694.923 97.116 694.923 97.772C694.923 98.412 694.771 98.984 694.467 99.488C694.163 99.984 693.743 100.376 693.207 100.664C692.671 100.952 692.063 101.096 691.383 101.096ZM691.383 99.56C691.695 99.56 691.975 99.488 692.223 99.344C692.471 99.2 692.667 98.996 692.811 98.732C692.955 98.46 693.027 98.14 693.027 97.772C693.027 97.396 692.955 97.076 692.811 96.812C692.667 96.548 692.471 96.344 692.223 96.2C691.975 96.056 691.695 95.984 691.383 95.984C691.071 95.984 690.791 96.056 690.543 96.2C690.295 96.344 690.095 96.548 689.943 96.812C689.799 97.076 689.727 97.396 689.727 97.772C689.727 98.14 689.799 98.46 689.943 98.732C690.095 98.996 690.295 99.2 690.543 99.344C690.791 99.488 691.071 99.56 691.383 99.56ZM696.174 101V94.544H698.046V101H696.174ZM697.11 93.644C696.766 93.644 696.486 93.544 696.27 93.344C696.054 93.144 695.946 92.896 695.946 92.6C695.946 92.304 696.054 92.056 696.27 91.856C696.486 91.656 696.766 91.556 697.11 91.556C697.454 91.556 697.734 91.652 697.95 91.844C698.166 92.028 698.274 92.268 698.274 92.564C698.274 92.876 698.166 93.136 697.95 93.344C697.742 93.544 697.462 93.644 697.11 93.644ZM702.903 101.096C702.207 101.096 701.587 100.956 701.043 100.676C700.499 100.388 700.071 99.992 699.759 99.488C699.455 98.984 699.303 98.412 699.303 97.772C699.303 97.124 699.455 96.552 699.759 96.056C700.071 95.552 700.499 95.16 701.043 94.88C701.587 94.592 702.207 94.448 702.903 94.448C703.583 94.448 704.175 94.592 704.679 94.88C705.183 95.16 705.555 95.564 705.795 96.092L704.343 96.872C704.175 96.568 703.963 96.344 703.707 96.2C703.459 96.056 703.187 95.984 702.891 95.984C702.571 95.984 702.283 96.056 702.027 96.2C701.771 96.344 701.567 96.548 701.415 96.812C701.271 97.076 701.199 97.396 701.199 97.772C701.199 98.148 701.271 98.468 701.415 98.732C701.567 98.996 701.771 99.2 702.027 99.344C702.283 99.488 702.571 99.56 702.891 99.56C703.187 99.56 703.459 99.492 703.707 99.356C703.963 99.212 704.175 98.984 704.343 98.672L705.795 99.464C705.555 99.984 705.183 100.388 704.679 100.676C704.175 100.956 703.583 101.096 702.903 101.096ZM709.995 101.096C709.259 101.096 708.611 100.952 708.051 100.664C707.499 100.376 707.071 99.984 706.767 99.488C706.463 98.984 706.311 98.412 706.311 97.772C706.311 97.124 706.459 96.552 706.755 96.056C707.059 95.552 707.471 95.16 707.991 94.88C708.511 94.592 709.099 94.448 709.755 94.448C710.387 94.448 710.955 94.584 711.459 94.856C711.971 95.12 712.375 95.504 712.671 96.008C712.967 96.504 713.115 97.1 713.115 97.796C713.115 97.868 713.111 97.952 713.103 98.048C713.095 98.136 713.087 98.22 713.079 98.3H707.835V97.208H712.095L711.375 97.532C711.375 97.196 711.307 96.904 711.171 96.656C711.035 96.408 710.847 96.216 710.607 96.08C710.367 95.936 710.087 95.864 709.767 95.864C709.447 95.864 709.163 95.936 708.915 96.08C708.675 96.216 708.487 96.412 708.351 96.668C708.215 96.916 708.147 97.212 708.147 97.556V97.844C708.147 98.196 708.223 98.508 708.375 98.78C708.535 99.044 708.755 99.248 709.035 99.392C709.323 99.528 709.659 99.596 710.043 99.596C710.387 99.596 710.687 99.544 710.943 99.44C711.207 99.336 711.447 99.18 711.663 98.972L712.659 100.052C712.363 100.388 711.991 100.648 711.543 100.832C711.095 101.008 710.579 101.096 709.995 101.096ZM717.134 101.096C716.526 101.096 715.978 100.96 715.49 100.688C715.002 100.408 714.614 100.02 714.326 99.524C714.046 99.028 713.906 98.444 713.906 97.772C713.906 97.092 714.046 96.504 714.326 96.008C714.614 95.512 715.002 95.128 715.49 94.856C715.978 94.584 716.526 94.448 717.134 94.448C717.678 94.448 718.154 94.568 718.562 94.808C718.97 95.048 719.286 95.412 719.51 95.9C719.734 96.388 719.846 97.012 719.846 97.772C719.846 98.524 719.738 99.148 719.522 99.644C719.306 100.132 718.994 100.496 718.586 100.736C718.186 100.976 717.702 101.096 717.134 101.096ZM717.458 99.56C717.762 99.56 718.038 99.488 718.286 99.344C718.534 99.2 718.73 98.996 718.874 98.732C719.026 98.46 719.102 98.14 719.102 97.772C719.102 97.396 719.026 97.076 718.874 96.812C718.73 96.548 718.534 96.344 718.286 96.2C718.038 96.056 717.762 95.984 717.458 95.984C717.146 95.984 716.866 96.056 716.618 96.2C716.37 96.344 716.17 96.548 716.018 96.812C715.874 97.076 715.802 97.396 715.802 97.772C715.802 98.14 715.874 98.46 716.018 98.732C716.17 98.996 716.37 99.2 716.618 99.344C716.866 99.488 717.146 99.56 717.458 99.56ZM719.15 101V99.68L719.186 97.76L719.066 95.852V92.096H720.938V101H719.15Z" fill="#5C6F88"/>
<path d="M670.361 159L673.925 151.104L674.237 151.644H669.245L669.845 151.056V153.144H668.693V150.6H675.029V151.416L671.633 159H670.361Z" fill="#212529"/>
<path d="M670.325 217V209.08L670.841 209.644H668.429V208.6H671.513V217H670.325ZM673.231 214.936V214.096L677.527 208.6H678.823L674.563 214.096L673.951 213.904H680.659V214.936H673.231ZM677.899 217V214.936L677.935 213.904V212.08H679.063V217H677.899Z" fill="#212529"/>
<path d="M668.777 275V274.184L672.197 270.884C672.501 270.596 672.725 270.344 672.869 270.128C673.021 269.904 673.121 269.7 673.169 269.516C673.225 269.324 673.253 269.14 673.253 268.964C673.253 268.532 673.101 268.192 672.797 267.944C672.493 267.696 672.049 267.572 671.465 267.572C671.017 267.572 670.613 267.648 670.253 267.8C669.893 267.944 669.581 268.172 669.317 268.484L668.501 267.776C668.821 267.368 669.249 267.056 669.785 266.84C670.329 266.616 670.925 266.504 671.573 266.504C672.157 266.504 672.665 266.6 673.097 266.792C673.529 266.976 673.861 267.244 674.093 267.596C674.333 267.948 674.453 268.364 674.453 268.844C674.453 269.116 674.417 269.384 674.345 269.648C674.273 269.912 674.137 270.192 673.937 270.488C673.737 270.784 673.449 271.116 673.073 271.484L670.025 274.424L669.737 273.956H674.813V275H668.777ZM677.216 275V267.08L677.732 267.644H675.32V266.6H678.404V275H677.216Z" fill="#212529"/>
<defs>
<clipPath id="clip0_9_22231">
<rect width="127" height="24" fill="white" transform="translate(633.726 25)"/>
</clipPath>
</defs>
</svg>
