<svg width="790" height="375" viewBox="0 0 790 375" fill="none" xmlns="http://www.w3.org/2000/svg">
<path d="M34.1132 48.869C33.2385 48.869 32.4012 48.7463 31.6012 48.501C30.8012 48.245 30.1665 47.9197 29.6972 47.525L30.4172 45.909C30.8652 46.261 31.4199 46.5543 32.0812 46.789C32.7425 47.0237 33.4199 47.141 34.1132 47.141C34.6999 47.141 35.1745 47.077 35.5372 46.949C35.8999 46.821 36.1665 46.6503 36.3372 46.437C36.5079 46.213 36.5932 45.9623 36.5932 45.685C36.5932 45.3437 36.4705 45.0717 36.2252 44.869C35.9799 44.6557 35.6599 44.4903 35.2652 44.373C34.8812 44.245 34.4492 44.1277 33.9692 44.021C33.4999 43.9143 33.0252 43.7917 32.5452 43.653C32.0759 43.5037 31.6439 43.317 31.2492 43.093C30.8652 42.8583 30.5505 42.549 30.3052 42.165C30.0599 41.781 29.9372 41.2903 29.9372 40.693C29.9372 40.085 30.0972 39.5303 30.4172 39.029C30.7479 38.517 31.2439 38.1117 31.9052 37.813C32.5772 37.5037 33.4252 37.349 34.4492 37.349C35.1212 37.349 35.7879 37.4343 36.4492 37.605C37.1105 37.7757 37.6865 38.021 38.1772 38.341L37.5212 39.957C37.0199 39.6583 36.5025 39.4397 35.9692 39.301C35.4359 39.1517 34.9239 39.077 34.4332 39.077C33.8572 39.077 33.3879 39.1463 33.0252 39.285C32.6732 39.4237 32.4119 39.605 32.2412 39.829C32.0812 40.053 32.0012 40.309 32.0012 40.597C32.0012 40.9383 32.1185 41.2157 32.3532 41.429C32.5985 41.6317 32.9132 41.7917 33.2972 41.909C33.6919 42.0263 34.1292 42.1437 34.6092 42.261C35.0892 42.3677 35.5639 42.4903 36.0332 42.629C36.5132 42.7677 36.9452 42.949 37.3292 43.173C37.7239 43.397 38.0385 43.701 38.2732 44.085C38.5185 44.469 38.6412 44.9543 38.6412 45.541C38.6412 46.1383 38.4759 46.693 38.1452 47.205C37.8252 47.7063 37.3292 48.1117 36.6572 48.421C35.9852 48.7197 35.1372 48.869 34.1132 48.869ZM43.7277 48.821C42.789 48.821 42.0637 48.581 41.5517 48.101C41.0397 47.6103 40.7837 46.8903 40.7837 45.941V38.277H42.7837V45.893C42.7837 46.2983 42.885 46.613 43.0877 46.837C43.301 47.061 43.5944 47.173 43.9677 47.173C44.4157 47.173 44.789 47.0557 45.0877 46.821L45.6477 48.245C45.413 48.437 45.125 48.581 44.7837 48.677C44.4424 48.773 44.0904 48.821 43.7277 48.821ZM39.3757 41.829V40.229H45.0717V41.829H39.3757ZM50.8517 48.821C49.977 48.821 49.1984 48.6343 48.5157 48.261C47.833 47.877 47.2944 47.3543 46.8997 46.693C46.505 46.0317 46.3077 45.2797 46.3077 44.437C46.3077 43.5837 46.505 42.8317 46.8997 42.181C47.2944 41.5197 47.833 41.0023 48.5157 40.629C49.1984 40.2557 49.977 40.069 50.8517 40.069C51.737 40.069 52.521 40.2557 53.2037 40.629C53.897 41.0023 54.4357 41.5143 54.8197 42.165C55.2144 42.8157 55.4117 43.573 55.4117 44.437C55.4117 45.2797 55.2144 46.0317 54.8197 46.693C54.4357 47.3543 53.897 47.877 53.2037 48.261C52.521 48.6343 51.737 48.821 50.8517 48.821ZM50.8517 47.109C51.3424 47.109 51.7797 47.0023 52.1637 46.789C52.5477 46.5757 52.8464 46.2663 53.0597 45.861C53.2837 45.4557 53.3957 44.981 53.3957 44.437C53.3957 43.8823 53.2837 43.4077 53.0597 43.013C52.8464 42.6077 52.5477 42.2983 52.1637 42.085C51.7797 41.8717 51.3477 41.765 50.8677 41.765C50.377 41.765 49.9397 41.8717 49.5557 42.085C49.1824 42.2983 48.8837 42.6077 48.6597 43.013C48.4357 43.4077 48.3237 43.8823 48.3237 44.437C48.3237 44.981 48.4357 45.4557 48.6597 45.861C48.8837 46.2663 49.1824 46.5757 49.5557 46.789C49.9397 47.0023 50.3717 47.109 50.8517 47.109ZM61.2442 48.821C60.3482 48.821 59.5482 48.6343 58.8442 48.261C58.1509 47.877 57.6069 47.3543 57.2122 46.693C56.8175 46.0317 56.6202 45.2797 56.6202 44.437C56.6202 43.5837 56.8175 42.8317 57.2122 42.181C57.6069 41.5197 58.1509 41.0023 58.8442 40.629C59.5482 40.2557 60.3482 40.069 61.2442 40.069C62.0762 40.069 62.8069 40.2397 63.4362 40.581C64.0762 40.9117 64.5615 41.4023 64.8922 42.053L63.3562 42.949C63.1002 42.5437 62.7855 42.245 62.4122 42.053C62.0495 41.861 61.6549 41.765 61.2282 41.765C60.7375 41.765 60.2949 41.8717 59.9002 42.085C59.5055 42.2983 59.1962 42.6077 58.9722 43.013C58.7482 43.4077 58.6362 43.8823 58.6362 44.437C58.6362 44.9917 58.7482 45.4717 58.9722 45.877C59.1962 46.2717 59.5055 46.5757 59.9002 46.789C60.2949 47.0023 60.7375 47.109 61.2282 47.109C61.6549 47.109 62.0495 47.013 62.4122 46.821C62.7855 46.629 63.1002 46.3303 63.3562 45.925L64.8922 46.821C64.5615 47.461 64.0762 47.957 63.4362 48.309C62.8069 48.6503 62.0762 48.821 61.2442 48.821ZM68.175 46.805L68.223 44.293L72.687 40.165H75.087L71.295 43.973L70.239 44.853L68.175 46.805ZM66.543 48.709V36.837H68.543V48.709H66.543ZM72.991 48.709L69.871 44.853L71.135 43.253L75.423 48.709H72.991ZM81.3287 48.709V37.509H85.9367C86.9287 37.509 87.7767 37.669 88.4807 37.989C89.1954 38.309 89.7447 38.7677 90.1287 39.365C90.5127 39.9623 90.7047 40.6717 90.7047 41.493C90.7047 42.3143 90.5127 43.0237 90.1287 43.621C89.7447 44.2077 89.1954 44.661 88.4807 44.981C87.7767 45.2903 86.9287 45.445 85.9367 45.445H82.4807L83.4087 44.501V48.709H81.3287ZM88.6567 48.709L85.8247 44.645H88.0487L90.8967 48.709H88.6567ZM83.4087 44.725L82.4807 43.733H85.8407C86.758 43.733 87.446 43.5357 87.9047 43.141C88.374 42.7463 88.6087 42.197 88.6087 41.493C88.6087 40.7783 88.374 40.229 87.9047 39.845C87.446 39.461 86.758 39.269 85.8407 39.269H82.4807L83.4087 38.245V44.725ZM96.8558 48.821C95.9065 48.821 95.0745 48.6343 94.3598 48.261C93.6558 47.877 93.1065 47.3543 92.7118 46.693C92.3278 46.0317 92.1358 45.2797 92.1358 44.437C92.1358 43.5837 92.3225 42.8317 92.6958 42.181C93.0798 41.5197 93.6025 41.0023 94.2638 40.629C94.9358 40.2557 95.6985 40.069 96.5518 40.069C97.3838 40.069 98.1252 40.2503 98.7758 40.613C99.4265 40.9757 99.9385 41.4877 100.312 42.149C100.685 42.8103 100.872 43.589 100.872 44.485C100.872 44.5703 100.866 44.6663 100.856 44.773C100.856 44.8797 100.85 44.981 100.84 45.077H93.7198V43.749H99.7838L98.9998 44.165C99.0105 43.6743 98.9092 43.2423 98.6958 42.869C98.4825 42.4957 98.1892 42.2023 97.8158 41.989C97.4532 41.7757 97.0318 41.669 96.5518 41.669C96.0612 41.669 95.6292 41.7757 95.2558 41.989C94.8932 42.2023 94.6052 42.501 94.3918 42.885C94.1892 43.2583 94.0878 43.701 94.0878 44.213V44.533C94.0878 45.045 94.2052 45.4983 94.4398 45.893C94.6745 46.2877 95.0052 46.5917 95.4318 46.805C95.8585 47.0183 96.3492 47.125 96.9038 47.125C97.3838 47.125 97.8158 47.0503 98.1998 46.901C98.5838 46.7517 98.9252 46.517 99.2238 46.197L100.296 47.429C99.9118 47.877 99.4265 48.2237 98.8398 48.469C98.2638 48.7037 97.6025 48.821 96.8558 48.821ZM107.529 48.821C106.836 48.821 106.201 48.661 105.625 48.341C105.06 48.021 104.606 47.541 104.265 46.901C103.934 46.2503 103.769 45.429 103.769 44.437C103.769 43.4343 103.929 42.613 104.249 41.973C104.58 41.333 105.028 40.8583 105.593 40.549C106.158 40.229 106.804 40.069 107.529 40.069C108.372 40.069 109.113 40.2503 109.753 40.613C110.404 40.9757 110.916 41.4823 111.289 42.133C111.673 42.7837 111.865 43.5517 111.865 44.437C111.865 45.3223 111.673 46.0957 111.289 46.757C110.916 47.4077 110.404 47.9143 109.753 48.277C109.113 48.6397 108.372 48.821 107.529 48.821ZM102.793 51.813V40.165H104.697V42.181L104.633 44.453L104.793 46.725V51.813H102.793ZM107.305 47.109C107.785 47.109 108.212 47.0023 108.585 46.789C108.969 46.5757 109.273 46.2663 109.497 45.861C109.721 45.4557 109.833 44.981 109.833 44.437C109.833 43.8823 109.721 43.4077 109.497 43.013C109.273 42.6077 108.969 42.2983 108.585 42.085C108.212 41.8717 107.785 41.765 107.305 41.765C106.825 41.765 106.393 41.8717 106.009 42.085C105.625 42.2983 105.321 42.6077 105.097 43.013C104.873 43.4077 104.761 43.8823 104.761 44.437C104.761 44.981 104.873 45.4557 105.097 45.861C105.321 46.2663 105.625 46.5757 106.009 46.789C106.393 47.0023 106.825 47.109 107.305 47.109ZM117.602 48.821C116.727 48.821 115.948 48.6343 115.266 48.261C114.583 47.877 114.044 47.3543 113.65 46.693C113.255 46.0317 113.058 45.2797 113.058 44.437C113.058 43.5837 113.255 42.8317 113.65 42.181C114.044 41.5197 114.583 41.0023 115.266 40.629C115.948 40.2557 116.727 40.069 117.602 40.069C118.487 40.069 119.271 40.2557 119.954 40.629C120.647 41.0023 121.186 41.5143 121.57 42.165C121.964 42.8157 122.162 43.573 122.162 44.437C122.162 45.2797 121.964 46.0317 121.57 46.693C121.186 47.3543 120.647 47.877 119.954 48.261C119.271 48.6343 118.487 48.821 117.602 48.821ZM117.602 47.109C118.092 47.109 118.53 47.0023 118.914 46.789C119.298 46.5757 119.596 46.2663 119.81 45.861C120.034 45.4557 120.146 44.981 120.146 44.437C120.146 43.8823 120.034 43.4077 119.81 43.013C119.596 42.6077 119.298 42.2983 118.914 42.085C118.53 41.8717 118.098 41.765 117.618 41.765C117.127 41.765 116.69 41.8717 116.306 42.085C115.932 42.2983 115.634 42.6077 115.41 43.013C115.186 43.4077 115.074 43.8823 115.074 44.437C115.074 44.981 115.186 45.4557 115.41 45.861C115.634 46.2663 115.932 46.5757 116.306 46.789C116.69 47.0023 117.122 47.109 117.602 47.109ZM124.074 48.709V40.165H125.978V42.517L125.754 41.829C126.01 41.253 126.41 40.8157 126.954 40.517C127.509 40.2183 128.197 40.069 129.018 40.069V41.973C128.933 41.9517 128.853 41.941 128.778 41.941C128.704 41.9303 128.629 41.925 128.554 41.925C127.797 41.925 127.194 42.149 126.746 42.597C126.298 43.0343 126.074 43.6903 126.074 44.565V48.709H124.074ZM134.243 48.821C133.305 48.821 132.579 48.581 132.067 48.101C131.555 47.6103 131.299 46.8903 131.299 45.941V38.277H133.299V45.893C133.299 46.2983 133.401 46.613 133.603 46.837C133.817 47.061 134.11 47.173 134.483 47.173C134.931 47.173 135.305 47.0557 135.603 46.821L136.163 48.245C135.929 48.437 135.641 48.581 135.299 48.677C134.958 48.773 134.606 48.821 134.243 48.821ZM129.891 41.829V40.229H135.587V41.829H129.891Z" fill="black"/>
<g clip-path="url(#clip0_9_22054)">
<rect width="15.4255" height="15.4255" transform="translate(560.738 34.9961)" fill="white" fill-opacity="0.01"/>
<g clip-path="url(#clip1_9_22054)">
<path d="M568.451 50.4206C572.71 50.4206 576.163 46.9675 576.163 42.7078C576.163 38.4482 572.71 34.9951 568.451 34.9951C564.191 34.9951 560.738 38.4482 560.738 42.7078C560.738 46.9675 564.191 50.4206 568.451 50.4206Z" fill="#04B4FC"/>
</g>
</g>
<path d="M585.014 46.805C584.374 46.805 583.762 46.709 583.178 46.517C582.594 46.317 582.134 46.061 581.798 45.749L582.242 44.813C582.562 45.093 582.97 45.325 583.466 45.509C583.962 45.693 584.478 45.785 585.014 45.785C585.502 45.785 585.898 45.729 586.202 45.617C586.506 45.505 586.73 45.353 586.874 45.161C587.018 44.961 587.09 44.737 587.09 44.489C587.09 44.201 586.994 43.969 586.802 43.793C586.618 43.617 586.374 43.477 586.07 43.373C585.774 43.261 585.446 43.165 585.086 43.085C584.726 43.005 584.362 42.913 583.994 42.809C583.634 42.697 583.302 42.557 582.998 42.389C582.702 42.221 582.462 41.997 582.278 41.717C582.094 41.429 582.002 41.061 582.002 40.613C582.002 40.181 582.114 39.785 582.338 39.425C582.57 39.057 582.922 38.765 583.394 38.549C583.874 38.325 584.482 38.213 585.218 38.213C585.706 38.213 586.19 38.277 586.67 38.405C587.15 38.533 587.566 38.717 587.918 38.957L587.522 39.917C587.162 39.677 586.782 39.505 586.382 39.401C585.982 39.289 585.594 39.233 585.218 39.233C584.746 39.233 584.358 39.293 584.054 39.413C583.75 39.533 583.526 39.693 583.382 39.893C583.246 40.093 583.178 40.317 583.178 40.565C583.178 40.861 583.27 41.097 583.454 41.273C583.646 41.449 583.89 41.589 584.186 41.693C584.49 41.797 584.822 41.893 585.182 41.981C585.542 42.061 585.902 42.153 586.262 42.257C586.63 42.361 586.962 42.497 587.258 42.665C587.562 42.833 587.806 43.057 587.99 43.337C588.174 43.617 588.266 43.977 588.266 44.417C588.266 44.841 588.15 45.237 587.918 45.605C587.686 45.965 587.326 46.257 586.838 46.481C586.358 46.697 585.75 46.805 585.014 46.805ZM592.035 46.781C591.395 46.781 590.899 46.609 590.547 46.265C590.195 45.921 590.019 45.429 590.019 44.789V38.957H591.171V44.741C591.171 45.085 591.255 45.349 591.423 45.533C591.599 45.717 591.847 45.809 592.167 45.809C592.527 45.809 592.827 45.709 593.067 45.509L593.427 46.337C593.251 46.489 593.039 46.601 592.791 46.673C592.551 46.745 592.299 46.781 592.035 46.781ZM588.939 41.297V40.349H592.995V41.297H588.939ZM597.333 46.781C596.693 46.781 596.125 46.641 595.629 46.361C595.133 46.081 594.741 45.697 594.453 45.209C594.165 44.713 594.021 44.153 594.021 43.529C594.021 42.897 594.165 42.337 594.453 41.849C594.741 41.361 595.133 40.981 595.629 40.709C596.125 40.429 596.693 40.289 597.333 40.289C597.965 40.289 598.529 40.429 599.025 40.709C599.529 40.981 599.921 41.361 600.201 41.849C600.489 42.329 600.633 42.889 600.633 43.529C600.633 44.161 600.489 44.721 600.201 45.209C599.921 45.697 599.529 46.081 599.025 46.361C598.529 46.641 597.965 46.781 597.333 46.781ZM597.333 45.773C597.741 45.773 598.105 45.681 598.425 45.497C598.753 45.313 599.009 45.053 599.193 44.717C599.377 44.373 599.469 43.977 599.469 43.529C599.469 43.073 599.377 42.681 599.193 42.353C599.009 42.017 598.753 41.757 598.425 41.573C598.105 41.389 597.741 41.297 597.333 41.297C596.925 41.297 596.561 41.389 596.241 41.573C595.921 41.757 595.665 42.017 595.473 42.353C595.281 42.681 595.185 43.073 595.185 43.529C595.185 43.977 595.281 44.373 595.473 44.717C595.665 45.053 595.921 45.313 596.241 45.497C596.561 45.681 596.925 45.773 597.333 45.773ZM604.998 46.781C604.35 46.781 603.77 46.641 603.258 46.361C602.754 46.081 602.358 45.697 602.07 45.209C601.782 44.721 601.638 44.161 601.638 43.529C601.638 42.897 601.782 42.337 602.07 41.849C602.358 41.361 602.754 40.981 603.258 40.709C603.77 40.429 604.35 40.289 604.998 40.289C605.574 40.289 606.086 40.405 606.534 40.637C606.99 40.861 607.342 41.197 607.59 41.645L606.714 42.209C606.506 41.897 606.25 41.669 605.946 41.525C605.65 41.373 605.33 41.297 604.986 41.297C604.57 41.297 604.198 41.389 603.87 41.573C603.542 41.757 603.282 42.017 603.09 42.353C602.898 42.681 602.802 43.073 602.802 43.529C602.802 43.985 602.898 44.381 603.09 44.717C603.282 45.053 603.542 45.313 603.87 45.497C604.198 45.681 604.57 45.773 604.986 45.773C605.33 45.773 605.65 45.701 605.946 45.557C606.25 45.405 606.506 45.173 606.714 44.861L607.59 45.413C607.342 45.853 606.99 46.193 606.534 46.433C606.086 46.665 605.574 46.781 604.998 46.781ZM609.935 45.173L609.959 43.697L613.619 40.349H615.011L612.203 43.109L611.579 43.637L609.935 45.173ZM608.999 46.709V37.805H610.151V46.709H608.999ZM613.859 46.709L611.363 43.613L612.107 42.689L615.275 46.709H613.859ZM619.784 46.709V38.309H620.984V46.709H619.784ZM626.727 40.289C627.247 40.289 627.703 40.389 628.095 40.589C628.495 40.789 628.807 41.093 629.031 41.501C629.255 41.909 629.367 42.425 629.367 43.049V46.709H628.215V43.181C628.215 42.565 628.063 42.101 627.759 41.789C627.463 41.477 627.043 41.321 626.499 41.321C626.091 41.321 625.735 41.401 625.431 41.561C625.127 41.721 624.891 41.957 624.723 42.269C624.563 42.581 624.483 42.969 624.483 43.433V46.709H623.331V40.349H624.435V42.065L624.255 41.609C624.463 41.193 624.783 40.869 625.215 40.637C625.647 40.405 626.151 40.289 626.727 40.289Z" fill="#04B4FC"/>
<g clip-path="url(#clip2_9_22054)">
<rect width="15.4255" height="15.4255" transform="translate(669.012 34.9961)" fill="white" fill-opacity="0.01"/>
<g clip-path="url(#clip3_9_22054)">
<path d="M676.724 50.4206C680.984 50.4206 684.437 46.9675 684.437 42.7078C684.437 38.4482 680.984 34.9951 676.724 34.9951C672.465 34.9951 669.012 38.4482 669.012 42.7078C669.012 46.9675 672.465 50.4206 676.724 50.4206Z" fill="#6C11D9"/>
</g>
</g>
<path d="M693.288 46.805C692.648 46.805 692.036 46.709 691.452 46.517C690.868 46.317 690.408 46.061 690.072 45.749L690.516 44.813C690.836 45.093 691.244 45.325 691.74 45.509C692.236 45.693 692.752 45.785 693.288 45.785C693.776 45.785 694.172 45.729 694.476 45.617C694.78 45.505 695.004 45.353 695.148 45.161C695.292 44.961 695.364 44.737 695.364 44.489C695.364 44.201 695.268 43.969 695.076 43.793C694.892 43.617 694.648 43.477 694.344 43.373C694.048 43.261 693.72 43.165 693.36 43.085C693 43.005 692.636 42.913 692.268 42.809C691.908 42.697 691.576 42.557 691.272 42.389C690.976 42.221 690.736 41.997 690.552 41.717C690.368 41.429 690.276 41.061 690.276 40.613C690.276 40.181 690.388 39.785 690.612 39.425C690.844 39.057 691.196 38.765 691.668 38.549C692.148 38.325 692.756 38.213 693.492 38.213C693.98 38.213 694.464 38.277 694.944 38.405C695.424 38.533 695.84 38.717 696.192 38.957L695.796 39.917C695.436 39.677 695.056 39.505 694.656 39.401C694.256 39.289 693.868 39.233 693.492 39.233C693.02 39.233 692.632 39.293 692.328 39.413C692.024 39.533 691.8 39.693 691.656 39.893C691.52 40.093 691.452 40.317 691.452 40.565C691.452 40.861 691.544 41.097 691.728 41.273C691.92 41.449 692.164 41.589 692.46 41.693C692.764 41.797 693.096 41.893 693.456 41.981C693.816 42.061 694.176 42.153 694.536 42.257C694.904 42.361 695.236 42.497 695.532 42.665C695.836 42.833 696.08 43.057 696.264 43.337C696.448 43.617 696.54 43.977 696.54 44.417C696.54 44.841 696.424 45.237 696.192 45.605C695.96 45.965 695.6 46.257 695.112 46.481C694.632 46.697 694.024 46.805 693.288 46.805ZM700.309 46.781C699.669 46.781 699.173 46.609 698.821 46.265C698.469 45.921 698.293 45.429 698.293 44.789V38.957H699.445V44.741C699.445 45.085 699.529 45.349 699.697 45.533C699.873 45.717 700.121 45.809 700.441 45.809C700.801 45.809 701.101 45.709 701.341 45.509L701.701 46.337C701.525 46.489 701.313 46.601 701.065 46.673C700.825 46.745 700.573 46.781 700.309 46.781ZM697.213 41.297V40.349H701.269V41.297H697.213ZM705.607 46.781C704.967 46.781 704.399 46.641 703.903 46.361C703.407 46.081 703.015 45.697 702.727 45.209C702.439 44.713 702.295 44.153 702.295 43.529C702.295 42.897 702.439 42.337 702.727 41.849C703.015 41.361 703.407 40.981 703.903 40.709C704.399 40.429 704.967 40.289 705.607 40.289C706.239 40.289 706.803 40.429 707.299 40.709C707.803 40.981 708.195 41.361 708.475 41.849C708.763 42.329 708.907 42.889 708.907 43.529C708.907 44.161 708.763 44.721 708.475 45.209C708.195 45.697 707.803 46.081 707.299 46.361C706.803 46.641 706.239 46.781 705.607 46.781ZM705.607 45.773C706.015 45.773 706.379 45.681 706.699 45.497C707.027 45.313 707.283 45.053 707.467 44.717C707.651 44.373 707.743 43.977 707.743 43.529C707.743 43.073 707.651 42.681 707.467 42.353C707.283 42.017 707.027 41.757 706.699 41.573C706.379 41.389 706.015 41.297 705.607 41.297C705.199 41.297 704.835 41.389 704.515 41.573C704.195 41.757 703.939 42.017 703.747 42.353C703.555 42.681 703.459 43.073 703.459 43.529C703.459 43.977 703.555 44.373 703.747 44.717C703.939 45.053 704.195 45.313 704.515 45.497C704.835 45.681 705.199 45.773 705.607 45.773ZM713.272 46.781C712.624 46.781 712.044 46.641 711.532 46.361C711.028 46.081 710.632 45.697 710.344 45.209C710.056 44.721 709.912 44.161 709.912 43.529C709.912 42.897 710.056 42.337 710.344 41.849C710.632 41.361 711.028 40.981 711.532 40.709C712.044 40.429 712.624 40.289 713.272 40.289C713.848 40.289 714.36 40.405 714.808 40.637C715.264 40.861 715.616 41.197 715.864 41.645L714.988 42.209C714.78 41.897 714.524 41.669 714.22 41.525C713.924 41.373 713.604 41.297 713.26 41.297C712.844 41.297 712.472 41.389 712.144 41.573C711.816 41.757 711.556 42.017 711.364 42.353C711.172 42.681 711.076 43.073 711.076 43.529C711.076 43.985 711.172 44.381 711.364 44.717C711.556 45.053 711.816 45.313 712.144 45.497C712.472 45.681 712.844 45.773 713.26 45.773C713.604 45.773 713.924 45.701 714.22 45.557C714.524 45.405 714.78 45.173 714.988 44.861L715.864 45.413C715.616 45.853 715.264 46.193 714.808 46.433C714.36 46.665 713.848 46.781 713.272 46.781ZM718.209 45.173L718.233 43.697L721.893 40.349H723.285L720.477 43.109L719.853 43.637L718.209 45.173ZM717.273 46.709V37.805H718.425V46.709H717.273ZM722.133 46.709L719.637 43.613L720.381 42.689L723.549 46.709H722.133ZM731.85 46.805C731.21 46.805 730.614 46.697 730.062 46.481C729.518 46.265 729.046 45.965 728.646 45.581C728.246 45.189 727.934 44.733 727.71 44.213C727.486 43.693 727.374 43.125 727.374 42.509C727.374 41.893 727.486 41.325 727.71 40.805C727.934 40.285 728.246 39.833 728.646 39.449C729.046 39.057 729.518 38.753 730.062 38.537C730.606 38.321 731.202 38.213 731.85 38.213C732.49 38.213 733.078 38.321 733.614 38.537C734.158 38.745 734.63 39.045 735.03 39.437C735.438 39.821 735.75 40.273 735.966 40.793C736.19 41.313 736.302 41.885 736.302 42.509C736.302 43.133 736.19 43.705 735.966 44.225C735.75 44.745 735.438 45.201 735.03 45.593C734.63 45.977 734.158 46.277 733.614 46.493C733.078 46.701 732.49 46.805 731.85 46.805ZM731.85 45.737C732.314 45.737 732.742 45.657 733.134 45.497C733.534 45.337 733.878 45.113 734.166 44.825C734.462 44.529 734.69 44.185 734.85 43.793C735.018 43.401 735.102 42.973 735.102 42.509C735.102 42.045 735.018 41.617 734.85 41.225C734.69 40.833 734.462 40.493 734.166 40.205C733.878 39.909 733.534 39.681 733.134 39.521C732.742 39.361 732.314 39.281 731.85 39.281C731.378 39.281 730.942 39.361 730.542 39.521C730.15 39.681 729.806 39.909 729.51 40.205C729.214 40.493 728.982 40.833 728.814 41.225C728.654 41.617 728.574 42.045 728.574 42.509C728.574 42.973 728.654 43.401 728.814 43.793C728.982 44.185 729.214 44.529 729.51 44.825C729.806 45.113 730.15 45.337 730.542 45.497C730.942 45.657 731.378 45.737 731.85 45.737ZM740.644 46.781C740.1 46.781 739.62 46.681 739.204 46.481C738.796 46.281 738.476 45.977 738.244 45.569C738.02 45.153 737.908 44.633 737.908 44.009V40.349H739.06V43.877C739.06 44.501 739.208 44.969 739.504 45.281C739.808 45.593 740.232 45.749 740.776 45.749C741.176 45.749 741.524 45.669 741.82 45.509C742.116 45.341 742.344 45.101 742.504 44.789C742.664 44.469 742.744 44.085 742.744 43.637V40.349H743.896V46.709H742.804V44.993L742.984 45.449C742.776 45.873 742.464 46.201 742.048 46.433C741.632 46.665 741.164 46.781 740.644 46.781ZM748.274 46.781C747.634 46.781 747.138 46.609 746.786 46.265C746.434 45.921 746.258 45.429 746.258 44.789V38.957H747.41V44.741C747.41 45.085 747.494 45.349 747.662 45.533C747.838 45.717 748.086 45.809 748.406 45.809C748.766 45.809 749.066 45.709 749.306 45.509L749.666 46.337C749.49 46.489 749.278 46.601 749.03 46.673C748.79 46.745 748.538 46.781 748.274 46.781ZM745.178 41.297V40.349H749.234V41.297H745.178Z" fill="#6C11D9"/>
<path d="M29.6445 91.8486V90.9162L33.5523 87.1456C33.8997 86.8165 34.1556 86.5286 34.3202 86.2818C34.4938 86.0258 34.6081 85.7927 34.6629 85.5825C34.7269 85.3631 34.7589 85.1528 34.7589 84.9517C34.7589 84.4581 34.5852 84.0696 34.2379 83.7863C33.8905 83.5029 33.3832 83.3612 32.7159 83.3612C32.204 83.3612 31.7424 83.448 31.331 83.6217C30.9197 83.7863 30.5632 84.0468 30.2616 84.4033L29.3292 83.5943C29.6948 83.1281 30.1839 82.7716 30.7963 82.5248C31.4179 82.2689 32.0989 82.1409 32.8393 82.1409C33.5066 82.1409 34.0871 82.2506 34.5807 82.47C35.0743 82.6802 35.4536 82.9864 35.7187 83.3886C35.993 83.7908 36.1301 84.2662 36.1301 84.8146C36.1301 85.1254 36.0889 85.4316 36.0067 85.7333C35.9244 86.035 35.769 86.3549 35.5405 86.6931C35.312 87.0313 34.9829 87.4107 34.5533 87.8312L31.0705 91.1905L30.7415 90.6557H36.5414V91.8486H29.6445ZM40.7676 91.9583C40.0911 91.9583 39.433 91.8532 38.7931 91.643C38.1624 91.4327 37.6459 91.1493 37.2437 90.7928L37.8744 89.7096C38.1944 90.0113 38.6103 90.2581 39.1222 90.4501C39.6341 90.642 40.178 90.738 40.7539 90.738C41.4851 90.738 42.0473 90.5826 42.4404 90.2718C42.8334 89.961 43.03 89.5451 43.03 89.0241C43.03 88.6676 42.9431 88.3568 42.7695 88.0917C42.5958 87.8266 42.2941 87.6255 41.8645 87.4884C41.444 87.3421 40.8636 87.269 40.1231 87.269H37.943L38.4503 82.2506H43.8664V83.4435H38.9577L39.6707 82.7716L39.273 86.7342L38.56 86.0761H40.4111C41.3709 86.0761 42.1433 86.1995 42.7283 86.4463C43.3133 86.6931 43.7384 87.0359 44.0035 87.4747C44.2686 87.9043 44.4011 88.4025 44.4011 88.9692C44.4011 89.5177 44.2686 90.0204 44.0035 90.4775C43.7384 90.9254 43.3362 91.2865 42.7969 91.5607C42.2667 91.8258 41.5903 91.9583 40.7676 91.9583ZM49.4637 91.9583C48.7141 91.9583 48.0422 91.7664 47.4481 91.3824C46.8631 90.9985 46.3969 90.4409 46.0495 89.7096C45.7113 88.9784 45.5422 88.0917 45.5422 87.0496C45.5422 86.0075 45.7113 85.1208 46.0495 84.3896C46.3969 83.6583 46.8631 83.1007 47.4481 82.7168C48.0422 82.3328 48.7141 82.1409 49.4637 82.1409C50.2041 82.1409 50.8714 82.3328 51.4656 82.7168C52.0597 83.1007 52.5259 83.6583 52.8641 84.3896C53.2023 85.1208 53.3715 86.0075 53.3715 87.0496C53.3715 88.0917 53.2023 88.9784 52.8641 89.7096C52.5259 90.4409 52.0597 90.9985 51.4656 91.3824C50.8714 91.7664 50.2041 91.9583 49.4637 91.9583ZM49.4637 90.738C49.9664 90.738 50.4052 90.6009 50.78 90.3267C51.1639 90.0524 51.461 89.6411 51.6712 89.0926C51.8906 88.5442 52.0003 87.8632 52.0003 87.0496C52.0003 86.2361 51.8906 85.555 51.6712 85.0066C51.461 84.4581 51.1639 84.0468 50.78 83.7725C50.4052 83.4983 49.9664 83.3612 49.4637 83.3612C48.9609 83.3612 48.5176 83.4983 48.1337 83.7725C47.7497 84.0468 47.4481 84.4581 47.2287 85.0066C47.0185 85.555 46.9133 86.2361 46.9133 87.0496C46.9133 87.8632 47.0185 88.5442 47.2287 89.0926C47.4481 89.6411 47.7497 90.0524 48.1337 90.3267C48.5176 90.6009 48.9609 90.738 49.4637 90.738ZM58.6091 91.9583C57.8596 91.9583 57.1877 91.7664 56.5936 91.3824C56.0085 90.9985 55.5423 90.4409 55.195 89.7096C54.8568 88.9784 54.6877 88.0917 54.6877 87.0496C54.6877 86.0075 54.8568 85.1208 55.195 84.3896C55.5423 83.6583 56.0085 83.1007 56.5936 82.7168C57.1877 82.3328 57.8596 82.1409 58.6091 82.1409C59.3496 82.1409 60.0169 82.3328 60.611 82.7168C61.2052 83.1007 61.6714 83.6583 62.0096 84.3896C62.3478 85.1208 62.5169 86.0075 62.5169 87.0496C62.5169 88.0917 62.3478 88.9784 62.0096 89.7096C61.6714 90.4409 61.2052 90.9985 60.611 91.3824C60.0169 91.7664 59.3496 91.9583 58.6091 91.9583ZM58.6091 90.738C59.1119 90.738 59.5507 90.6009 59.9255 90.3267C60.3094 90.0524 60.6065 89.6411 60.8167 89.0926C61.0361 88.5442 61.1458 87.8632 61.1458 87.0496C61.1458 86.2361 61.0361 85.555 60.8167 85.0066C60.6065 84.4581 60.3094 84.0468 59.9255 83.7725C59.5507 83.4983 59.1119 83.3612 58.6091 83.3612C58.1064 83.3612 57.6631 83.4983 57.2791 83.7725C56.8952 84.0468 56.5936 84.4581 56.3742 85.0066C56.1639 85.555 56.0588 86.2361 56.0588 87.0496C56.0588 87.8632 56.1639 88.5442 56.3742 89.0926C56.5936 89.6411 56.8952 90.0524 57.2791 90.3267C57.6631 90.6009 58.1064 90.738 58.6091 90.738ZM67.7546 91.9583C67.0051 91.9583 66.3332 91.7664 65.739 91.3824C65.154 90.9985 64.6878 90.4409 64.3405 89.7096C64.0022 88.9784 63.8331 88.0917 63.8331 87.0496C63.8331 86.0075 64.0022 85.1208 64.3405 84.3896C64.6878 83.6583 65.154 83.1007 65.739 82.7168C66.3332 82.3328 67.0051 82.1409 67.7546 82.1409C68.495 82.1409 69.1623 82.3328 69.7565 82.7168C70.3507 83.1007 70.8169 83.6583 71.1551 84.3896C71.4933 85.1208 71.6624 86.0075 71.6624 87.0496C71.6624 88.0917 71.4933 88.9784 71.1551 89.7096C70.8169 90.4409 70.3507 90.9985 69.7565 91.3824C69.1623 91.7664 68.495 91.9583 67.7546 91.9583ZM67.7546 90.738C68.2574 90.738 68.6961 90.6009 69.0709 90.3267C69.4548 90.0524 69.7519 89.6411 69.9622 89.0926C70.1816 88.5442 70.2912 87.8632 70.2912 87.0496C70.2912 86.2361 70.1816 85.555 69.9622 85.0066C69.7519 84.4581 69.4548 84.0468 69.0709 83.7725C68.6961 83.4983 68.2574 83.3612 67.7546 83.3612C67.2519 83.3612 66.8085 83.4983 66.4246 83.7725C66.0407 84.0468 65.739 84.4581 65.5196 85.0066C65.3094 85.555 65.2043 86.2361 65.2043 87.0496C65.2043 87.8632 65.3094 88.5442 65.5196 89.0926C65.739 89.6411 66.0407 90.0524 66.4246 90.3267C66.8085 90.6009 67.2519 90.738 67.7546 90.738Z" fill="#5C6F88"/>
<path d="M29.6445 141.986V141.053L33.5523 137.283C33.8997 136.954 34.1556 136.666 34.3202 136.419C34.4938 136.163 34.6081 135.93 34.6629 135.72C34.7269 135.5 34.7589 135.29 34.7589 135.089C34.7589 134.595 34.5852 134.207 34.2379 133.923C33.8905 133.64 33.3832 133.498 32.7159 133.498C32.204 133.498 31.7424 133.585 31.331 133.759C30.9197 133.923 30.5632 134.184 30.2616 134.54L29.3292 133.732C29.6948 133.265 30.1839 132.909 30.7963 132.662C31.4179 132.406 32.0989 132.278 32.8393 132.278C33.5066 132.278 34.0871 132.388 34.5807 132.607C35.0743 132.817 35.4536 133.124 35.7187 133.526C35.993 133.928 36.1301 134.403 36.1301 134.952C36.1301 135.263 36.0889 135.569 36.0067 135.871C35.9244 136.172 35.769 136.492 35.5405 136.83C35.312 137.169 34.9829 137.548 34.5533 137.968L31.0705 141.328L30.7415 140.793H36.5414V141.986H29.6445ZM41.5769 142.096C40.8273 142.096 40.1554 141.904 39.5613 141.52C38.9763 141.136 38.5101 140.578 38.1627 139.847C37.8245 139.116 37.6554 138.229 37.6554 137.187C37.6554 136.145 37.8245 135.258 38.1627 134.527C38.5101 133.795 38.9763 133.238 39.5613 132.854C40.1554 132.47 40.8273 132.278 41.5769 132.278C42.3173 132.278 42.9846 132.47 43.5788 132.854C44.1729 133.238 44.6391 133.795 44.9773 134.527C45.3155 135.258 45.4847 136.145 45.4847 137.187C45.4847 138.229 45.3155 139.116 44.9773 139.847C44.6391 140.578 44.1729 141.136 43.5788 141.52C42.9846 141.904 42.3173 142.096 41.5769 142.096ZM41.5769 140.875C42.0796 140.875 42.5184 140.738 42.8932 140.464C43.2771 140.19 43.5742 139.778 43.7844 139.23C44.0038 138.681 44.1135 138 44.1135 137.187C44.1135 136.373 44.0038 135.692 43.7844 135.144C43.5742 134.595 43.2771 134.184 42.8932 133.91C42.5184 133.636 42.0796 133.498 41.5769 133.498C41.0741 133.498 40.6308 133.636 40.2469 133.91C39.8629 134.184 39.5613 134.595 39.3419 135.144C39.1317 135.692 39.0265 136.373 39.0265 137.187C39.0265 138 39.1317 138.681 39.3419 139.23C39.5613 139.778 39.8629 140.19 40.2469 140.464C40.6308 140.738 41.0741 140.875 41.5769 140.875ZM50.7223 142.096C49.9728 142.096 49.3009 141.904 48.7068 141.52C48.1217 141.136 47.6555 140.578 47.3082 139.847C46.97 139.116 46.8009 138.229 46.8009 137.187C46.8009 136.145 46.97 135.258 47.3082 134.527C47.6555 133.795 48.1217 133.238 48.7068 132.854C49.3009 132.47 49.9728 132.278 50.7223 132.278C51.4628 132.278 52.1301 132.47 52.7242 132.854C53.3184 133.238 53.7846 133.795 54.1228 134.527C54.461 135.258 54.6301 136.145 54.6301 137.187C54.6301 138.229 54.461 139.116 54.1228 139.847C53.7846 140.578 53.3184 141.136 52.7242 141.52C52.1301 141.904 51.4628 142.096 50.7223 142.096ZM50.7223 140.875C51.2251 140.875 51.6639 140.738 52.0387 140.464C52.4226 140.19 52.7197 139.778 52.9299 139.23C53.1493 138.681 53.259 138 53.259 137.187C53.259 136.373 53.1493 135.692 52.9299 135.144C52.7197 134.595 52.4226 134.184 52.0387 133.91C51.6639 133.636 51.2251 133.498 50.7223 133.498C50.2196 133.498 49.7763 133.636 49.3923 133.91C49.0084 134.184 48.7068 134.595 48.4874 135.144C48.2771 135.692 48.172 136.373 48.172 137.187C48.172 138 48.2771 138.681 48.4874 139.23C48.7068 139.778 49.0084 140.19 49.3923 140.464C49.7763 140.738 50.2196 140.875 50.7223 140.875ZM59.8678 142.096C59.1183 142.096 58.4464 141.904 57.8522 141.52C57.2672 141.136 56.801 140.578 56.4537 139.847C56.1154 139.116 55.9463 138.229 55.9463 137.187C55.9463 136.145 56.1154 135.258 56.4537 134.527C56.801 133.795 57.2672 133.238 57.8522 132.854C58.4464 132.47 59.1183 132.278 59.8678 132.278C60.6082 132.278 61.2755 132.47 61.8697 132.854C62.4639 133.238 62.9301 133.795 63.2683 134.527C63.6065 135.258 63.7756 136.145 63.7756 137.187C63.7756 138.229 63.6065 139.116 63.2683 139.847C62.9301 140.578 62.4639 141.136 61.8697 141.52C61.2755 141.904 60.6082 142.096 59.8678 142.096ZM59.8678 140.875C60.3706 140.875 60.8093 140.738 61.1841 140.464C61.568 140.19 61.8651 139.778 62.0754 139.23C62.2948 138.681 62.4045 138 62.4045 137.187C62.4045 136.373 62.2948 135.692 62.0754 135.144C61.8651 134.595 61.568 134.184 61.1841 133.91C60.8093 133.636 60.3706 133.498 59.8678 133.498C59.3651 133.498 58.9217 133.636 58.5378 133.91C58.1539 134.184 57.8522 134.595 57.6328 135.144C57.4226 135.692 57.3175 136.373 57.3175 137.187C57.3175 138 57.4226 138.681 57.6328 139.23C57.8522 139.778 58.1539 140.19 58.5378 140.464C58.9217 140.738 59.3651 140.875 59.8678 140.875ZM69.0133 142.096C68.2637 142.096 67.5919 141.904 66.9977 141.52C66.4127 141.136 65.9465 140.578 65.5991 139.847C65.2609 139.116 65.0918 138.229 65.0918 137.187C65.0918 136.145 65.2609 135.258 65.5991 134.527C65.9465 133.795 66.4127 133.238 66.9977 132.854C67.5919 132.47 68.2637 132.278 69.0133 132.278C69.7537 132.278 70.421 132.47 71.0152 132.854C71.6093 133.238 72.0755 133.795 72.4137 134.527C72.752 135.258 72.9211 136.145 72.9211 137.187C72.9211 138.229 72.752 139.116 72.4137 139.847C72.0755 140.578 71.6093 141.136 71.0152 141.52C70.421 141.904 69.7537 142.096 69.0133 142.096ZM69.0133 140.875C69.516 140.875 69.9548 140.738 70.3296 140.464C70.7135 140.19 71.0106 139.778 71.2208 139.23C71.4402 138.681 71.5499 138 71.5499 137.187C71.5499 136.373 71.4402 135.692 71.2208 135.144C71.0106 134.595 70.7135 134.184 70.3296 133.91C69.9548 133.636 69.516 133.498 69.0133 133.498C68.5105 133.498 68.0672 133.636 67.6833 133.91C67.2994 134.184 66.9977 134.595 66.7783 135.144C66.5681 135.692 66.463 136.373 66.463 137.187C66.463 138 66.5681 138.681 66.7783 139.23C66.9977 139.778 67.2994 140.19 67.6833 140.464C68.0672 140.738 68.5105 140.875 69.0133 140.875Z" fill="#5C6F88"/>
<path d="M31.4133 192.123V183.073L32.0029 183.717H29.2469V182.524H32.7708V192.123H31.4133ZM37.969 192.232C37.2926 192.232 36.6344 192.127 35.9946 191.917C35.3638 191.707 34.8474 191.423 34.4452 191.067L35.0759 189.984C35.3958 190.285 35.8118 190.532 36.3236 190.724C36.8355 190.916 37.3794 191.012 37.9553 191.012C38.6866 191.012 39.2488 190.857 39.6418 190.546C40.0349 190.235 40.2314 189.819 40.2314 189.298C40.2314 188.941 40.1446 188.631 39.9709 188.366C39.7972 188.101 39.4956 187.899 39.066 187.762C38.6455 187.616 38.065 187.543 37.3246 187.543H35.1445L35.6518 182.524H41.0678V183.717H36.1591L36.8721 183.046L36.4745 187.008L35.7615 186.35H37.6125C38.5723 186.35 39.3448 186.473 39.9298 186.72C40.5148 186.967 40.9399 187.31 41.2049 187.749C41.47 188.178 41.6026 188.676 41.6026 189.243C41.6026 189.792 41.47 190.294 41.2049 190.751C40.9399 191.199 40.5377 191.56 39.9983 191.835C39.4682 192.1 38.7917 192.232 37.969 192.232ZM46.6651 192.232C45.9156 192.232 45.2437 192.04 44.6495 191.656C44.0645 191.272 43.5983 190.715 43.251 189.984C42.9127 189.252 42.7436 188.366 42.7436 187.324C42.7436 186.281 42.9127 185.395 43.251 184.663C43.5983 183.932 44.0645 183.375 44.6495 182.991C45.2437 182.607 45.9156 182.415 46.6651 182.415C47.4056 182.415 48.0728 182.607 48.667 182.991C49.2612 183.375 49.7274 183.932 50.0656 184.663C50.4038 185.395 50.5729 186.281 50.5729 187.324C50.5729 188.366 50.4038 189.252 50.0656 189.984C49.7274 190.715 49.2612 191.272 48.667 191.656C48.0728 192.04 47.4056 192.232 46.6651 192.232ZM46.6651 191.012C47.1679 191.012 47.6067 190.875 47.9814 190.601C48.3654 190.326 48.6624 189.915 48.8727 189.367C49.0921 188.818 49.2018 188.137 49.2018 187.324C49.2018 186.51 49.0921 185.829 48.8727 185.281C48.6624 184.732 48.3654 184.321 47.9814 184.046C47.6067 183.772 47.1679 183.635 46.6651 183.635C46.1624 183.635 45.719 183.772 45.3351 184.046C44.9512 184.321 44.6495 184.732 44.4302 185.281C44.2199 185.829 44.1148 186.51 44.1148 187.324C44.1148 188.137 44.2199 188.818 44.4302 189.367C44.6495 189.915 44.9512 190.326 45.3351 190.601C45.719 190.875 46.1624 191.012 46.6651 191.012ZM55.8106 192.232C55.061 192.232 54.3892 192.04 53.795 191.656C53.21 191.272 52.7438 190.715 52.3964 189.984C52.0582 189.252 51.8891 188.366 51.8891 187.324C51.8891 186.281 52.0582 185.395 52.3964 184.663C52.7438 183.932 53.21 183.375 53.795 182.991C54.3892 182.607 55.061 182.415 55.8106 182.415C56.551 182.415 57.2183 182.607 57.8125 182.991C58.4067 183.375 58.8728 183.932 59.2111 184.663C59.5493 185.395 59.7184 186.281 59.7184 187.324C59.7184 188.366 59.5493 189.252 59.2111 189.984C58.8728 190.715 58.4067 191.272 57.8125 191.656C57.2183 192.04 56.551 192.232 55.8106 192.232ZM55.8106 191.012C56.3134 191.012 56.7521 190.875 57.1269 190.601C57.5108 190.326 57.8079 189.915 58.0182 189.367C58.2375 188.818 58.3472 188.137 58.3472 187.324C58.3472 186.51 58.2375 185.829 58.0182 185.281C57.8079 184.732 57.5108 184.321 57.1269 184.046C56.7521 183.772 56.3134 183.635 55.8106 183.635C55.3078 183.635 54.8645 183.772 54.4806 184.046C54.0967 184.321 53.795 184.732 53.5756 185.281C53.3654 185.829 53.2603 186.51 53.2603 187.324C53.2603 188.137 53.3654 188.818 53.5756 189.367C53.795 189.915 54.0967 190.326 54.4806 190.601C54.8645 190.875 55.3078 191.012 55.8106 191.012ZM64.9561 192.232C64.2065 192.232 63.5346 192.04 62.9405 191.656C62.3555 191.272 61.8893 190.715 61.5419 189.984C61.2037 189.252 61.0346 188.366 61.0346 187.324C61.0346 186.281 61.2037 185.395 61.5419 184.663C61.8893 183.932 62.3555 183.375 62.9405 182.991C63.5346 182.607 64.2065 182.415 64.9561 182.415C65.6965 182.415 66.3638 182.607 66.958 182.991C67.5521 183.375 68.0183 183.932 68.3565 184.663C68.6948 185.395 68.8639 186.281 68.8639 187.324C68.8639 188.366 68.6948 189.252 68.3565 189.984C68.0183 190.715 67.5521 191.272 66.958 191.656C66.3638 192.04 65.6965 192.232 64.9561 192.232ZM64.9561 191.012C65.4588 191.012 65.8976 190.875 66.2724 190.601C66.6563 190.326 66.9534 189.915 67.1636 189.367C67.383 188.818 67.4927 188.137 67.4927 187.324C67.4927 186.51 67.383 185.829 67.1636 185.281C66.9534 184.732 66.6563 184.321 66.2724 184.046C65.8976 183.772 65.4588 183.635 64.9561 183.635C64.4533 183.635 64.01 183.772 63.6261 184.046C63.2421 184.321 62.9405 184.732 62.7211 185.281C62.5109 185.829 62.4057 186.51 62.4057 187.324C62.4057 188.137 62.5109 188.818 62.7211 189.367C62.9405 189.915 63.2421 190.326 63.6261 190.601C64.01 190.875 64.4533 191.012 64.9561 191.012Z" fill="#5C6F88"/>
<path d="M31.4133 242.26V233.21L32.0029 233.855H29.2469V232.662H32.7708V242.26H31.4133ZM38.7917 242.369C38.0422 242.369 37.3703 242.177 36.7761 241.794C36.1911 241.41 35.7249 240.852 35.3776 240.121C35.0393 239.389 34.8702 238.503 34.8702 237.461C34.8702 236.419 35.0393 235.532 35.3776 234.801C35.7249 234.069 36.1911 233.512 36.7761 233.128C37.3703 232.744 38.0422 232.552 38.7917 232.552C39.5321 232.552 40.1994 232.744 40.7936 233.128C41.3878 233.512 41.854 234.069 42.1922 234.801C42.5304 235.532 42.6995 236.419 42.6995 237.461C42.6995 238.503 42.5304 239.389 42.1922 240.121C41.854 240.852 41.3878 241.41 40.7936 241.794C40.1994 242.177 39.5321 242.369 38.7917 242.369ZM38.7917 241.149C39.2945 241.149 39.7332 241.012 40.108 240.738C40.4919 240.464 40.789 240.052 40.9993 239.504C41.2187 238.955 41.3284 238.274 41.3284 237.461C41.3284 236.647 41.2187 235.966 40.9993 235.418C40.789 234.869 40.4919 234.458 40.108 234.184C39.7332 233.909 39.2945 233.772 38.7917 233.772C38.289 233.772 37.8456 233.909 37.4617 234.184C37.0778 234.458 36.7761 234.869 36.5567 235.418C36.3465 235.966 36.2414 236.647 36.2414 237.461C36.2414 238.274 36.3465 238.955 36.5567 239.504C36.7761 240.052 37.0778 240.464 37.4617 240.738C37.8456 241.012 38.289 241.149 38.7917 241.149ZM47.9372 242.369C47.1876 242.369 46.5158 242.177 45.9216 241.794C45.3366 241.41 44.8704 240.852 44.523 240.121C44.1848 239.389 44.0157 238.503 44.0157 237.461C44.0157 236.419 44.1848 235.532 44.523 234.801C44.8704 234.069 45.3366 233.512 45.9216 233.128C46.5158 232.744 47.1876 232.552 47.9372 232.552C48.6776 232.552 49.3449 232.744 49.9391 233.128C50.5332 233.512 50.9994 234.069 51.3376 234.801C51.6759 235.532 51.845 236.419 51.845 237.461C51.845 238.503 51.6759 239.389 51.3376 240.121C50.9994 240.852 50.5332 241.41 49.9391 241.794C49.3449 242.177 48.6776 242.369 47.9372 242.369ZM47.9372 241.149C48.4399 241.149 48.8787 241.012 49.2535 240.738C49.6374 240.464 49.9345 240.052 50.1447 239.504C50.3641 238.955 50.4738 238.274 50.4738 237.461C50.4738 236.647 50.3641 235.966 50.1447 235.418C49.9345 234.869 49.6374 234.458 49.2535 234.184C48.8787 233.909 48.4399 233.772 47.9372 233.772C47.4344 233.772 46.9911 233.909 46.6072 234.184C46.2233 234.458 45.9216 234.869 45.7022 235.418C45.492 235.966 45.3869 236.647 45.3869 237.461C45.3869 238.274 45.492 238.955 45.7022 239.504C45.9216 240.052 46.2233 240.464 46.6072 240.738C46.9911 241.012 47.4344 241.149 47.9372 241.149ZM57.0827 242.369C56.3331 242.369 55.6612 242.177 55.0671 241.794C54.4821 241.41 54.0159 240.852 53.6685 240.121C53.3303 239.389 53.1612 238.503 53.1612 237.461C53.1612 236.419 53.3303 235.532 53.6685 234.801C54.0159 234.069 54.4821 233.512 55.0671 233.128C55.6612 232.744 56.3331 232.552 57.0827 232.552C57.8231 232.552 58.4904 232.744 59.0845 233.128C59.6787 233.512 60.1449 234.069 60.4831 234.801C60.8213 235.532 60.9904 236.419 60.9904 237.461C60.9904 238.503 60.8213 239.389 60.4831 240.121C60.1449 240.852 59.6787 241.41 59.0845 241.794C58.4904 242.177 57.8231 242.369 57.0827 242.369ZM57.0827 241.149C57.5854 241.149 58.0242 241.012 58.399 240.738C58.7829 240.464 59.08 240.052 59.2902 239.504C59.5096 238.955 59.6193 238.274 59.6193 237.461C59.6193 236.647 59.5096 235.966 59.2902 235.418C59.08 234.869 58.7829 234.458 58.399 234.184C58.0242 233.909 57.5854 233.772 57.0827 233.772C56.5799 233.772 56.1366 233.909 55.7527 234.184C55.3687 234.458 55.0671 234.869 54.8477 235.418C54.6374 235.966 54.5323 236.647 54.5323 237.461C54.5323 238.274 54.6374 238.955 54.8477 239.504C55.0671 240.052 55.3687 240.464 55.7527 240.738C56.1366 241.012 56.5799 241.149 57.0827 241.149ZM66.2281 242.369C65.4786 242.369 64.8067 242.177 64.2125 241.794C63.6275 241.41 63.1613 240.852 62.814 240.121C62.4758 239.389 62.3066 238.503 62.3066 237.461C62.3066 236.419 62.4758 235.532 62.814 234.801C63.1613 234.069 63.6275 233.512 64.2125 233.128C64.8067 232.744 65.4786 232.552 66.2281 232.552C66.9686 232.552 67.6359 232.744 68.23 233.128C68.8242 233.512 69.2904 234.069 69.6286 234.801C69.9668 235.532 70.1359 236.419 70.1359 237.461C70.1359 238.503 69.9668 239.389 69.6286 240.121C69.2904 240.852 68.8242 241.41 68.23 241.794C67.6359 242.177 66.9686 242.369 66.2281 242.369ZM66.2281 241.149C66.7309 241.149 67.1697 241.012 67.5444 240.738C67.9284 240.464 68.2255 240.052 68.4357 239.504C68.6551 238.955 68.7648 238.274 68.7648 237.461C68.7648 236.647 68.6551 235.966 68.4357 235.418C68.2255 234.869 67.9284 234.458 67.5444 234.184C67.1697 233.909 66.7309 233.772 66.2281 233.772C65.7254 233.772 65.282 233.909 64.8981 234.184C64.5142 234.458 64.2125 234.869 63.9932 235.418C63.7829 235.966 63.6778 236.647 63.6778 237.461C63.6778 238.274 63.7829 238.955 63.9932 239.504C64.2125 240.052 64.5142 240.464 64.8981 240.738C65.282 241.012 65.7254 241.149 66.2281 241.149Z" fill="#5C6F88"/>
<path d="M32.8942 292.506C32.2177 292.506 31.5596 292.401 30.9197 292.191C30.289 291.981 29.7725 291.697 29.3703 291.341L30.001 290.257C30.321 290.559 30.7369 290.806 31.2488 290.998C31.7607 291.19 32.3046 291.286 32.8805 291.286C33.6117 291.286 34.1739 291.13 34.567 290.82C34.96 290.509 35.1566 290.093 35.1566 289.572C35.1566 289.215 35.0697 288.905 34.896 288.64C34.7224 288.374 34.4207 288.173 33.9911 288.036C33.5706 287.89 32.9901 287.817 32.2497 287.817H30.0696L30.5769 282.798H35.993V283.991H31.0842L31.7972 283.319L31.3996 287.282L30.6866 286.624H32.5377C33.4975 286.624 34.2699 286.747 34.8549 286.994C35.4399 287.241 35.865 287.584 36.1301 288.023C36.3952 288.452 36.5277 288.95 36.5277 289.517C36.5277 290.066 36.3952 290.568 36.1301 291.025C35.865 291.473 35.4628 291.834 34.9235 292.109C34.3933 292.374 33.7169 292.506 32.8942 292.506ZM41.5903 292.506C40.8407 292.506 40.1688 292.314 39.5747 291.93C38.9896 291.546 38.5235 290.989 38.1761 290.257C37.8379 289.526 37.6688 288.64 37.6688 287.597C37.6688 286.555 37.8379 285.669 38.1761 284.937C38.5235 284.206 38.9896 283.649 39.5747 283.265C40.1688 282.881 40.8407 282.689 41.5903 282.689C42.3307 282.689 42.998 282.881 43.5921 283.265C44.1863 283.649 44.6525 284.206 44.9907 284.937C45.3289 285.669 45.498 286.555 45.498 287.597C45.498 288.64 45.3289 289.526 44.9907 290.257C44.6525 290.989 44.1863 291.546 43.5921 291.93C42.998 292.314 42.3307 292.506 41.5903 292.506ZM41.5903 291.286C42.093 291.286 42.5318 291.149 42.9066 290.875C43.2905 290.6 43.5876 290.189 43.7978 289.64C44.0172 289.092 44.1269 288.411 44.1269 287.597C44.1269 286.784 44.0172 286.103 43.7978 285.554C43.5876 285.006 43.2905 284.595 42.9066 284.32C42.5318 284.046 42.093 283.909 41.5903 283.909C41.0875 283.909 40.6442 284.046 40.2602 284.32C39.8763 284.595 39.5747 285.006 39.3553 285.554C39.145 286.103 39.0399 286.784 39.0399 287.597C39.0399 288.411 39.145 289.092 39.3553 289.64C39.5747 290.189 39.8763 290.6 40.2602 290.875C40.6442 291.149 41.0875 291.286 41.5903 291.286ZM50.7357 292.506C49.9862 292.506 49.3143 292.314 48.7201 291.93C48.1351 291.546 47.6689 290.989 47.3216 290.257C46.9834 289.526 46.8142 288.64 46.8142 287.597C46.8142 286.555 46.9834 285.669 47.3216 284.937C47.6689 284.206 48.1351 283.649 48.7201 283.265C49.3143 282.881 49.9862 282.689 50.7357 282.689C51.4762 282.689 52.1435 282.881 52.7376 283.265C53.3318 283.649 53.798 284.206 54.1362 284.937C54.4744 285.669 54.6435 286.555 54.6435 287.597C54.6435 288.64 54.4744 289.526 54.1362 290.257C53.798 290.989 53.3318 291.546 52.7376 291.93C52.1435 292.314 51.4762 292.506 50.7357 292.506ZM50.7357 291.286C51.2385 291.286 51.6773 291.149 52.052 290.875C52.436 290.6 52.733 290.189 52.9433 289.64C53.1627 289.092 53.2724 288.411 53.2724 287.597C53.2724 286.784 53.1627 286.103 52.9433 285.554C52.733 285.006 52.436 284.595 52.052 284.32C51.6773 284.046 51.2385 283.909 50.7357 283.909C50.233 283.909 49.7896 284.046 49.4057 284.32C49.0218 284.595 48.7201 285.006 48.5008 285.554C48.2905 286.103 48.1854 286.784 48.1854 287.597C48.1854 288.411 48.2905 289.092 48.5008 289.64C48.7201 290.189 49.0218 290.6 49.4057 290.875C49.7896 291.149 50.233 291.286 50.7357 291.286ZM59.8812 292.506C59.1316 292.506 58.4598 292.314 57.8656 291.93C57.2806 291.546 56.8144 290.989 56.467 290.257C56.1288 289.526 55.9597 288.64 55.9597 287.597C55.9597 286.555 56.1288 285.669 56.467 284.937C56.8144 284.206 57.2806 283.649 57.8656 283.265C58.4598 282.881 59.1316 282.689 59.8812 282.689C60.6216 282.689 61.2889 282.881 61.8831 283.265C62.4773 283.649 62.9434 284.206 63.2817 284.937C63.6199 285.669 63.789 286.555 63.789 287.597C63.789 288.64 63.6199 289.526 63.2817 290.257C62.9434 290.989 62.4773 291.546 61.8831 291.93C61.2889 292.314 60.6216 292.506 59.8812 292.506ZM59.8812 291.286C60.384 291.286 60.8227 291.149 61.1975 290.875C61.5814 290.6 61.8785 290.189 62.0888 289.64C62.3081 289.092 62.4178 288.411 62.4178 287.597C62.4178 286.784 62.3081 286.103 62.0888 285.554C61.8785 285.006 61.5814 284.595 61.1975 284.32C60.8227 284.046 60.384 283.909 59.8812 283.909C59.3785 283.909 58.9351 284.046 58.5512 284.32C58.1673 284.595 57.8656 285.006 57.6462 285.554C57.436 286.103 57.3309 286.784 57.3309 287.597C57.3309 288.411 57.436 289.092 57.6462 289.64C57.8656 290.189 58.1673 290.6 58.5512 290.875C58.9351 291.149 59.3785 291.286 59.8812 291.286Z" fill="#5C6F88"/>
<path d="M33.7169 342.643C32.9673 342.643 32.2954 342.451 31.7013 342.067C31.1162 341.684 30.65 341.126 30.3027 340.395C29.9645 339.663 29.7954 338.777 29.7954 337.735C29.7954 336.693 29.9645 335.806 30.3027 335.075C30.65 334.343 31.1162 333.786 31.7013 333.402C32.2954 333.018 32.9673 332.826 33.7169 332.826C34.4573 332.826 35.1246 333.018 35.7187 333.402C36.3129 333.786 36.7791 334.343 37.1173 335.075C37.4555 335.806 37.6246 336.693 37.6246 337.735C37.6246 338.777 37.4555 339.663 37.1173 340.395C36.7791 341.126 36.3129 341.684 35.7187 342.067C35.1246 342.451 34.4573 342.643 33.7169 342.643ZM33.7169 341.423C34.2196 341.423 34.6584 341.286 35.0332 341.012C35.4171 340.737 35.7142 340.326 35.9244 339.778C36.1438 339.229 36.2535 338.548 36.2535 337.735C36.2535 336.921 36.1438 336.24 35.9244 335.692C35.7142 335.143 35.4171 334.732 35.0332 334.458C34.6584 334.183 34.2196 334.046 33.7169 334.046C33.2141 334.046 32.7708 334.183 32.3868 334.458C32.0029 334.732 31.7013 335.143 31.4819 335.692C31.2716 336.24 31.1665 336.921 31.1665 337.735C31.1665 338.548 31.2716 339.229 31.4819 339.778C31.7013 340.326 32.0029 340.737 32.3868 341.012C32.7708 341.286 33.2141 341.423 33.7169 341.423Z" fill="#5C6F88"/>
<rect x="102.919" y="293.255" width="22.2812" height="22.2812" fill="#04B4FC"/>
<rect x="102.919" y="204.13" width="22.2812" height="22.2812" fill="#6C11D9"/>
<rect x="102.919" y="181.849" width="22.2812" height="22.2812" fill="#AD69FF"/>
<rect x="102.919" y="270.974" width="22.2812" height="22.2812" fill="#04B4FC"/>
<rect x="102.919" y="248.692" width="22.2812" height="22.2812" fill="#51CCFF"/>
<rect x="102.919" y="226.411" width="22.2812" height="22.2812" fill="#8EDEFF"/>
<path d="M104.234 342.643C103.667 342.643 103.137 342.525 102.643 342.287C102.15 342.049 101.747 341.706 101.437 341.259L102.232 340.326C102.497 340.692 102.794 340.975 103.123 341.176C103.461 341.368 103.832 341.464 104.234 341.464C105.331 341.464 105.879 340.815 105.879 339.517V334.129H102.41V332.936H107.237V339.449C107.237 340.518 106.981 341.318 106.469 341.848C105.966 342.378 105.221 342.643 104.234 342.643ZM114.349 342.534V340.998L114.28 340.71V338.091C114.28 337.534 114.116 337.104 113.787 336.802C113.467 336.491 112.982 336.336 112.333 336.336C111.904 336.336 111.483 336.409 111.072 336.555C110.66 336.693 110.313 336.88 110.03 337.118L109.481 336.13C109.856 335.829 110.304 335.6 110.825 335.445C111.355 335.28 111.908 335.198 112.484 335.198C113.48 335.198 114.248 335.44 114.787 335.925C115.327 336.409 115.596 337.15 115.596 338.146V342.534H114.349ZM111.963 342.616C111.424 342.616 110.948 342.525 110.537 342.342C110.135 342.159 109.824 341.908 109.605 341.588C109.385 341.259 109.275 340.888 109.275 340.477C109.275 340.084 109.367 339.727 109.55 339.407C109.742 339.088 110.048 338.832 110.468 338.64C110.898 338.448 111.474 338.352 112.196 338.352H114.5V339.298H112.251C111.593 339.298 111.149 339.407 110.921 339.627C110.692 339.846 110.578 340.111 110.578 340.422C110.578 340.779 110.72 341.067 111.003 341.286C111.286 341.496 111.68 341.601 112.182 341.601C112.676 341.601 113.106 341.492 113.471 341.272C113.846 341.053 114.116 340.733 114.28 340.312L114.541 341.217C114.367 341.647 114.061 341.99 113.622 342.246C113.183 342.493 112.63 342.616 111.963 342.616ZM121.913 335.198C122.507 335.198 123.028 335.312 123.476 335.541C123.933 335.769 124.289 336.117 124.545 336.583C124.801 337.049 124.929 337.639 124.929 338.352V342.534H123.613V338.503C123.613 337.799 123.439 337.268 123.092 336.912C122.754 336.555 122.274 336.377 121.652 336.377C121.186 336.377 120.779 336.469 120.432 336.651C120.085 336.834 119.815 337.104 119.623 337.46C119.44 337.817 119.349 338.26 119.349 338.79V342.534H118.032V335.267H119.294V337.227L119.088 336.706C119.326 336.231 119.692 335.861 120.185 335.596C120.679 335.331 121.255 335.198 121.913 335.198Z" fill="#5C6F88"/>
<rect x="159.771" y="226.411" width="22.2812" height="22.2812" fill="#6C11D9"/>
<rect x="159.771" y="204.13" width="22.2812" height="22.2812" fill="#AD69FF"/>
<rect x="159.771" y="293.254" width="22.2812" height="22.2812" fill="#04B4FC"/>
<rect x="159.771" y="270.973" width="22.2812" height="22.2812" fill="#51CCFF"/>
<rect x="159.771" y="248.692" width="22.2812" height="22.2812" fill="#8EDEFF"/>
<path d="M160.085 337.474H165.035V338.653H160.085V337.474ZM160.222 342.533H158.851V332.935H165.624V334.128H160.222V342.533ZM170.371 342.615C169.594 342.615 168.908 342.456 168.314 342.136C167.729 341.816 167.272 341.377 166.943 340.819C166.623 340.262 166.463 339.622 166.463 338.9C166.463 338.178 166.618 337.538 166.929 336.98C167.249 336.422 167.683 335.988 168.232 335.677C168.789 335.358 169.416 335.198 170.11 335.198C170.814 335.198 171.436 335.353 171.975 335.664C172.514 335.975 172.935 336.413 173.236 336.98C173.547 337.538 173.703 338.191 173.703 338.941C173.703 338.996 173.698 339.06 173.689 339.133C173.689 339.206 173.684 339.274 173.675 339.338H167.491V338.392H172.99L172.455 338.721C172.464 338.255 172.368 337.839 172.167 337.474C171.966 337.108 171.687 336.825 171.331 336.624C170.983 336.413 170.576 336.308 170.11 336.308C169.653 336.308 169.246 336.413 168.89 336.624C168.533 336.825 168.255 337.113 168.054 337.487C167.852 337.853 167.752 338.273 167.752 338.749V338.968C167.752 339.453 167.862 339.887 168.081 340.271C168.309 340.646 168.625 340.938 169.027 341.148C169.429 341.359 169.891 341.464 170.412 341.464C170.842 341.464 171.23 341.391 171.577 341.244C171.934 341.098 172.245 340.879 172.51 340.586L173.236 341.436C172.907 341.82 172.496 342.113 172.002 342.314C171.518 342.515 170.974 342.615 170.371 342.615ZM179.383 342.615C178.762 342.615 178.2 342.478 177.697 342.204C177.203 341.921 176.81 341.505 176.518 340.956C176.234 340.408 176.093 339.722 176.093 338.9C176.093 338.077 176.239 337.391 176.531 336.843C176.833 336.294 177.231 335.883 177.724 335.609C178.227 335.335 178.78 335.198 179.383 335.198C180.096 335.198 180.727 335.353 181.276 335.664C181.824 335.975 182.258 336.409 182.578 336.966C182.898 337.515 183.058 338.159 183.058 338.9C183.058 339.64 182.898 340.289 182.578 340.847C182.258 341.404 181.824 341.838 181.276 342.149C180.727 342.46 180.096 342.615 179.383 342.615ZM175.53 342.533V332.359H176.847V337.199L176.71 338.886L176.792 340.572V342.533H175.53ZM179.274 341.464C179.74 341.464 180.156 341.359 180.521 341.148C180.896 340.938 181.189 340.641 181.399 340.257C181.618 339.864 181.728 339.412 181.728 338.9C181.728 338.379 181.618 337.931 181.399 337.556C181.189 337.172 180.896 336.875 180.521 336.665C180.156 336.454 179.74 336.349 179.274 336.349C178.817 336.349 178.401 336.454 178.026 336.665C177.66 336.875 177.368 337.172 177.148 337.556C176.938 337.931 176.833 338.379 176.833 338.9C176.833 339.412 176.938 339.864 177.148 340.257C177.368 340.641 177.66 340.938 178.026 341.148C178.401 341.359 178.817 341.464 179.274 341.464Z" fill="#5C6F88"/>
<rect x="217.621" y="226.411" width="22.2812" height="22.2812" fill="#6C11D9"/>
<rect x="217.621" y="204.13" width="22.2812" height="22.2812" fill="#AD69FF"/>
<rect x="217.621" y="181.849" width="22.2812" height="22.2812" fill="#C08BFF"/>
<rect x="217.621" y="293.255" width="22.2812" height="22.2812" fill="#04B4FC"/>
<rect x="217.621" y="270.974" width="22.2812" height="22.2812" fill="#51CCFF"/>
<rect x="217.621" y="248.692" width="22.2812" height="22.2812" fill="#8EDEFF"/>
<path d="M216.701 342.534V332.936H217.826L222.131 340.189H221.528L225.778 332.936H226.903L226.917 342.534H225.6L225.586 335.006H225.902L222.117 341.368H221.487L217.675 335.006H218.018V342.534H216.701ZM234.116 342.534V340.998L234.048 340.71V338.091C234.048 337.534 233.883 337.104 233.554 336.802C233.234 336.491 232.75 336.336 232.101 336.336C231.671 336.336 231.25 336.409 230.839 336.555C230.428 336.693 230.08 336.88 229.797 337.118L229.249 336.13C229.623 335.829 230.071 335.6 230.592 335.445C231.122 335.28 231.675 335.198 232.251 335.198C233.248 335.198 234.016 335.44 234.555 335.925C235.094 336.409 235.364 337.15 235.364 338.146V342.534H234.116ZM231.73 342.616C231.191 342.616 230.716 342.525 230.304 342.342C229.902 342.159 229.591 341.908 229.372 341.588C229.153 341.259 229.043 340.888 229.043 340.477C229.043 340.084 229.134 339.727 229.317 339.407C229.509 339.088 229.815 338.832 230.236 338.64C230.665 338.448 231.241 338.352 231.963 338.352H234.267V339.298H232.018C231.36 339.298 230.917 339.407 230.688 339.627C230.46 339.846 230.345 340.111 230.345 340.422C230.345 340.779 230.487 341.067 230.771 341.286C231.054 341.496 231.447 341.601 231.95 341.601C232.443 341.601 232.873 341.492 233.239 341.272C233.613 341.053 233.883 340.733 234.048 340.312L234.308 341.217C234.134 341.647 233.828 341.99 233.389 342.246C232.951 342.493 232.398 342.616 231.73 342.616ZM237.8 342.534V335.267H239.061V337.241L238.938 336.747C239.139 336.245 239.477 335.861 239.953 335.596C240.428 335.331 241.013 335.198 241.708 335.198V336.473C241.653 336.464 241.598 336.459 241.543 336.459C241.497 336.459 241.452 336.459 241.406 336.459C240.702 336.459 240.144 336.67 239.733 337.09C239.322 337.511 239.116 338.119 239.116 338.914V342.534H237.8Z" fill="#5C6F88"/>
<rect x="274.972" y="204.13" width="22.2812" height="22.2812" fill="#6C11D9"/>
<rect x="274.972" y="181.849" width="22.2812" height="22.2812" fill="#AD69FF"/>
<rect x="274.972" y="159.567" width="22.2812" height="22.2812" fill="#C08BFF"/>
<rect x="274.972" y="293.255" width="22.2812" height="22.2812" fill="#04B4FC"/>
<rect x="274.972" y="270.974" width="22.2812" height="22.2812" fill="#51CCFF"/>
<rect x="274.972" y="248.692" width="22.2812" height="22.2812" fill="#51CCFF"/>
<rect x="274.972" y="226.411" width="22.2812" height="22.2812" fill="#8EDEFF"/>
<path d="M273.099 342.534L277.446 332.936H278.803L283.163 342.534H281.724L277.843 333.703H278.392L274.511 342.534H273.099ZM274.95 340.134L275.32 339.037H280.723L281.12 340.134H274.95ZM288.256 342.616C287.653 342.616 287.1 342.479 286.597 342.205C286.103 341.921 285.706 341.505 285.404 340.957C285.112 340.408 284.965 339.723 284.965 338.9C284.965 338.077 285.107 337.392 285.39 336.843C285.683 336.295 286.076 335.884 286.57 335.609C287.072 335.335 287.635 335.198 288.256 335.198C288.969 335.198 289.6 335.353 290.148 335.664C290.697 335.975 291.131 336.409 291.451 336.967C291.771 337.515 291.931 338.16 291.931 338.9C291.931 339.641 291.771 340.29 291.451 340.847C291.131 341.405 290.697 341.839 290.148 342.15C289.6 342.461 288.969 342.616 288.256 342.616ZM284.403 345.194V335.267H285.665V337.227L285.582 338.914L285.719 340.6V345.194H284.403ZM288.146 341.464C288.613 341.464 289.029 341.359 289.394 341.149C289.769 340.939 290.061 340.642 290.272 340.258C290.491 339.865 290.601 339.412 290.601 338.9C290.601 338.379 290.491 337.931 290.272 337.556C290.061 337.172 289.769 336.875 289.394 336.665C289.029 336.455 288.613 336.35 288.146 336.35C287.689 336.35 287.273 336.455 286.899 336.665C286.533 336.875 286.24 337.172 286.021 337.556C285.811 337.931 285.706 338.379 285.706 338.9C285.706 339.412 285.811 339.865 286.021 340.258C286.24 340.642 286.533 340.939 286.899 341.149C287.273 341.359 287.689 341.464 288.146 341.464ZM293.749 342.534V335.267H295.011V337.241L294.888 336.747C295.089 336.245 295.427 335.861 295.902 335.596C296.378 335.331 296.963 335.198 297.657 335.198V336.473C297.602 336.464 297.548 336.459 297.493 336.459C297.447 336.459 297.401 336.459 297.356 336.459C296.652 336.459 296.094 336.67 295.683 337.09C295.271 337.511 295.066 338.119 295.066 338.914V342.534H293.749Z" fill="#5C6F88"/>
<rect x="333.323" y="243.55" width="22.2812" height="22.2812" fill="#6C11D9"/>
<rect x="333.323" y="288.113" width="22.2812" height="22.2812" fill="#04B4FC"/>
<rect x="333.323" y="265.832" width="22.2812" height="22.2812" fill="#8EDEFF"/>
<path d="M331.404 342.533V332.935H332.528L336.833 340.189H336.23L340.481 332.935H341.605L341.619 342.533H340.302L340.289 335.006H340.604L336.82 341.368H336.189L332.377 335.006H332.72V342.533H331.404ZM348.818 342.533V340.998L348.75 340.71V338.091C348.75 337.533 348.585 337.103 348.256 336.802C347.936 336.491 347.452 336.336 346.803 336.336C346.373 336.336 345.953 336.409 345.541 336.555C345.13 336.692 344.783 336.879 344.499 337.117L343.951 336.13C344.325 335.828 344.773 335.6 345.294 335.444C345.825 335.28 346.378 335.198 346.954 335.198C347.95 335.198 348.718 335.44 349.257 335.924C349.796 336.409 350.066 337.149 350.066 338.146V342.533H348.818ZM346.432 342.615C345.893 342.615 345.418 342.524 345.006 342.341C344.604 342.158 344.293 341.907 344.074 341.587C343.855 341.258 343.745 340.888 343.745 340.476C343.745 340.083 343.836 339.727 344.019 339.407C344.211 339.087 344.517 338.831 344.938 338.639C345.368 338.447 345.943 338.351 346.666 338.351H348.969V339.297H346.72C346.062 339.297 345.619 339.407 345.39 339.626C345.162 339.846 345.048 340.111 345.048 340.422C345.048 340.778 345.189 341.066 345.473 341.285C345.756 341.496 346.149 341.601 346.652 341.601C347.145 341.601 347.575 341.491 347.941 341.272C348.316 341.052 348.585 340.732 348.75 340.312L349.01 341.217C348.837 341.647 348.53 341.989 348.092 342.245C347.653 342.492 347.1 342.615 346.432 342.615ZM352.683 345.276C352.336 345.276 351.998 345.216 351.669 345.097C351.34 344.988 351.056 344.823 350.819 344.604L351.381 343.616C351.564 343.79 351.765 343.923 351.984 344.014C352.204 344.105 352.437 344.151 352.683 344.151C353.003 344.151 353.268 344.069 353.479 343.904C353.689 343.74 353.885 343.447 354.068 343.027L354.521 342.026L354.658 341.861L357.51 335.266H358.799L355.275 343.26C355.065 343.772 354.827 344.174 354.562 344.467C354.306 344.759 354.023 344.965 353.712 345.084C353.401 345.212 353.058 345.276 352.683 345.276ZM354.411 342.766L351.093 335.266H352.464L355.289 341.738L354.411 342.766Z" fill="#5C6F88"/>
<rect x="391.674" y="241.836" width="22.2812" height="22.2812" fill="#6C11D9"/>
<rect x="391.674" y="219.555" width="22.2812" height="22.2812" fill="#AD69FF"/>
<rect x="391.674" y="286.399" width="22.2812" height="22.2812" fill="#04B4FC"/>
<rect x="391.674" y="264.118" width="22.2812" height="22.2812" fill="#8EDEFF"/>
<path d="M392.488 342.643C391.921 342.643 391.391 342.524 390.898 342.286C390.404 342.049 390.002 341.706 389.691 341.258L390.486 340.326C390.751 340.691 391.048 340.975 391.378 341.176C391.716 341.368 392.086 341.464 392.488 341.464C393.585 341.464 394.134 340.815 394.134 339.517V334.128H390.665V332.935H395.491V339.448C395.491 340.518 395.235 341.317 394.723 341.848C394.22 342.378 393.475 342.643 392.488 342.643ZM401.15 342.615C400.528 342.615 399.98 342.501 399.504 342.273C399.038 342.044 398.672 341.697 398.407 341.231C398.151 340.755 398.023 340.161 398.023 339.448V335.266H399.34V339.297C399.34 340.01 399.509 340.545 399.847 340.902C400.194 341.258 400.679 341.436 401.301 341.436C401.758 341.436 402.155 341.345 402.493 341.162C402.832 340.97 403.092 340.696 403.275 340.339C403.458 339.974 403.549 339.535 403.549 339.023V335.266H404.866V342.533H403.618V340.572L403.823 341.093C403.586 341.578 403.229 341.953 402.754 342.218C402.279 342.483 401.744 342.615 401.15 342.615ZM411.252 335.198C411.846 335.198 412.367 335.312 412.815 335.54C413.272 335.769 413.628 336.116 413.884 336.582C414.14 337.049 414.268 337.638 414.268 338.351V342.533H412.952V338.502C412.952 337.798 412.778 337.268 412.431 336.911C412.093 336.555 411.613 336.377 410.991 336.377C410.525 336.377 410.118 336.468 409.771 336.651C409.424 336.834 409.154 337.103 408.962 337.46C408.779 337.816 408.688 338.26 408.688 338.79V342.533H407.371V335.266H408.633V337.227L408.427 336.706C408.665 336.23 409.03 335.86 409.524 335.595C410.018 335.33 410.594 335.198 411.252 335.198Z" fill="#5C6F88"/>
<rect x="446.666" y="214.414" width="22.2812" height="22.2812" fill="#6C11D9"/>
<rect x="446.666" y="192.132" width="22.2812" height="22.2812" fill="#AD69FF"/>
<rect x="446.666" y="281.257" width="22.2812" height="22.2812" fill="#04B4FC"/>
<rect x="446.666" y="258.976" width="22.2812" height="22.2812" fill="#51CCFF"/>
<rect x="446.666" y="236.695" width="22.2812" height="22.2812" fill="#8EDEFF"/>
<path d="M449.339 342.643C448.773 342.643 448.242 342.525 447.749 342.287C447.255 342.049 446.853 341.706 446.542 341.259L447.337 340.326C447.602 340.692 447.9 340.975 448.229 341.176C448.567 341.368 448.937 341.464 449.339 341.464C450.436 341.464 450.985 340.815 450.985 339.517V334.129H447.516V332.936H452.342V339.449C452.342 340.518 452.086 341.318 451.574 341.848C451.071 342.378 450.327 342.643 449.339 342.643ZM458.001 342.616C457.379 342.616 456.831 342.502 456.355 342.273C455.889 342.045 455.524 341.697 455.258 341.231C455.003 340.756 454.875 340.162 454.875 339.449V335.267H456.191V339.298C456.191 340.011 456.36 340.546 456.698 340.902C457.046 341.259 457.53 341.437 458.152 341.437C458.609 341.437 459.006 341.345 459.345 341.163C459.683 340.971 459.943 340.696 460.126 340.34C460.309 339.974 460.4 339.535 460.4 339.024V335.267H461.717V342.534H460.469V340.573L460.675 341.094C460.437 341.578 460.08 341.953 459.605 342.218C459.13 342.483 458.595 342.616 458.001 342.616ZM464.222 342.534V332.36H465.539V342.534H464.222Z" fill="#5C6F88"/>
<rect x="503.157" y="190.418" width="22.2812" height="22.2812" fill="#6C11D9"/>
<rect x="503.157" y="168.137" width="22.2812" height="22.2812" fill="#AD69FF"/>
<rect x="503.157" y="145.856" width="22.2812" height="22.2812" fill="#C08BFF"/>
<rect x="503.157" y="279.543" width="22.2812" height="22.2812" fill="#04B4FC"/>
<rect x="503.157" y="257.262" width="22.2812" height="22.2812" fill="#51CCFF"/>
<rect x="503.157" y="234.981" width="22.2812" height="22.2812" fill="#51CCFF"/>
<rect x="503.157" y="212.7" width="22.2812" height="22.2812" fill="#8EDEFF"/>
<path d="M499.784 342.534L504.131 332.936H505.488L509.848 342.534H508.409L504.528 333.703H505.077L501.196 342.534H499.784ZM501.635 340.134L502.005 339.037H507.408L507.805 340.134H501.635ZM514.012 342.616C513.39 342.616 512.842 342.502 512.367 342.273C511.9 342.045 511.535 341.697 511.27 341.231C511.014 340.756 510.886 340.162 510.886 339.449V335.267H512.202V339.298C512.202 340.011 512.371 340.546 512.709 340.902C513.057 341.259 513.541 341.437 514.163 341.437C514.62 341.437 515.017 341.345 515.356 341.163C515.694 340.971 515.954 340.696 516.137 340.34C516.32 339.974 516.411 339.535 516.411 339.024V335.267H517.728V342.534H516.48V340.573L516.686 341.094C516.448 341.578 516.092 341.953 515.616 342.218C515.141 342.483 514.606 342.616 514.012 342.616ZM523.415 345.276C522.747 345.276 522.098 345.18 521.468 344.988C520.846 344.805 520.339 344.54 519.946 344.193L520.576 343.178C520.915 343.471 521.331 343.699 521.824 343.864C522.318 344.037 522.834 344.124 523.374 344.124C524.233 344.124 524.864 343.923 525.266 343.521C525.668 343.119 525.869 342.506 525.869 341.684V340.148L526.006 338.708L525.938 337.255V335.267H527.185V341.546C527.185 342.826 526.865 343.768 526.226 344.371C525.586 344.974 524.649 345.276 523.415 345.276ZM523.25 342.232C522.546 342.232 521.916 342.086 521.358 341.793C520.81 341.492 520.371 341.076 520.042 340.546C519.722 340.015 519.562 339.403 519.562 338.708C519.562 338.004 519.722 337.392 520.042 336.871C520.371 336.341 520.81 335.929 521.358 335.637C521.916 335.344 522.546 335.198 523.25 335.198C523.872 335.198 524.439 335.326 524.95 335.582C525.462 335.829 525.869 336.213 526.171 336.734C526.482 337.255 526.637 337.913 526.637 338.708C526.637 339.494 526.482 340.148 526.171 340.669C525.869 341.19 525.462 341.583 524.95 341.848C524.439 342.104 523.872 342.232 523.25 342.232ZM523.401 341.08C523.886 341.08 524.315 340.98 524.69 340.779C525.065 340.578 525.357 340.299 525.567 339.942C525.787 339.586 525.897 339.174 525.897 338.708C525.897 338.242 525.787 337.831 525.567 337.474C525.357 337.118 525.065 336.843 524.69 336.651C524.315 336.45 523.886 336.35 523.401 336.35C522.917 336.35 522.482 336.45 522.098 336.651C521.724 336.843 521.427 337.118 521.207 337.474C520.997 337.831 520.892 338.242 520.892 338.708C520.892 339.174 520.997 339.586 521.207 339.942C521.427 340.299 521.724 340.578 522.098 340.779C522.482 340.98 522.917 341.08 523.401 341.08Z" fill="#5C6F88"/>
<rect x="559.648" y="281.257" width="22.2812" height="22.2812" fill="#04B4FC"/>
<rect x="559.648" y="192.132" width="22.2812" height="22.2812" fill="#6C11D9"/>
<rect x="559.648" y="169.851" width="22.2812" height="22.2812" fill="#AD69FF"/>
<rect x="559.648" y="258.976" width="22.2812" height="22.2812" fill="#04B4FC"/>
<rect x="559.648" y="236.694" width="22.2812" height="22.2812" fill="#51CCFF"/>
<rect x="559.648" y="214.413" width="22.2812" height="22.2812" fill="#8EDEFF"/>
<path d="M563.885 342.643C563.154 342.643 562.455 342.533 561.787 342.314C561.12 342.085 560.595 341.793 560.211 341.436L560.718 340.367C561.084 340.687 561.55 340.952 562.117 341.162C562.683 341.372 563.273 341.477 563.885 341.477C564.443 341.477 564.895 341.413 565.243 341.285C565.59 341.157 565.846 340.984 566.011 340.764C566.175 340.536 566.257 340.28 566.257 339.997C566.257 339.667 566.148 339.402 565.928 339.201C565.718 339 565.439 338.84 565.092 338.721C564.754 338.593 564.379 338.484 563.968 338.392C563.556 338.301 563.14 338.196 562.72 338.077C562.308 337.949 561.929 337.789 561.582 337.597C561.244 337.405 560.969 337.149 560.759 336.829C560.549 336.5 560.444 336.08 560.444 335.568C560.444 335.074 560.572 334.622 560.828 334.21C561.093 333.79 561.495 333.456 562.034 333.209C562.583 332.953 563.277 332.825 564.118 332.825C564.676 332.825 565.229 332.899 565.777 333.045C566.326 333.191 566.801 333.401 567.203 333.676L566.751 334.772C566.34 334.498 565.905 334.302 565.448 334.183C564.991 334.055 564.548 333.991 564.118 333.991C563.579 333.991 563.136 334.059 562.788 334.197C562.441 334.334 562.185 334.517 562.021 334.745C561.865 334.974 561.787 335.23 561.787 335.513C561.787 335.851 561.893 336.121 562.103 336.322C562.322 336.523 562.601 336.683 562.939 336.802C563.287 336.921 563.666 337.03 564.077 337.131C564.489 337.222 564.9 337.327 565.311 337.446C565.732 337.565 566.111 337.72 566.449 337.912C566.797 338.104 567.076 338.36 567.286 338.68C567.496 339 567.601 339.412 567.601 339.914C567.601 340.399 567.469 340.851 567.203 341.272C566.938 341.683 566.527 342.017 565.969 342.273C565.421 342.519 564.726 342.643 563.885 342.643ZM572.648 342.615C571.871 342.615 571.186 342.456 570.592 342.136C570.006 341.816 569.549 341.377 569.22 340.819C568.9 340.262 568.74 339.622 568.74 338.9C568.74 338.178 568.896 337.538 569.207 336.98C569.527 336.422 569.961 335.988 570.509 335.677C571.067 335.358 571.693 335.198 572.388 335.198C573.092 335.198 573.713 335.353 574.252 335.664C574.792 335.975 575.212 336.413 575.514 336.98C575.825 337.538 575.98 338.191 575.98 338.941C575.98 338.996 575.976 339.06 575.966 339.133C575.966 339.206 575.962 339.274 575.953 339.338H569.769V338.392H575.267L574.732 338.721C574.742 338.255 574.646 337.839 574.444 337.474C574.243 337.108 573.965 336.825 573.608 336.624C573.261 336.413 572.854 336.308 572.388 336.308C571.931 336.308 571.524 336.413 571.167 336.624C570.811 336.825 570.532 337.113 570.331 337.487C570.13 337.853 570.029 338.273 570.029 338.749V338.968C570.029 339.453 570.139 339.887 570.358 340.271C570.587 340.646 570.902 340.938 571.305 341.148C571.707 341.359 572.168 341.464 572.689 341.464C573.119 341.464 573.507 341.391 573.855 341.244C574.211 341.098 574.522 340.879 574.787 340.586L575.514 341.436C575.185 341.82 574.774 342.113 574.28 342.314C573.795 342.515 573.252 342.615 572.648 342.615ZM581.661 342.615C581.058 342.615 580.505 342.478 580.002 342.204C579.508 341.921 579.111 341.505 578.809 340.956C578.516 340.408 578.37 339.722 578.37 338.9C578.37 338.077 578.512 337.391 578.795 336.843C579.088 336.294 579.481 335.883 579.974 335.609C580.477 335.335 581.039 335.198 581.661 335.198C582.374 335.198 583.005 335.353 583.553 335.664C584.102 335.975 584.536 336.409 584.856 336.966C585.176 337.515 585.336 338.159 585.336 338.9C585.336 339.64 585.176 340.289 584.856 340.847C584.536 341.404 584.102 341.838 583.553 342.149C583.005 342.46 582.374 342.615 581.661 342.615ZM577.808 345.193V335.266H579.069V337.227L578.987 338.913L579.124 340.6V345.193H577.808ZM581.551 341.464C582.017 341.464 582.433 341.359 582.799 341.148C583.174 340.938 583.466 340.641 583.676 340.257C583.896 339.864 584.006 339.412 584.006 338.9C584.006 338.379 583.896 337.931 583.676 337.556C583.466 337.172 583.174 336.875 582.799 336.665C582.433 336.454 582.017 336.349 581.551 336.349C581.094 336.349 580.678 336.454 580.303 336.665C579.938 336.875 579.645 337.172 579.426 337.556C579.216 337.931 579.111 338.379 579.111 338.9C579.111 339.412 579.216 339.864 579.426 340.257C579.645 340.641 579.938 340.938 580.303 341.148C580.678 341.359 581.094 341.464 581.551 341.464Z" fill="#5C6F88"/>
<rect x="617.5" y="216.127" width="22.2812" height="22.2812" fill="#6C11D9"/>
<rect x="617.5" y="282.971" width="22.2812" height="22.2812" fill="#04B4FC"/>
<rect x="617.5" y="260.69" width="22.2812" height="22.2812" fill="#51CCFF"/>
<rect x="617.5" y="238.409" width="22.2812" height="22.2812" fill="#8EDEFF"/>
<path d="M623.272 342.643C622.541 342.643 621.86 342.52 621.229 342.273C620.607 342.026 620.068 341.684 619.611 341.245C619.154 340.797 618.798 340.276 618.542 339.682C618.286 339.088 618.158 338.439 618.158 337.735C618.158 337.031 618.286 336.382 618.542 335.788C618.798 335.193 619.154 334.677 619.611 334.238C620.068 333.79 620.607 333.443 621.229 333.196C621.851 332.949 622.532 332.826 623.272 332.826C624.003 332.826 624.675 332.949 625.288 333.196C625.909 333.434 626.449 333.777 626.906 334.225C627.372 334.663 627.728 335.18 627.975 335.774C628.231 336.368 628.359 337.022 628.359 337.735C628.359 338.448 628.231 339.101 627.975 339.695C627.728 340.29 627.372 340.811 626.906 341.259C626.449 341.697 625.909 342.04 625.288 342.287C624.675 342.525 624.003 342.643 623.272 342.643ZM623.272 341.423C623.802 341.423 624.291 341.332 624.739 341.149C625.196 340.966 625.589 340.71 625.918 340.381C626.257 340.043 626.517 339.65 626.7 339.202C626.892 338.754 626.988 338.265 626.988 337.735C626.988 337.204 626.892 336.715 626.7 336.268C626.517 335.82 626.257 335.431 625.918 335.102C625.589 334.764 625.196 334.503 624.739 334.32C624.291 334.138 623.802 334.046 623.272 334.046C622.733 334.046 622.235 334.138 621.778 334.32C621.33 334.503 620.937 334.764 620.598 335.102C620.26 335.431 619.995 335.82 619.803 336.268C619.62 336.715 619.529 337.204 619.529 337.735C619.529 338.265 619.62 338.754 619.803 339.202C619.995 339.65 620.26 340.043 620.598 340.381C620.937 340.71 621.33 340.966 621.778 341.149C622.235 341.332 622.733 341.423 623.272 341.423ZM633.43 342.616C632.69 342.616 632.027 342.456 631.442 342.136C630.866 341.816 630.414 341.377 630.085 340.82C629.755 340.262 629.591 339.622 629.591 338.9C629.591 338.178 629.755 337.538 630.085 336.981C630.414 336.423 630.866 335.989 631.442 335.678C632.027 335.358 632.69 335.198 633.43 335.198C634.088 335.198 634.673 335.331 635.185 335.596C635.706 335.852 636.108 336.236 636.392 336.747L635.391 337.392C635.153 337.035 634.861 336.775 634.513 336.61C634.175 336.437 633.81 336.35 633.416 336.35C632.941 336.35 632.516 336.455 632.141 336.665C631.766 336.875 631.469 337.172 631.25 337.556C631.031 337.931 630.921 338.379 630.921 338.9C630.921 339.421 631.031 339.874 631.25 340.258C631.469 340.642 631.766 340.939 632.141 341.149C632.516 341.359 632.941 341.464 633.416 341.464C633.81 341.464 634.175 341.382 634.513 341.217C634.861 341.044 635.153 340.779 635.391 340.422L636.392 341.053C636.108 341.556 635.706 341.944 635.185 342.218C634.673 342.483 634.088 342.616 633.43 342.616ZM640.685 342.616C639.954 342.616 639.387 342.419 638.985 342.026C638.583 341.633 638.382 341.071 638.382 340.34V333.676H639.698V340.285C639.698 340.678 639.794 340.98 639.986 341.19C640.187 341.4 640.47 341.505 640.836 341.505C641.247 341.505 641.59 341.391 641.864 341.163L642.276 342.109C642.075 342.282 641.832 342.41 641.549 342.493C641.275 342.575 640.987 342.616 640.685 342.616ZM637.148 336.35V335.267H641.782V336.35H637.148Z" fill="#5C6F88"/>
<rect x="674.351" y="210.986" width="22.2812" height="22.2812" fill="#6C11D9"/>
<rect x="674.351" y="188.705" width="22.2812" height="22.2812" fill="#AD69FF"/>
<rect x="674.351" y="277.83" width="22.2812" height="22.2812" fill="#04B4FC"/>
<rect x="674.351" y="255.548" width="22.2812" height="22.2812" fill="#51CCFF"/>
<rect x="674.351" y="233.267" width="22.2812" height="22.2812" fill="#8EDEFF"/>
<path d="M675.79 342.534V332.936H676.915L683.263 340.82H682.673V332.936H684.045V342.534H682.92L676.572 334.65H677.161V342.534H675.79ZM689.838 342.616C689.107 342.616 688.458 342.456 687.891 342.136C687.324 341.816 686.876 341.377 686.547 340.82C686.218 340.253 686.054 339.613 686.054 338.9C686.054 338.178 686.218 337.538 686.547 336.981C686.876 336.423 687.324 335.989 687.891 335.678C688.458 335.358 689.107 335.198 689.838 335.198C690.56 335.198 691.205 335.358 691.771 335.678C692.347 335.989 692.795 336.423 693.115 336.981C693.444 337.529 693.609 338.169 693.609 338.9C693.609 339.622 693.444 340.262 693.115 340.82C692.795 341.377 692.347 341.816 691.771 342.136C691.205 342.456 690.56 342.616 689.838 342.616ZM689.838 341.464C690.304 341.464 690.72 341.359 691.086 341.149C691.461 340.939 691.753 340.642 691.963 340.258C692.174 339.865 692.279 339.412 692.279 338.9C692.279 338.379 692.174 337.931 691.963 337.556C691.753 337.172 691.461 336.875 691.086 336.665C690.72 336.455 690.304 336.35 689.838 336.35C689.372 336.35 688.956 336.455 688.59 336.665C688.225 336.875 687.932 337.172 687.713 337.556C687.493 337.931 687.384 338.379 687.384 338.9C687.384 339.412 687.493 339.865 687.713 340.258C687.932 340.642 688.225 340.939 688.59 341.149C688.956 341.359 689.372 341.464 689.838 341.464ZM697.134 342.534L693.953 335.267H695.324L698.149 341.848H697.491L700.37 335.267H701.659L698.478 342.534H697.134Z" fill="#5C6F88"/>
<rect x="733.201" y="228.125" width="22.2812" height="22.2812" fill="#6C11D9"/>
<rect x="733.201" y="272.688" width="22.2812" height="22.2812" fill="#04B4FC"/>
<rect x="733.201" y="250.406" width="22.2812" height="22.2812" fill="#8EDEFF"/>
<path d="M734.641 342.534V332.936H738.686C739.71 332.936 740.61 333.137 741.387 333.539C742.173 333.941 742.781 334.503 743.211 335.225C743.649 335.948 743.869 336.784 743.869 337.735C743.869 338.685 743.649 339.522 743.211 340.244C742.781 340.966 742.173 341.528 741.387 341.93C740.61 342.333 739.71 342.534 738.686 342.534H734.641ZM736.012 341.341H738.604C739.399 341.341 740.084 341.19 740.66 340.888C741.245 340.587 741.698 340.166 742.018 339.627C742.338 339.078 742.498 338.448 742.498 337.735C742.498 337.013 742.338 336.382 742.018 335.842C741.698 335.303 741.245 334.883 740.66 334.581C740.084 334.279 739.399 334.129 738.604 334.129H736.012V341.341ZM749.013 342.616C748.236 342.616 747.55 342.456 746.956 342.136C746.371 341.816 745.914 341.377 745.585 340.82C745.265 340.262 745.105 339.622 745.105 338.9C745.105 338.178 745.261 337.538 745.571 336.981C745.891 336.423 746.325 335.989 746.874 335.678C747.432 335.358 748.058 335.198 748.752 335.198C749.456 335.198 750.078 335.353 750.617 335.664C751.156 335.975 751.577 336.414 751.879 336.981C752.189 337.538 752.345 338.192 752.345 338.941C752.345 338.996 752.34 339.06 752.331 339.133C752.331 339.206 752.327 339.275 752.317 339.339H746.133V338.393H751.632L751.097 338.722C751.106 338.256 751.01 337.84 750.809 337.474C750.608 337.109 750.329 336.825 749.973 336.624C749.625 336.414 749.219 336.309 748.752 336.309C748.295 336.309 747.889 336.414 747.532 336.624C747.176 336.825 746.897 337.113 746.696 337.488C746.495 337.853 746.394 338.274 746.394 338.749V338.969C746.394 339.453 746.504 339.887 746.723 340.271C746.952 340.646 747.267 340.939 747.669 341.149C748.071 341.359 748.533 341.464 749.054 341.464C749.484 341.464 749.872 341.391 750.22 341.245C750.576 341.099 750.887 340.879 751.152 340.587L751.879 341.437C751.55 341.821 751.138 342.113 750.645 342.314C750.16 342.515 749.616 342.616 749.013 342.616ZM757.34 342.616C756.6 342.616 755.937 342.456 755.352 342.136C754.776 341.816 754.323 341.377 753.994 340.82C753.665 340.262 753.501 339.622 753.501 338.9C753.501 338.178 753.665 337.538 753.994 336.981C754.323 336.423 754.776 335.989 755.352 335.678C755.937 335.358 756.6 335.198 757.34 335.198C757.998 335.198 758.583 335.331 759.095 335.596C759.616 335.852 760.018 336.236 760.302 336.747L759.301 337.392C759.063 337.035 758.771 336.775 758.423 336.61C758.085 336.437 757.719 336.35 757.326 336.35C756.851 336.35 756.426 336.455 756.051 336.665C755.676 336.875 755.379 337.172 755.16 337.556C754.94 337.931 754.831 338.379 754.831 338.9C754.831 339.421 754.94 339.874 755.16 340.258C755.379 340.642 755.676 340.939 756.051 341.149C756.426 341.359 756.851 341.464 757.326 341.464C757.719 341.464 758.085 341.382 758.423 341.217C758.771 341.044 759.063 340.779 759.301 340.422L760.302 341.053C760.018 341.556 759.616 341.944 759.095 342.218C758.583 342.483 757.998 342.616 757.34 342.616Z" fill="#5C6F88"/>
<defs>
<clipPath id="clip0_9_22054">
<rect width="15.4255" height="15.4255" fill="white" transform="translate(560.738 34.9961)"/>
</clipPath>
<clipPath id="clip1_9_22054">
<rect width="15.4255" height="15.4255" fill="white" transform="translate(560.738 34.9961)"/>
</clipPath>
<clipPath id="clip2_9_22054">
<rect width="15.4255" height="15.4255" fill="white" transform="translate(669.012 34.9961)"/>
</clipPath>
<clipPath id="clip3_9_22054">
<rect width="15.4255" height="15.4255" fill="white" transform="translate(669.012 34.9961)"/>
</clipPath>
</defs>
</svg>
