<svg width="783" height="679" viewBox="0 0 783 679" fill="none" xmlns="http://www.w3.org/2000/svg">
<path d="M0.036731 28.5C0.769009 9.46078 16.9179 2.09575 26.9326 0.346131C28.6443 0.0471011 30.3887 0.274929 32.0423 0.808535L163.165 43.121C167.707 44.5868 171.081 48.4236 171.953 53.116L221.562 319.877C222.707 326.034 228.079 330.5 234.342 330.5H626.339C632.775 330.5 638.242 325.79 639.195 319.425L650.458 244.207C651.128 239.73 649.422 235.227 645.953 232.319L593.746 188.558C588.149 183.866 579.785 184.705 575.231 190.415L553.229 218.005C552.439 218.996 551.518 219.892 550.419 220.522C540.395 226.271 529.122 222.346 524.537 219.5L466.402 174.52C460.691 170.101 452.474 171.183 448.101 176.93L422.357 210.765C421.483 211.914 420.434 212.936 419.174 213.64C407.75 220.022 396.121 215.661 391.537 212.5L320.277 163.059C313.298 158.217 303.626 161.259 300.676 169.225L297.43 177.989C296.816 179.646 295.892 181.185 294.545 182.328C290.327 185.908 282.491 190.662 273.037 191C264.582 191.302 258.634 188.773 255.366 186.512C253.697 185.357 252.783 183.474 252.296 181.503L223.523 65.1201C221.496 56.9234 227.699 49 236.143 49H360.236C362.402 49 364.557 49.5037 366.329 50.7497C372.48 55.075 381.194 64.1429 381.537 76.5C381.812 86.3931 376.124 92.8406 370.537 96.8802C366.505 99.7951 363.537 104.157 363.537 109.132V110.756C363.537 114.415 365.079 117.904 367.784 120.368L383.004 134.229C387.872 138.662 395.286 138.756 400.264 134.448L443.537 97C449.937 92.6 456.87 95.1667 459.537 97L515.803 140.282C520.842 144.158 527.946 143.821 532.596 139.485L569.037 105.5C576.237 99.5 585.037 103 588.537 105.5L704.107 206.265C707.485 209.211 709.118 213.625 708.429 218.054C703.459 249.985 689.186 344.316 685.75 367.036C685.261 370.274 683.584 373.142 680.929 375.059C674.494 379.703 661.894 388 654 388C500.833 388 204.137 390 190.537 390C176.937 390 170.87 376.333 169.537 369.5L125.296 103.565C124.519 98.8973 121.268 95.0204 116.808 93.4424L18.0367 58.5C11.7034 57.1667 -0.763269 49.3 0.036731 28.5Z" fill="white"/>
<path d="M663 489C663 533.735 626.735 570 582 570C537.265 570 501 533.735 501 489C501 444.265 537.265 408 582 408C626.735 408 663 444.265 663 489ZM545.55 489C545.55 509.131 561.869 525.45 582 525.45C602.131 525.45 618.45 509.131 618.45 489C618.45 468.869 602.131 452.55 582 452.55C561.869 452.55 545.55 468.869 545.55 489Z" fill="white"/>
<path d="M373 489C373 533.735 336.735 570 292 570C247.265 570 211 533.735 211 489C211 444.265 247.265 408 292 408C336.735 408 373 444.265 373 489ZM255.55 489C255.55 509.131 271.869 525.45 292 525.45C312.131 525.45 328.45 509.131 328.45 489C328.45 468.869 312.131 452.55 292 452.55C271.869 452.55 255.55 468.869 255.55 489Z" fill="white"/>
<rect x="255" y="252" width="347" height="58" rx="29" fill="white"/>
<path d="M59.424 663V624.856H42.4V618.2H83.744V624.856H66.336V663H59.424ZM101.773 663V618.2H127.949C130.594 618.2 133.005 618.819 135.181 620.056C137.4 621.251 139.17 622.893 140.493 624.984C141.816 627.075 142.477 629.4 142.477 631.96C142.477 634.648 141.752 637.101 140.301 639.32C138.85 641.496 136.93 643.245 134.541 644.568C132.152 645.848 129.528 646.488 126.669 646.488H108.685V663H101.773ZM136.461 663L121.229 642.776L128.589 641.176L145.101 663.064L136.461 663ZM108.685 639.832H126.029C127.65 639.832 129.144 639.469 130.509 638.744C131.917 638.019 133.026 637.059 133.837 635.864C134.69 634.669 135.117 633.368 135.117 631.96C135.117 630.637 134.69 629.443 133.837 628.376C133.026 627.309 131.917 626.456 130.509 625.816C129.144 625.176 127.65 624.856 126.029 624.856H108.685V639.832ZM160.701 663L182.589 618.2H190.653L212.413 663H204.797L189.757 632.152C189.373 631.341 188.988 630.552 188.604 629.784C188.221 629.016 187.837 628.248 187.453 627.48C187.111 626.712 186.77 625.901 186.429 625.048C186.087 624.195 185.746 623.256 185.405 622.232L187.453 622.168C187.069 623.192 186.685 624.152 186.301 625.048C185.959 625.944 185.597 626.797 185.213 627.608C184.829 628.419 184.445 629.229 184.061 630.04C183.677 630.808 183.293 631.597 182.909 632.408L167.997 663H160.701ZM170.237 652.504L172.989 645.848H199.549L200.637 652.504H170.237ZM229.961 663V618.2H236.809L273.161 654.872L272.777 655.448C272.563 654.168 272.371 652.803 272.201 651.352C272.073 649.859 271.966 648.344 271.881 646.808C271.795 645.229 271.71 643.651 271.625 642.072C271.582 640.451 271.539 638.872 271.497 637.336C271.497 635.8 271.497 634.328 271.497 632.92V618.2H278.409V663H271.433L235.529 627.672L235.593 626.776C235.678 627.544 235.763 628.461 235.849 629.528C235.934 630.595 236.041 631.747 236.169 632.984C236.297 634.221 236.403 635.501 236.489 636.824C236.617 638.104 236.702 639.405 236.745 640.728C236.83 642.008 236.873 643.224 236.873 644.376V663H229.961ZM320.655 663.64C317.455 663.64 314.489 663.32 311.759 662.68C309.071 662.04 306.596 661.08 304.335 659.8C302.116 658.52 300.089 656.899 298.255 654.936L302.607 649.176C305.38 652.035 308.196 654.125 311.055 655.448C313.956 656.771 317.177 657.432 320.719 657.432C322.937 657.432 325.071 657.176 327.119 656.664C329.167 656.109 330.852 655.299 332.175 654.232C333.497 653.123 334.159 651.736 334.159 650.072C334.159 649.005 333.796 648.131 333.071 647.448C332.345 646.765 331.385 646.211 330.191 645.784C329.039 645.357 327.78 645.016 326.415 644.76C325.049 644.504 323.727 644.312 322.447 644.184C321.209 644.056 320.164 643.949 319.311 643.864C316.452 643.48 313.849 642.968 311.503 642.328C309.199 641.645 307.215 640.792 305.551 639.768C303.929 638.744 302.671 637.485 301.775 635.992C300.921 634.499 300.495 632.771 300.495 630.808C300.495 628.717 300.985 626.861 301.967 625.24C302.991 623.576 304.399 622.189 306.191 621.08C308.025 619.928 310.137 619.053 312.527 618.456C314.959 617.859 317.583 617.56 320.399 617.56C323.385 617.56 326.116 617.859 328.591 618.456C331.065 619.053 333.263 619.949 335.183 621.144C337.145 622.296 338.767 623.725 340.047 625.432L335.439 630.488C334.244 629.037 332.857 627.821 331.279 626.84C329.7 625.816 327.972 625.048 326.095 624.536C324.26 624.024 322.297 623.768 320.207 623.768C317.903 623.768 315.833 624.024 313.999 624.536C312.164 625.048 310.713 625.773 309.647 626.712C308.58 627.608 308.047 628.717 308.047 630.04C308.047 631.192 308.367 632.173 309.007 632.984C309.689 633.795 310.628 634.477 311.823 635.032C313.017 635.544 314.447 635.971 316.111 636.312C317.817 636.653 319.695 636.952 321.743 637.208C324.303 637.507 326.777 637.891 329.167 638.36C331.556 638.829 333.689 639.491 335.567 640.344C337.444 641.155 338.937 642.264 340.047 643.672C341.156 645.08 341.711 646.915 341.711 649.176C341.711 652.077 340.836 654.616 339.087 656.792C337.337 658.968 334.884 660.653 331.727 661.848C328.612 663.043 324.921 663.64 320.655 663.64ZM361.523 663V618.2H368.435V663H361.523ZM363.827 644.568V637.912H395.379V644.568H363.827ZM364.723 624.856V618.2H398.259V624.856H364.723ZM441.951 663.64C437.984 663.64 434.357 663.064 431.072 661.912C427.786 660.717 424.928 659.075 422.496 656.984C420.064 654.851 418.186 652.397 416.864 649.624C415.541 646.808 414.88 643.8 414.88 640.6C414.88 637.4 415.541 634.413 416.864 631.64C418.186 628.824 420.064 626.371 422.496 624.28C424.928 622.147 427.786 620.504 431.072 619.352C434.357 618.157 437.984 617.56 441.951 617.56C445.877 617.56 449.482 618.157 452.768 619.352C456.053 620.504 458.912 622.147 461.344 624.28C463.776 626.371 465.653 628.824 466.976 631.64C468.341 634.413 469.024 637.4 469.024 640.6C469.024 643.8 468.341 646.808 466.976 649.624C465.653 652.397 463.776 654.851 461.344 656.984C458.912 659.075 456.053 660.717 452.768 661.912C449.482 663.064 445.877 663.64 441.951 663.64ZM441.951 656.92C444.896 656.92 447.584 656.515 450.016 655.704C452.448 654.851 454.56 653.699 456.352 652.248C458.144 650.755 459.53 649.027 460.512 647.064C461.493 645.059 461.984 642.904 461.984 640.6C461.984 638.296 461.493 636.163 460.512 634.2C459.53 632.195 458.144 630.467 456.352 629.016C454.56 627.523 452.448 626.371 450.016 625.56C447.584 624.707 444.896 624.28 441.951 624.28C439.008 624.28 436.298 624.707 433.824 625.56C431.392 626.371 429.28 627.523 427.488 629.016C425.696 630.467 424.309 632.195 423.328 634.2C422.389 636.163 421.92 638.296 421.92 640.6C421.92 642.904 422.389 645.059 423.328 647.064C424.309 649.027 425.696 650.755 427.488 652.248C429.28 653.699 431.392 654.851 433.824 655.704C436.298 656.515 439.008 656.92 441.951 656.92ZM488.836 663V618.2H515.012C517.657 618.2 520.068 618.819 522.244 620.056C524.462 621.251 526.233 622.893 527.556 624.984C528.878 627.075 529.54 629.4 529.54 631.96C529.54 634.648 528.814 637.101 527.364 639.32C525.913 641.496 523.993 643.245 521.604 644.568C519.214 645.848 516.59 646.488 513.732 646.488H495.748V663H488.836ZM523.524 663L508.292 642.776L515.652 641.176L532.164 663.064L523.524 663ZM495.748 639.832H513.092C514.713 639.832 516.206 639.469 517.572 638.744C518.98 638.019 520.089 637.059 520.9 635.864C521.753 634.669 522.18 633.368 522.18 631.96C522.18 630.637 521.753 629.443 520.9 628.376C520.089 627.309 518.98 626.456 517.572 625.816C516.206 625.176 514.713 624.856 513.092 624.856H495.748V639.832ZM553.523 663V618.2H560.307L580.723 643.48H578.291L598.707 618.2H605.491V663H598.579V643.992C598.579 640.451 598.664 637.123 598.835 634.008C599.006 630.893 599.347 627.715 599.859 624.472L600.563 627.096L581.619 650.136H577.395L558.451 627.096L559.155 624.472C559.667 627.715 560.008 630.893 560.179 634.008C560.35 637.123 560.435 640.451 560.435 643.992V663H553.523ZM628.773 663V618.2H665.957V624.856H635.685V656.344H665.957V663H628.773ZM632.549 643.352V636.696H662.437V643.352H632.549ZM687.836 663V618.2H714.012C716.657 618.2 719.068 618.819 721.244 620.056C723.462 621.251 725.233 622.893 726.556 624.984C727.878 627.075 728.54 629.4 728.54 631.96C728.54 634.648 727.814 637.101 726.364 639.32C724.913 641.496 722.993 643.245 720.604 644.568C718.214 645.848 715.59 646.488 712.732 646.488H694.748V663H687.836ZM722.524 663L707.292 642.776L714.652 641.176L731.164 663.064L722.524 663ZM694.748 639.832H712.092C713.713 639.832 715.206 639.469 716.572 638.744C717.98 638.019 719.089 637.059 719.9 635.864C720.753 634.669 721.18 633.368 721.18 631.96C721.18 630.637 720.753 629.443 719.9 628.376C719.089 627.309 717.98 626.456 716.572 625.816C715.206 625.176 713.713 624.856 712.092 624.856H694.748V639.832Z" fill="white"/>
</svg>
