<svg width="710" height="570" viewBox="0 0 710 570" fill="none" xmlns="http://www.w3.org/2000/svg">
<path d="M0.036731 28.5C0.769009 9.46078 16.9179 2.09575 26.9326 0.346131C28.6443 0.0471011 30.3887 0.274929 32.0423 0.808535L163.165 43.121C167.707 44.5868 171.081 48.4236 171.953 53.116L221.562 319.877C222.707 326.034 228.079 330.5 234.342 330.5H626.339C632.775 330.5 638.242 325.79 639.195 319.425L650.458 244.207C651.128 239.73 649.422 235.227 645.953 232.319L593.746 188.558C588.149 183.866 579.785 184.705 575.231 190.415L553.229 218.005C552.439 218.996 551.518 219.892 550.419 220.522C540.395 226.271 529.122 222.346 524.537 219.5L466.402 174.52C460.691 170.101 452.474 171.183 448.101 176.93L422.357 210.765C421.483 211.914 420.434 212.936 419.174 213.64C407.75 220.022 396.121 215.661 391.537 212.5L320.277 163.059C313.298 158.217 303.626 161.259 300.676 169.225L297.43 177.989C296.816 179.646 295.892 181.185 294.545 182.328C290.327 185.908 282.491 190.662 273.037 191C264.582 191.302 258.634 188.773 255.366 186.512C253.697 185.357 252.783 183.474 252.296 181.503L223.523 65.1201C221.496 56.9234 227.699 49 236.143 49H360.236C362.402 49 364.557 49.5037 366.329 50.7497C372.48 55.075 381.194 64.1429 381.537 76.5C381.812 86.3931 376.124 92.8406 370.537 96.8802C366.505 99.7951 363.537 104.157 363.537 109.132V110.756C363.537 114.415 365.079 117.904 367.784 120.368L383.004 134.229C387.872 138.662 395.286 138.756 400.264 134.448L443.537 97C449.937 92.6 456.87 95.1667 459.537 97L515.803 140.282C520.842 144.158 527.946 143.821 532.596 139.485L569.037 105.5C576.237 99.5 585.037 103 588.537 105.5L704.107 206.265C707.485 209.211 709.118 213.625 708.429 218.054C703.459 249.985 689.186 344.316 685.75 367.036C685.261 370.274 683.584 373.142 680.929 375.059C674.494 379.703 661.894 388 654 388C500.833 388 204.137 390 190.537 390C176.937 390 170.87 376.333 169.537 369.5L125.296 103.565C124.519 98.8973 121.268 95.0204 116.808 93.4424L18.0367 58.5C11.7034 57.1667 -0.763269 49.3 0.036731 28.5Z" fill="#5195D4"/>
<path d="M663 489C663 533.735 626.735 570 582 570C537.265 570 501 533.735 501 489C501 444.265 537.265 408 582 408C626.735 408 663 444.265 663 489ZM545.55 489C545.55 509.131 561.869 525.45 582 525.45C602.131 525.45 618.45 509.131 618.45 489C618.45 468.869 602.131 452.55 582 452.55C561.869 452.55 545.55 468.869 545.55 489Z" fill="#5195D4"/>
<path d="M373 489C373 533.735 336.735 570 292 570C247.265 570 211 533.735 211 489C211 444.265 247.265 408 292 408C336.735 408 373 444.265 373 489ZM255.55 489C255.55 509.131 271.869 525.45 292 525.45C312.131 525.45 328.45 509.131 328.45 489C328.45 468.869 312.131 452.55 292 452.55C271.869 452.55 255.55 468.869 255.55 489Z" fill="#5195D4"/>
<rect x="255" y="252" width="347" height="58" rx="29" fill="#5195D4"/>
</svg>
